<?xml version="1.0" encoding="utf-8"?>
<!-- Generator: Adobe Illustrator 21.0.0, SVG Export Plug-In . SVG Version: 6.00 Build 0)  -->
<svg version="1.1" id="Capa_1" xmlns="http://www.w3.org/2000/svg" xmlns:xlink="http://www.w3.org/1999/xlink" x="0px" y="0px"
	 viewBox="0 0 717 77" style="enable-background:new 0 0 717 77;" xml:space="preserve">
<style type="text/css">
	.st0{fill:#92908E;}
</style>
<g>
	<path class="st0" d="M42.4,27.4c-0.5,1.2,0.4,2.5,0.8,3.8c0.4,1.5,0.1,2.8-0.4,4.1c-0.6,1.7-1.8,3-3.3,3.9c-0.7,0.4-1,0.9-1.3,1.6
		c-2.4,6.2-5,12.3-7.5,18.5c-1.2,3-2.4,6-3.6,9c-0.2,0.6-0.5,1.1-1.2,1.1c-0.6,0-1-0.4-1.3-1c-0.7-1.7-1.3-3.4-2-5.1
		c-1.4-3.4-2.7-6.9-4.1-10.3c-1.7-4.2-3.5-8.4-5.1-12.7c-0.2-0.5-0.4-0.7-0.8-1c-1.8-1.1-3.3-2.5-3.8-4.6c-0.4-1.7-0.5-3.3,0.3-4.9
		c0.5-1,1.2-2,0.5-3.2c0.2-1.7,0.6-3.4,1.8-4.7c0.3-0.3,0.6-0.6,0.9-0.9c0.3-0.3,0.4-0.5,0.5-0.9c0.8-3.7,3.4-6.1,6.7-7.6
		c1.7-0.8,3.6-1.1,5.4-1.2c2.1-0.1,4.1,0.3,6.1,1.1c3.3,1.3,5.8,3.4,7,6.9c0.2,0.5,0.5,0.9,1,1.1c1.7,1,2.7,2.6,3.2,4.5
		c0.1,0.2,0.2,0.4,0.2,0.6C42.4,25.8,42.4,26.5,42.4,27.4z M25.4,13.5c-2.5-0.1-4.9,0.5-7,1.9c-1.8,1.3-3.2,2.8-3.5,5.1
		c-0.1,0.8-0.6,1.5-1.3,2.1c-1.4,1.1-1.9,2.5-1.9,4.2c0,0.6,0.6,1.2,0.3,1.8c-0.3,0.6-0.7,1.2-1,1.8c-1.1,2.4-0.4,5,1.8,6.4
		c1.8,1.2,3.7,1.3,5.6,0.1c0.4-0.2,0.7-0.4,1.1-0.6c0.8-0.4,1-0.4,1.4,0.3c0.4,0.7,0.8,1.4,1.4,1.9c2.8,2.1,6.4,1.1,7.8-1.6
		c0.5-1,1.2-1.1,2.1-0.5c0.5,0.3,1.1,0.7,1.6,0.9c2,0.9,4.1,0.3,5.5-1.3c1.5-1.7,1.4-3.7,0.5-5.6c-0.4-0.9-0.6-1.7-0.3-2.7
		c0.6-2.4-0.5-4.9-2.8-5.9c-0.8-0.3-1.1-0.8-1.2-1.4c-0.3-2.3-1.8-3.7-3.5-5C30.2,14,27.9,13.4,25.4,13.5z M29.4,48.9
		c-1.1-1.3-2.4-2.3-3.3-3.6c-0.3-0.4-0.6-0.4-0.9-0.1c-1,1-1.9,2-2.9,2.9c-0.4,0.4-0.4,0.8,0.1,1.2c0.3,0.3,0.5,0.6,0.7,0.8
		c0.7,0.8,1.4,1.6,2.2,2.3c0.3,0.3,0.6,0.3,0.8,0C26.9,51.2,28.3,50.3,29.4,48.9z M34.5,43.1c-0.6-0.6-1.2-1.1-1.7-1.7
		c-0.5-0.6-0.9-1.4-1.7-1.7c-0.7,0.7-1.3,1.3-2.2,1.7c-0.6,0.2-0.9,0.7-1.3,1.2c-0.5,0.5-0.4,0.7,0,1.2c1,1,2,2,2.9,3.1
		c0.1,0.1,0.3,0.1,0.4,0.2C32.2,45.8,33.6,44.7,34.5,43.1z M20,39.7c-0.9,0.9-1.8,1.8-2.7,2.6c-0.5,0.5-0.4,0.8-0.1,1.4
		c0.6,1,1.6,1.7,2.2,2.7c0.2,0.3,0.4,0.6,0.9,0.6c1.2-1.2,2.5-2.5,3.7-3.7C23,41.5,21.1,41.1,20,39.7z M23.5,59.2c0,0.1,0,0.3,0,0.3
		c0.7,1.6,1.3,3.3,2,4.9c0.1,0.3,0.4,0.1,0.5-0.2c0.5-1.3,1.1-2.7,1.7-4c0.3-0.6,0.3-1-0.2-1.4c-0.2-0.1-0.3-0.3-0.4-0.5
		c-1.7-2.5-1.7-1.5-3.2-0.1C23.7,58.5,23.5,58.8,23.5,59.2z M31.1,50.8c-0.2,0-0.4,0-0.6,0.2c-1,1.1-2.1,2-3,3.3
		c-0.1,0.2-0.3,0.4-0.1,0.6c0.6,0.5,0.8,1.5,1.7,1.7C30.7,53.4,31.2,51.9,31.1,50.8z M20.2,50.5c-0.2,0.4-0.2,0.6-0.1,0.9
		c0.5,1,0.9,2.1,1.3,3.2c0.8,2.1,0.8,2.1,2.4,0.4c0.1-0.1,0-0.2,0.1-0.3C22.7,53.2,21.3,52,20.2,50.5z"/>
	<path class="st0" d="M27.1,16.3c0,0.5-0.1,0.9-0.7,1.1c-0.3,0.1-0.6,0.2-0.9,0.3c-2,0.8-3.7,1.9-4.6,4c-0.2,0.4-0.2,0.7-0.3,1.1
		c-0.2,0.6-1,1-1.5,0.8c-0.7-0.2-1-0.8-0.8-1.5c0.7-3.3,2.8-5.3,5.8-6.4c0.6-0.2,1.1-0.5,1.8-0.5C26.8,15.1,27.1,15.4,27.1,16.3z"/>
	<path class="st0" d="M37.4,30.4c-0.6,0-1-0.3-1-1c0-1.5-0.8-2.4-2-3.1c-0.9-0.6-0.9-1.4-0.1-2.1c0.3-0.2,0.6-0.3,0.9-0.2
		c1.6,0.6,2.7,1.8,3.3,3.4c0.2,0.4,0.2,0.9,0.3,1.4C39,29.8,38.4,30.5,37.4,30.4z"/>
</g>
<path class="st0" d="M81.4,63.2c-7.1,0-14.1,0-21.2,0c-1.7,0-1.9,0.2-1.7-1.9c0.4-2.8,0.8-5.5,1.3-8.3c0.1-0.4,0.1-0.9,0.4-1
	c0.9-0.3,1-1.2,1.3-1.8c0.8-1.5,2.1-2.4,3.7-2.8c0.5-0.2,0.8-0.3,1-0.9c0.5-1.4,1.3-1.8,2.9-1.5c0.4,0.1,0.7,0,1.1-0.2
	c1-0.6,2.2-0.8,3.4-0.7c0.9,0,1,0,1-1c0-3.9,0.1-7.9,0-11.8c-0.1-3.5,0.4-6.9,0.8-10.3c0.1-0.9,0.1-1.9,0.1-2.9
	c0-0.6,0.2-0.9,0.9-0.9c0.3,0,0.6,0,1,0c8.2,0,16.5,0,24.7,0c1.9,0,1.9,0,1.9,1.8c0,2.1,0.3,4.1,0.6,6.2c0.1,0.9,0.2,1.9,0.2,2.9
	c0,11.1,0,22.2,0,33.3c0,0.2,0,0.3,0,0.5c0,1.3,0,1.3-1.4,1.3C95.8,63.2,88.6,63.2,81.4,63.2z M102.8,41.3c0-1.6,0-2.9,0-4.2
	c0-2.7,0-5.4,0-8.1c0-1,0-1-1.1-1c-1.4,0-2.8,0-4.1,0c-0.6,0-0.9-0.1-0.9-0.8c0-0.6,0.2-0.8,0.8-0.8c1.4,0,2.9,0,4.3,0
	c0.5,0,0.7-0.2,0.7-0.8c-0.1-1.1-0.1-2.1-0.4-3.2c-0.1-0.4-0.2-0.6-0.6-0.6c-0.3,0-0.6,0-1,0c-7.4,0-14.9,0-22.3,0c-0.3,0-0.6,0-1,0
	c-0.4,0-0.6,0.2-0.7,0.5c-0.2,1.9-0.6,3.8-0.6,5.7c-0.1,5.2,0,10.3,0,15.5c0,1.4,0.6,2,2,2c1,0,1.8,0.3,2.3,1.1
	c0.3,0.5,0.6,0.7,1.1,0.8c1.6,0.6,2.7,1.7,3.3,3.2c0.1,0.3,0.2,0.7,0.6,0.9c0.7,0.3,0.7,0.8,0.8,1.4c0.2,1.6,0.5,3.1,0.7,4.7
	c0.1,0.6,0.3,0.9,0.9,0.9c1,0,1.9,0,2.9,0c0.5,0,0.7-0.2,0.7-0.7c0-2,0.2-4-1-5.9c-0.3-0.4-0.4-0.9-0.5-1.3c-0.1-0.7-0.4-1-1.3-1.1
	c-1.3-0.1-1.9-0.9-2.2-2.2c-0.1-0.7,0.4-1.2,0.3-2c-1.7,0.3-3.2-0.3-4.7-1.2c-0.8-0.4-1.2-1-1.4-1.8c-0.2-1.1-0.2-2.2,0.1-3.3
	c0.3-1,0.9-1.5,1.8-1.8c0.6-0.2,1.2-0.1,1.7-0.1c0.6,0,0.9-0.2,1.1-0.7c0.4-0.9,0.8-1.7,1.3-2.6c0.6-1.1,1.5-1.6,2.7-1.6
	c1.9,0,3.8,0,5.7,0c2.1,0,3.5,1.4,3.5,3.5c0,0.7,0,1.5,0,2.2c0,0.4,0,0.7,0.4,0.9C100.3,39.8,101.4,40.5,102.8,41.3z M85.7,61.3
	c-0.2-2.5-0.7-5.1-1.1-7.6c0-0.3-0.3-0.4-0.5-0.4c-0.3,0-0.6,0-1,0c-6.7,0-13.5,0-20.2,0c-0.3,0-0.5,0-0.8,0c-0.6,0-0.7,0.2-0.7,0.9
	c0,0.5,0.3,0.6,0.7,0.6c0.9,0,1.8,0,2.7,0c0.3,0,0.5,0,0.7,0.3c0.3,0.6-0.1,1.3-0.8,1.3c-1,0-1.9,0-2.9,0c-0.4,0-0.7,0.1-0.8,0.6
	c-0.2,1.4-0.4,2.7-0.6,4.1c0,0.3,0.1,0.5,0.5,0.5c0.3,0,0.6,0,1,0c7.5,0,15,0,22.5,0C84.7,61.6,85.2,61.7,85.7,61.3z M99,52.9
	c-0.2,0.4-0.4,0.6-0.6,0.9c-0.5,0.9-0.5,0.9,0.1,1.7c0.7,0.9,1.5,1.8,2.2,2.7c0.3,0.4,1.5,0.6,1.9,0.4c0.2-0.1,0.3-0.3,0.3-0.5
	c0-0.4,0-0.7,0-1.1c0-4,0-8.1,0-12.1c0-0.6,0.4-1.6-0.4-1.8c-0.7-0.2-0.9,0.7-1.3,1.2c-2.2,2.7-4.9,4.5-8.3,5.3
	c-0.5,0.1-1,0.1-1.5,0.6c0.2,0.5,0.3,1.1,0.6,1.5c1,1.6,1.2,3.3,1,5c0,0.3,0,0.5,0,0.8c0,1.5,0,1.3,1.4,1.3c1.6,0,1.5,0.1,1.5-1.6
	c0-0.4,0-0.9,0-1.3c-0.1-0.8,0.1-1.5,0.6-2.1c0.4-0.5,0.7-1.2,1.2-1.6C98.2,52.2,98.5,52.5,99,52.9z M95.6,42.5
	c-0.4-0.1-0.6-0.1-0.8-0.2c-1.7-0.5-2.7-1.6-2.5-3.5c0.1-0.8,0-1.7,0-2.5c0-2.2,0-2.1-2.2-2.2c-1.1,0-1.7,0.5-2.2,1.4
	c-0.7,1.3-1,2.8-2.4,3.7c-0.1,0-0.1,0.2-0.2,0.3c-0.4,1.3-1.2,2-2.5,2.4c-0.4,0.1-0.5,0.5-0.2,0.8c0.1,0.2,0.3,0.3,0.5,0.4
	c1,0.5,2,1.1,3.3,1c0.8-0.1,1.7,0,2.5,0c0.6,0,1.2-0.1,1.6,0.5c0.3,0.4,0.8,0.2,1.2,0.1C93,44.2,94.3,43.7,95.6,42.5z M83.3,51.6
	c-0.5-1.1-1.1-1.8-1.8-2.2c-0.5-0.3-0.9-0.4-1.4,0.1c-0.6,0.6-1.3,1-2.3,0.7c-1.2-0.4-1.8-1.1-1.8-2.5c0-0.8-0.3-1.2-0.9-1.5
	c-0.8-0.4-1.6-0.6-2.4-0.6c-0.6,0-1.1,0.2-1.6,0.6c-0.4,0.3-0.2,0.8-0.3,1.2c-0.4,1.9-1.9,2.6-3.6,1.7c-0.5-0.3-1-0.4-1.5-0.2
	c-1.3,0.5-2.4,1.3-3,2.8c2.2,0,4.3,0,6.5,0c0.4,0,0.9,0.1,1.3-0.1c0.5-0.2,0.2-0.8,0.3-1.1c0.4-1.2,1.4-2,2.5-1.8
	c1.2,0.1,1.9,0.9,2.2,2.2c0.1,0.3-0.1,0.7,0.2,0.8C78.2,51.6,80.7,51.6,83.3,51.6z M89.6,18.8c-3.7,0-7.4,0-11.1,0
	c-1.4,0-1.5,0.1-1.5,0.8c0,0.7,0.1,0.7,1.6,0.7c7.3,0,14.6,0,22,0c0.3,0,0.5,0,0.8,0c0.6,0,0.9-0.2,0.9-0.8c0-0.6-0.3-0.7-0.8-0.7
	c-0.3,0-0.6,0-1,0C96.8,18.8,93.2,18.8,89.6,18.8z M95.1,61.6c2.1,0,4.1,0,6.2,0c0.4,0,0.7,0,1.1,0c0.3,0,0.4-0.2,0.4-0.5
	c0-0.3,0-0.7-0.4-0.8c-0.3-0.1-0.6,0-1,0c-4.2,0-8.5,0-12.7,0c-0.3,0-0.5,0-0.8,0c-0.5,0-0.6,0.4-0.5,0.8c0,0.6,0.5,0.6,0.9,0.6
	C90.6,61.6,92.8,61.6,95.1,61.6z M93.8,36.9C93.8,36.9,93.8,36.9,93.8,36.9c0,0.6,0,1.3,0,1.9c0,1.1,0.8,2,1.7,1.9
	c0.8,0,1.5-0.8,1.6-1.9c0-0.8,0-1.7,0-2.5c0-1.6-0.9-2.3-2.5-2.2c-0.5,0-0.8,0.1-0.8,0.7C93.9,35.5,93.8,36.2,93.8,36.9z M100.6,42
	c-0.2-0.2-0.3-0.2-0.5-0.3c-1.3-0.9-1.2-0.6-1.8,0.3c-0.5,0.7-1.1,1.4-1.8,2c-1.3,1.1-2.8,1.9-4.5,2.2c-0.5,0.1-0.7,0.3-0.7,0.8
	c0,0.3,0,0.5,0.3,0.9C95.4,47.4,98.3,45.3,100.6,42z M88.9,46.5c-0.4,0-0.8,0.4-0.8,0.8c0,0.4,0.3,0.7,0.7,0.7
	c0.4,0,0.8-0.3,0.9-0.7C89.7,46.9,89.3,46.5,88.9,46.5z M69.2,47.2c0-0.4-0.5-0.9-0.9-0.8c-0.3,0.1-0.6,0.3-0.6,0.7
	c0,0.4,0.2,0.7,0.7,0.7C68.8,47.8,69.1,47.5,69.2,47.2z M73.7,50.9c0-0.4-0.2-0.6-0.6-0.6c-0.4-0.1-0.7,0.2-0.8,0.6
	c-0.1,0.3,0.3,0.8,0.7,0.7C73.4,51.6,73.6,51.3,73.7,50.9z M79.1,47.8c-0.1-0.4-0.3-0.7-0.8-0.6c-0.4,0-0.7,0.3-0.6,0.7
	c0,0.3,0.3,0.6,0.7,0.5C78.8,48.5,79,48.2,79.1,47.8z"/>
<path class="st0" d="M84.5,32.5c-0.9,0.1-1.8-0.1-2.4-0.8c-0.5-0.6-1.2-0.6-1.9-0.6c-0.6,0-1.3,0-1.9-0.1c-0.7-0.1-1-0.6-0.7-1.2
	c0.4-0.8,0.4-1.5,0-2.3c-0.3-0.8,0-1.2,0.9-1.2c0.4,0,0.9,0,1.3,0c0.9,0.1,1.6-0.1,2.3-0.8c1.2-1.1,3.2-1.2,4.5-0.1
	c0.9,0.7,1.7,1,2.7,0.9c0.2,0,0.3,0,0.5,0c1.5,0,1.7,0.2,1.2,1.7c-0.2,0.6,0,1,0.1,1.5c0.4,1.1,0,1.5-1.1,1.5c-0.3,0-0.6,0-1,0
	c-0.9-0.1-1.7,0.1-2.5,0.7C86.1,32.4,85.3,32.6,84.5,32.5z M84.6,30.9c1.2,0,2.3-1.1,2.2-2.2c0-1.2-1.2-2.3-2.4-2.2
	c-1.2,0.1-2.1,1.1-2.1,2.3C82.4,30,83.3,31,84.6,30.9z"/>
<path class="st0" d="M94.4,26.4c0.8,0,1,0.1,1,0.9c0,0.7-0.1,0.7-0.9,0.7c-0.8,0-0.9-0.1-0.9-0.8C93.6,26.5,93.7,26.4,94.4,26.4z"/>
<path class="st0" d="M71.5,57.7c0.8-0.8,1.7-0.9,2.7-0.3c0.3-0.5,0.3-1.4,1.2-1.2c0.4,0.1,0.7,0.4,0.6,1c-0.1,0.5-0.5,0.7-1.5,0.5
	c-0.3,0.4,0,0.7,0.3,0.9c0.3,0.2,0.6,0.5,0.4,0.9c-0.1,0.5-0.5,0.6-1,0.6c-0.8,0-1.7,0-2.5,0c-1.1-0.1-1.3-0.7-0.6-1.6
	c0.1-0.2,0.2-0.4,0.1-0.6l0,0C71.5,58.1,71.5,57.9,71.5,57.7L71.5,57.7z"/>
<path class="st0" d="M71.2,58c-0.3-0.1-0.5-0.1-0.8-0.2c-0.5-0.2-0.6-0.6-0.5-1c0.1-0.4,0.4-0.6,0.8-0.6c0.4,0,0.7,0.3,0.7,0.7
	c0,0.3,0,0.5,0,0.8l0,0C71.3,57.7,71.1,57.7,71.2,58L71.2,58z"/>
<path class="st0" d="M68.4,55.5c0,0.7-0.1,0.8-0.8,0.8c-0.7,0-0.8-0.1-0.8-0.8c0-0.5,0.2-0.8,0.7-0.8C68.2,54.8,68.4,54.9,68.4,55.5
	z"/>
<path class="st0" d="M73,54.8c0.5,0,0.8,0.2,0.8,0.7c0,0.5-0.3,0.8-0.7,0.8c-0.5,0-0.8-0.3-0.8-0.8C72.1,55.1,72.5,54.8,73,54.8z"/>
<path class="st0" d="M90.9,37.2c0,0.6-0.5,1.1-1.2,1c-0.6-0.1-1-0.5-0.9-1c0-0.6,0.5-0.9,1.1-0.9C90.5,36.3,90.9,36.7,90.9,37.2z"/>
<path class="st0" d="M71.2,58c-0.1-0.3,0.1-0.4,0.4-0.4C71.5,57.9,71.5,58.1,71.2,58z"/>
<path class="st0" d="M144.9,28.5c1.9-2.7,4.3-4.4,7.3-5.1c0.7-0.2,1.5-0.1,2.2-0.1c0.9,0,0.9,0,1.3-1c0.7-2.1,2.1-3.4,4.2-4
	c0.3-0.1,0.7-0.1,1.1-0.1c3.5,0,6.9,0,10.4,0c3.4,0,5.6,2.9,5.6,5.7c0,5,0,10.1,0,15.1c0,0.9,0,1.7,1,2.1c0.5,0.2,0.6,0.8,0.6,1.3
	c0.1,2.1-0.1,4-0.8,6c-1,3-1.8,6-2.7,9.1c-0.2,0.7-0.5,1.5-0.7,2.2c-0.4,1.7-2.3,2.9-3.7,3c-0.3,0-0.6,0-1,0c-10.6,0-21.2,0-31.9,0
	c-2.6,0-3.8-0.9-4.6-3.3c-1.2-3.9-2.4-7.8-3.5-11.7c-0.4-1.5-0.5-2.9-0.6-4.3c0-0.7,0.3-1.2,0.8-1.6c0.7-0.4,1.3-0.8,2-1.3
	c0.9-0.6,1-0.7,0.6-1.6c-0.4-1.2-0.8-2.3-1.3-3.5c-0.5-1.2-0.9-2.4-1.3-3.7c-0.8-2.2-0.2-5,1.1-6.8c1.5-2,3.4-2.9,5.7-3
	c3.2,0,5.6,1.5,7.1,4.3C144.3,27.1,144.6,27.8,144.9,28.5z M135.6,38.1c0.4,0,0.8-0.1,1.1-0.4c1.3-0.9,2.6-1.7,3.9-2.5
	c0.6-0.4,1.1-0.4,1.8-0.1c0.5,0.2,0.9,0.4,1.4,0.6c0.6,0.2,1.2,0.6,1.9,0.5c0,0.1,0.1,0.2,0.1,0.2c0.1,0,0.2,0,0.1-0.1
	c0-0.1-0.1-0.1-0.2-0.1c0-0.2,0-0.4,0-0.6c-1.1-2.6-2.1-5.2-3.2-7.8c-0.5-1.1-1.3-2.1-2.4-2.8c-2.6-1.7-6.4-1-8,1.9
	c-0.8,1.4-1.1,3-0.3,4.5c0.7-0.7,1.4-1.3,2-1.9c0.6-0.6,1.3-1.1,2.1-1.4c0.9-0.3,1.8-0.5,2.7-0.7c0.6-0.1,1.3,0.5,1.4,1
	c0.2,2.2,0,4.3-1.5,6.1c-0.7,0.9-1.5,1.7-2.3,2.6C135.9,37.3,135.5,37.5,135.6,38.1c-0.1,0-0.2,0-0.3,0.1c0.1,0,0.1,0.1,0.2,0.1
	C135.5,38.2,135.6,38.2,135.6,38.1z M157.3,23.6c1.1,0,1.8,0.6,2.7,1c4.9,2.2,7.5,8.4,5.7,13.8c-0.1,0.3-0.2,0.6,0,0.8
	c1.6-0.8,3.2-1.6,4.7-2.5c0.6-0.4,1.1-0.3,1.6,0.1c0.3,0.2,0.5,0.4,0.7,0.6c0.8,0.5,1.4,1.3,2.4,1.6c0-4.9,0-9.6,0-14.3
	c0-0.3,0-0.5,0-0.8c0.1-2-1.8-3.7-3.7-3.7c-3.5,0-7,0-10.5,0c-0.8,0-1.5,0.3-2.1,0.8C158.1,21.7,157.4,22.4,157.3,23.6z M148.1,36.5
	c0.5-0.4,1.1-0.8,1.7-1.3c-0.7-0.8-1.4-1.5-2.1-2.2c0.2-0.2,0.2-0.4,0.3-0.5c0.8-0.8,0.9-0.8,1.7,0c0.5,0.5,1,0.9,1.5,1.4
	c0.9-1,2-1.8,2.9-3.1c-0.8-0.7-1.5-1.3-2.1-1.8c-0.1-0.4,0-0.5,0.1-0.6c0.7-0.8,0.7-0.8,1.5,0c0.5,0.5,1,1,1.4,1.4
	c0.2,0,0.2,0,0.3,0c0.5-0.5,1-1,1.5-1.4c0.7-0.6,0.8-0.6,1.4,0c0.2,0.2,0.4,0.3,0.4,0.9c-0.4,0.4-1,1-1.6,1.5
	c-0.3,0.3-0.5,0.7-0.1,1c0.8,0.8,1.5,1.7,2.6,2.4c0.6-0.6,1-1.2,1.6-1.7c0.5-0.5,0.7-0.5,1.3,0c0.2,0.2,0.4,0.3,0.4,0.7
	c-0.5,0.5-1.1,1.1-1.6,1.6c-0.4,0.5-0.5,0.7,0,1.2c0.5,0.5,1.1,1,1.7,1.6c-0.5,0.4-0.8,0.8-1.3,1.2c-0.5-0.5-1-1.1-1.5-1.6
	c-0.5-0.5-0.7-0.5-1.2-0.1c-0.8,0.7-1.5,1.5-2.3,2.3c0.7,0.7,1.2,1.4,1.9,1.9c0.9,0.6,1.9,1,3.1,0.4c0.9-0.4,1.3-1.1,1.8-1.9
	c1.4-2.5,1.7-5,0.9-7.8c-1.4-4.5-6.5-8.1-11.9-6.6c-2.7,0.7-4.7,2.4-6.1,4.9c-0.2,0.4-0.4,0.7-0.2,1.2
	C146.7,33.1,147.4,34.9,148.1,36.5z M130.9,44.7c0.6,0,1.1,0,1.7,0c8.1,0,16.1,0,24.2,0c0.7,0,1.4,0,2.1,0c0.3,0,0.7,0.1,0.7-0.4
	c0-0.3,0.1-0.7-0.4-0.9c-2.1-0.8-4.2-1.7-6.4-2.5c-3.1-1.2-6.2-2.3-9.3-3.6c-1.3-0.6-2.3-0.6-3.4,0.3c-0.1,0.1-0.2,0.1-0.2,0.2
	c-2.8,1.8-5.5,3.6-8.3,5.3C130.9,43.5,130.8,43.9,130.9,44.7z M168.9,44.7c0.7,0,1.4,0,2.1,0c1.7,0,3.4,0,5.1,0
	c0.7,0,0.9-0.2,0.9-0.9c0-0.6-0.1-1-0.6-1.4c-0.5-0.4-1.1-0.8-1.6-1.3c-1-0.8-2-1.5-3-2.3c-0.5-0.4-1-0.5-1.5-0.1
	c-0.8,0.5-1.5,0.9-2.3,1.3c-1.9,1-3.9,2.1-5.8,3.1c-0.1,0.1-0.3,0.1-0.4,0.2c-0.5,0.3-0.4,0.7-0.3,1.1c0.1,0.5,0.5,0.3,0.8,0.3
	C164.5,44.7,166.7,44.7,168.9,44.7z M158.8,54.6c-2.9,0-5.7,0-8.5,0c-0.6,0-1.1,0.5-1.3,1c-0.2,0.6,0.1,1,0.8,1.3
	c0.2,0.1,0.5,0.2,0.7,0.2c2.7,0,5.5,0,8.3,0C158.8,56.3,158.8,55.5,158.8,54.6z M157.2,48.9c0-0.9,0-1.7,0-2.5c-2.3,0-4.5,0-6.7,0
	c-0.6,0-1.3,0-1.9,0c-0.6,0-1.1,0.5-1.2,1.1c-0.1,0.6,0.1,0.8,0.8,1.2c0.3,0.2,0.6,0.3,0.9,0.3C151.7,48.9,154.4,48.9,157.2,48.9z
	 M133.8,37.4c1-1.7,2.3-2.7,3.3-3.9c0.8-1.1,1.5-2.3,1.4-3.7c0-0.5-0.3-0.7-0.7-0.5c-0.8,0.4-1.6,0.6-2.4,1.2
	c-0.8,0.6-1.3,1.5-2,2.1c-0.7,0.6-0.8,1.3-0.4,2.2C133.2,35.5,133.7,36.2,133.8,37.4z M145.4,53c2.7,0,5.2,0,7.6,0
	c0.5,0,0.9-0.2,1.3-0.4c0.5-0.3,0.6-1,0.2-1.5c-0.3-0.4-0.6-0.6-1.2-0.6c-1.3,0-2.5,0-3.8,0c-1.3,0-2.6,0-4,0
	C145.6,51.4,145.8,52.1,145.4,53z M147.4,54.6c-2.7,0-5.2,0-7.8,0c-0.8,0-1.1,0.3-1.3,1.1c-0.2,0.5,0.3,0.7,0.6,1
	c0.3,0.4,0.8,0.4,1.3,0.4c1.9,0,3.7,0,5.6,0c0.6,0,1.1,0.1,1.7-0.1C147.4,56.2,147.4,55.5,147.4,54.6z M168.3,46.3
	c-2.4,0-4.5,0-6.7,0c-0.5,0-1.1,0-1.6,0c-0.5,0-1,0.5-1.1,1c-0.1,0.6,0.1,0.9,0.7,1.3c0.4,0.2,0.8,0.3,1.2,0.3c1.3,0,2.5,0,3.8,0
	c1.2,0,2.3,0,3.6,0C167.7,48,167.7,47.2,168.3,46.3z M155.4,61.3c2.5,0,4.9,0,7.3,0c0.2,0,0.3,0,0.5,0c0.7-0.1,1.1-0.6,1.4-1.2
	c0.2-0.3-0.2-0.9-0.6-1.2c-0.3-0.2-0.7-0.1-1.1-0.1c-2.1,0-4.3,0-6.4,0c-0.4,0-0.7-0.1-1.1,0.2C156.1,59.7,155.3,60.4,155.4,61.3z
	 M135,58.8c0.4,2.2,1.5,2.3,3.3,2.5c1.5,0.1,3,0,4.4,0c0.6,0,1.1-0.2,1.6-0.6c0.7-0.6,0.6-1.1,0-1.7c-0.3-0.3-0.7-0.2-1-0.2
	c-1.9,0-3.7,0-5.6,0C136.8,58.8,135.9,58.8,135,58.8z M145.8,46.3c-2,0-3.9,0-5.8,0c-0.5,0-0.8,0.1-1.2,0.3c-0.6,0.4-0.7,1-0.2,1.6
	c0.4,0.5,0.9,0.7,1.5,0.7c1.1-0.1,2.1,0,3.2,0c0.8,0,1.7,0,2.5,0C145.8,48,145.8,47.2,145.8,46.3z M146.5,61.3c2,0,3.8,0,5.7,0
	c0.4,0,0.8-0.2,1.2-0.4c0.6-0.3,0.4-0.9,0.4-1.4c-0.1-0.5-0.4-0.7-0.9-0.7c-2.1,0-4.2,0-6.3,0C146.5,59.7,146.5,60.4,146.5,61.3z
	 M136.6,53c2.1,0,4,0,6,0c0.8,0,1.3-0.5,1.3-1.2c0-0.6-0.5-1.2-1.2-1.3c-2,0-4.1,0-6.2,0C136.6,51.4,136.6,52.1,136.6,53z M156.4,53
	c1.9,0,3.7,0,5.5,0c0.5,0,0.9-0.2,1.3-0.4c0.5-0.3,0.6-1,0.3-1.5c-0.3-0.4-0.8-0.7-1.4-0.6c-1.3,0-2.6,0-4,0c-0.6,0-1.2-0.1-1.8,0.1
	C156.4,51.4,156.4,52.1,156.4,53z M152.3,35.2c0.8,0.8,1.6,1.6,2.3,2.3c0.4,0.4,0.7,0.4,1.1,0c0.8-0.8,1.6-1.5,2.4-2.4
	c-0.8-0.8-1.5-1.5-2.2-2.2c-0.5-0.5-0.7-0.5-1.2-0.1C153.9,33.6,153.1,34.4,152.3,35.2z M165.1,53c2,0,3.8,0,5.5,0
	c0.8,0,1.3-0.5,1.3-1.2c0-0.7-0.5-1.3-1.3-1.3c-1.8,0-3.6,0-5.4,0C165.4,51.4,165.6,52.1,165.1,53z M167.1,54.6c-1.9,0-3.6,0-5.4,0
	c-0.6,0-1.2,0.5-1.3,1c-0.1,0.5,0.3,1.1,0.9,1.3c0.1,0.1,0.3,0.2,0.4,0.2c1.8,0,3.6,0.1,5.4-0.1C167.1,56.2,167.1,55.5,167.1,54.6z
	 M176.3,46.3c-1.8,0-3.5,0-5.3,0c-0.8,0-1.3,0.6-1.3,1.3c0,0.6,0.5,1.2,1.2,1.2c1.5,0,3,0,4.4,0c0.4,0,0.7-0.2,0.7-0.5
	C176.1,47.7,176.7,47.2,176.3,46.3z M166.2,61.3c1.2,0,2.3,0.1,3.3,0c1.7-0.2,2.9-0.2,3.3-2.5c-1.1,0-2.2,0-3.3,0
	c-1.1,0-2.2,0-3.3,0C166.2,59.7,166.2,60.4,166.2,61.3z M136.5,46.4c-1.8,0-3.4,0-5,0c-0.3,0.9,0.2,1.7,0.4,2.5
	c1.6-0.1,3.1,0.1,4.6-0.1C136.5,48,136.5,47.2,136.5,46.4z M174.2,54.6c-1.4,0-2.6,0-3.8,0c-0.2,0-0.3,0-0.5,0
	c-0.6,0.1-1.1,0.6-1.2,1.1c-0.1,0.6,0.1,0.8,0.8,1.2c0.5,0.3,0.9,0.2,1.4,0.2C173.8,57.1,173.1,57.7,174.2,54.6z M136.5,57.1
	c0-0.9,0-1.7,0-2.5c-1,0-1.9-0.1-2.8,0.1c0.3,0.9,0.5,1.6,0.8,2.4C135.1,57.1,135.8,57.1,136.5,57.1z M132.4,50.6
	c0.2,0.7,0.5,1.3,0.7,2c0.1,0.2,0.4,0.4,0.7,0.3c0.7-0.1,1.2-0.7,1.1-1.3c0-0.6-0.5-1.2-1.2-1.2C133.3,50.5,132.9,50.4,132.4,50.6z
	 M153.7,39.1c-0.6-0.6-1.3-1.3-2-1.9c-0.7-0.6-0.9-0.6-1.5,0.1c-0.4,0.5-0.4,0.9,0.2,1c1,0.2,1.8,0.7,2.8,1
	C153.4,39.3,153.6,39.4,153.7,39.1z M175.1,50.5c-0.5,0-1-0.1-1.5,0.1c0,0.6,0,1.3,0,1.9c0,0.2,0,0.4,0.3,0.5c0.2,0,0.4,0,0.6-0.1
	c0.2-0.1,0.3-0.3,0.4-0.5C175.1,51.8,175.2,51.2,175.1,50.5z"/>
<path class="st0" d="M210.9,50.6c-1.3-1-2.5-1.8-3.6-2.6c-0.5-0.4-1.1-0.7-1.3-1.3c-0.3-0.8-0.9-0.9-1.5-1c-0.7-0.2-1.2,0-1.8,0.5
	c-1.1,1-2.7,0.9-3.8-0.1c-1-0.9-1.2-2.5-0.5-3.6c0.4-0.6,0.5-1.1,0.4-1.7c-0.1-1.6,0.7-2.8,2-3c1.6-0.3,2.9,0.3,3.5,1.8
	c0.1,0.3,0.1,0.7,0.6,0.9c0.7,0.2,1.4,0.6,2.1,0.1c1.4-0.9,3-0.9,4.5-1.2c2-0.4,4-0.7,6.1-1c0.6-0.1,1-0.3,1.4-0.7
	c1.2-1.4,2.8-2,4.6-1.9c1.4,0,2.6-0.4,3.6-1.3c0.7-0.6,1.6-1,2.5-1.2c2.9-0.5,5.6-0.4,8,1.5c1.2,0.9,2.6,1.5,4.1,1.6
	c1.2,0.1,2.2,0.6,3.3,1.1c0.7,0.4,1.2,1,1.6,1.7c0.1,0.2,0.3,0.5,0.4,0.7c0.5,1.8,1.8,2.6,3.5,3.1c1.9,0.5,3.4,1.6,4.3,3.4
	c0.5,0.9,0.8,1.9,0.9,3c0.2,1.2,0.2,1.2,1.5,1.3c1.8,0.1,2.3,0.6,2.3,2.4c0,0.7,0.1,1.4-0.1,2.2c-0.4,1.9-1.4,3.1-3.3,3.6
	c-0.4,0.1-0.8-0.1-1.1,0.3c-0.1,0.3-0.1,0.6-0.1,1c0,1.1-0.6,1.9-1.4,2.5c-0.4,0.3-0.8,0.4-1.2,0.4c-0.4,0-0.8,0-1.2,0
	c-13.7,0-27.4,0-41.2,0c-0.3,0-0.7,0-1,0c-1.3,0-2.2-0.8-2.6-2c-0.2-0.4-0.2-0.9-0.3-1.3c0-0.5-0.2-0.7-0.8-0.8
	c-2.6-0.6-3.6-2-3.6-4.6c0-0.6,0-1.1,0-1.7c0.1-1.3,0.7-1.9,2-1.9c1.9,0,3.9,0,5.8,0C210,50.6,210.3,50.6,210.9,50.6z M228.5,50.7
	c0.7,0,1.2,0,1.7,0c2.7,0,5.3,0,8,0c0.4,0,0.8,0,1.2,0.1c0.4,0.1,0.8,0.5,0.7,1c-0.1,0.4-0.3,0.8-0.9,0.9c-0.4,0-0.9,0-1.3,0
	c-10.7,0-21.5,0-32.2,0c-0.4,0-0.9,0-1.3,0c-0.2,0-0.5,0.1-0.5,0.4c0,0.9-0.2,1.8,0.2,2.6c0.6,1.1,1.5,1.4,2.6,1.4
	c3.9,0,7.9,0,11.8,0c0.4,0,0.8,0,1.2,0c0.4,0.1,0.7,0.3,0.7,0.8c0.1,0.4-0.1,0.8-0.5,0.9c-0.3,0.1-0.5,0.2-0.8,0.2
	c-0.4,0-0.8,0-1.2,0c-2.9,0-5.8,0-8.7,0c-0.8,0-1,0.2-0.9,1c0.1,0.8,0.3,1,1.1,1.1c0.3,0,0.7,0,1,0c13.5,0,27,0,40.5,0
	c0.4,0,0.8,0,1.2,0c0.8-0.1,1-0.5,1-1.4c0-0.8-0.6-0.7-1.1-0.7c-0.3,0-0.7,0-1,0c-8.7,0-17.5,0-26.2,0c-0.4,0-0.9,0-1.3,0
	c-0.6-0.1-0.9-0.5-0.8-1c0-0.5,0.3-0.8,0.9-0.8c0.4,0,0.9,0,1.3,0c9.7,0,19.5,0,29.2,0c0.5,0,1,0,1.5,0c1.2-0.2,1.9-0.9,1.9-2.1
	c0-0.7,0.1-1.4-0.1-2.2c-0.6,0-1.2,0-1.7,0c-3.9,0-7.8,0-11.7,0c-0.3,0-0.7,0-1,0c-0.8-0.1-1.2-0.4-1.2-1c0-0.6,0.4-0.9,1.1-0.9
	c0.3,0,0.7,0,1,0c2.9,0,5.9,0,8.8,0c1.2,0,1.2-0.1,1.1-1.3c-0.3-2.2-1.5-3.6-3.6-4.4c-3.1-1.2-3.1-1.2-5-3.6c-1,1.5-2.5,1.8-4.2,1.9
	c-0.8,0-1.5,0-2.3,0.5c-1.7,1-3.4,0.8-5-0.2c-1-0.6-1.9-1.1-3-1.4c-0.8-0.2-1.6-0.3-2.5,0C229.6,44.9,229.7,47.7,228.5,50.7z
	 M220.3,50.7c1.7,0,3.4,0,5.2,0c0.7,0,0.9-0.3,1.2-0.8c0.4-0.9,0.5-1.9,0.8-2.9c0.1-0.5-0.1-0.7-0.6-0.7c-1.4,0.2-2.6-0.3-3.8-0.9
	c-2-1-4.2-1.4-6.5-1c-2.4,0.4-4.2-0.3-5.6-2.3c-0.1-0.2-0.2-0.4-0.4-0.5c-0.9-0.3-2.1,0.4-2.3,1.3c-0.1,0.5-0.1,1-0.4,1.4
	c-0.5,1-0.1,1.6,0.7,2.1c1.7,1.2,3.5,2.4,5.1,3.7c0.6,0.4,1.2,0.6,1.8,0.6C217.1,50.6,218.7,50.7,220.3,50.7z M221.8,38.2
	c1.8,0.2,3.3,0.7,4.6,1.8c0.5,0.4,1,0.4,1.5,0.2c1.2-0.4,2.4-0.3,3.6,0.1c1.2,0.4,2.3,0.9,3.3,1.6c0.8,0.5,1.8,0.8,2.7,0.4
	c1.3-0.7,2.7-0.9,4.1-1c1.2,0,2.2-0.6,2.4-2c-0.6-0.6-1.4-0.7-2.2-0.8c-2.2-0.2-4.1-1.2-5.9-2.4c-2.4-1.6-5.8-1.5-8,0.3
	c-1.1,0.9-2.4,1.4-3.8,1.4C223.4,37.6,222.6,37.7,221.8,38.2z M226.8,44.1c0-0.8-0.4-1.4-0.9-1.9c-1.8-2-4-2.4-6.5-2.1
	c-1.3,0.1-2.5,0.3-3.8,0.6c-0.9,0.3-2,0-2.9,0.7c0.9,1.1,2,1.3,3.2,1.1c0.5-0.1,1.1-0.2,1.6-0.2c2.4,0,4.7,0.5,6.9,1.6
	C225.3,44.4,226,44.5,226.8,44.1z M200.8,41.2c0.1,0.9,0,1.6-0.6,2.2c-0.5,0.5-0.4,0.9,0.1,1.2c0.5,0.4,1,0.4,1.2-0.3
	c0.5-1.3,1.4-1.2,2.4-0.8c0.4,0.2,0.9,0.2,1.3,0.3c0.5,0.1,0.7-0.1,0.8-0.5c0.1-0.4,0-0.6-0.4-0.7c-0.4-0.1-0.7-0.2-1.1-0.3
	c-1.1-0.2-2.2-0.4-2.1-2c0-0.5-0.4-0.7-1-0.7c-0.4,0.1-0.7,0.4-0.7,0.8C200.8,40.7,200.8,41,200.8,41.2z"/>
<path class="st0" d="M232.6,17.6c0.7,0,1.3,0.9,0.7,1.4c-1.3,1.1-0.6,2-0.1,3.1c1.1,2.1,0.1,3.7-0.9,4.5c-0.4,0.4-0.8,0.3-1.2,0.1
	c-0.5-0.3-0.5-0.9-0.3-1.1c1.1-1.3,0.7-2.5,0-3.8c-0.7-1.4-0.4-2.6,0.7-3.6C232,17.7,232.2,17.6,232.6,17.6z"/>
<path class="st0" d="M242.5,21.7c0,0.4-0.2,0.7-0.5,1c-0.6,0.7-0.6,1.3-0.1,2.1c1.3,2,0.8,3.3-0.1,4.6c-0.3,0.4-0.6,0.7-1.1,0.7
	c-0.4,0-0.8-0.1-1-0.4c-0.3-0.4-0.1-0.8,0.2-1c1-0.9,0.9-1.9,0.2-3c-0.2-0.3-0.3-0.6-0.4-0.9c-0.5-1.4,0.1-2.9,1.4-3.7
	c0.3-0.2,0.6-0.2,0.9-0.1C242.3,21,242.5,21.3,242.5,21.7z"/>
<path class="st0" d="M221.5,29.5c0-0.4,0.2-0.7,0.4-1c0.6-0.7,0.5-1.5,0.1-2.3c-0.2-0.3-0.4-0.7-0.5-1c-0.5-1.5,0-3.1,1.4-3.9
	c0.3-0.2,0.6-0.2,0.9,0c0.4,0.2,0.5,0.6,0.4,1c0,0.2-0.1,0.4-0.2,0.4c-1.2,0.9-0.7,1.9-0.1,2.9c0.8,1.4,0.6,2.8-0.3,4
	c-0.3,0.5-0.8,0.8-1.4,0.7C221.7,30.2,221.5,30,221.5,29.5z"/>
<path class="st0" d="M233.2,45.9c0,0.5-0.4,1-0.9,1c-0.5,0-1-0.5-1-1.1c0-0.5,0.4-0.9,1-0.9C232.8,45,233.1,45.4,233.2,45.9z"/>
<path class="st0" d="M239.5,46.9c0,0.5-0.6,1-1.2,0.9c-0.5,0-0.8-0.6-0.8-1.1c0.1-0.5,0.5-0.9,1-0.8C239.1,46,239.5,46.4,239.5,46.9
	z"/>
<path class="st0" d="M246.1,48c-0.1,0.5-0.7,1-1.2,0.9c-0.5-0.1-0.8-0.6-0.7-1.1c0.1-0.5,0.5-0.9,1-0.8
	C245.8,47,246.2,47.5,246.1,48z"/>
<path class="st0" d="M229.9,37c0.4,0,1,0.4,1.1,0.9c0.1,0.4-0.4,1-0.9,1.1c-0.5,0.1-1-0.3-1-0.8C229.1,37.5,229.4,37,229.9,37z"/>
<path class="st0" d="M235.1,39.4c0-0.6,0.4-0.9,1-0.8c0.6,0,0.8,0.4,0.8,1c0,0.6-0.4,0.8-0.9,0.8C235.4,40.3,235.1,40,235.1,39.4z"
	/>
<path class="st0" d="M297.6,66.1c-1.3-0.2-2.3,0.2-3.4,0.4c-2.9,0.5-5.9,1.2-8.8,1.8c-0.7,0.1-1.3,0.3-2,0.5
	c-0.6,0.2-1.2,0.2-1.7,0.1c-0.9-0.1-1.5-0.6-1.6-1.5c-0.1-0.7-0.2-1.5,0.1-2.2c0.3-0.6,0.1-0.9-0.2-1.4c-0.7-1.1-0.7-1.7,0.2-2.7
	c0.4-0.5,0.7-0.9,0.6-1.5c-0.3-1.3,0.3-2.2,1.4-2.7c0.7-0.3,1.2-0.8,1.3-1.6c0.3-1.3,1.2-1.9,2.4-2c0.9-0.1,1.6-0.4,2-1.2
	c0.4-0.8,1.2-1.1,2.2-1.1c0.2,0,0.3,0,0.5,0c1.3,0.2,2.5-0.1,3.6-0.8c0.9-0.6,1.8-0.6,2.7,0c0.9,0.6,1.7,0.6,2.7,0.3
	c1.2-0.3,2.3-0.2,3,1.2c0.3,0.5,0.7,0.7,1.3,0.7c0.4,0,0.8,0,1.1,0.1c0.4,0.2,0.6,0.2,0.9-0.2c0.8-0.9,1.8-1,2.9-0.7
	c0.7,0.3,1.4,0.1,2.1-0.3c0.4-0.2,0.7-0.4,1.1-0.6c0.8-0.4,1.6-0.4,2.4,0.1c0.7,0.5,1.5,0.7,2.4,0.4c1.3-0.4,2.4-0.2,3.1,1.1
	c0.3,0.5,0.6,0.7,1.2,0.7c0.3,0,0.6,0,1,0c1,0.2,1.6,0.7,1.7,1.8c0.1,0.6,0.3,1,0.8,1.2c0.3,0.1,0.7,0.3,1,0.5c0.6,0.5,1,1,0.6,1.8
	c-0.3,0.7,0,1.1,0.4,1.5c0.6,0.6,0.8,1.4,0.7,2.2c0,0.9-0.3,1.2-1.1,1.5c-0.9,0.4-1.9,0.4-2.8,0.5c-4.1,0.9-8.1,1.5-12.2,2.3
	c-3.4,0.7-6.9,1.4-10.3,2.1c-0.2,0-0.3,0-0.5,0.1c-1.8,0.2-2.2,0-2.7-1.8C297.7,66.6,297.7,66.4,297.6,66.1z M308.8,61.7
	c0-0.6-0.3-1.1-0.6-1.4c-0.7-0.7-1.1-1.5-0.9-2.6c0.1-0.4,0-0.8-0.6-0.9c-1-0.3-1.7-0.9-1.7-2c0-0.5-0.3-0.8-0.8-0.8
	c-0.3,0-0.5,0-0.8,0c-0.8,0-1.5-0.2-2-1.1c-0.4-0.8-1.1-1-2-0.7c-1,0.3-2,0.4-2.8-0.4c-0.6-0.6-1.4-0.5-2,0c-1,0.8-2.1,1-3.3,0.8
	c-0.4,0-0.7,0-1.1,0c-0.5,0-0.9,0.1-1.1,0.6c-0.6,1.2-1.6,1.6-2.8,1.7c-1,0.1-1.2,0.3-1.4,1.4c-0.1,0.7-0.4,1.2-1,1.5
	c-0.2,0.1-0.5,0.2-0.7,0.3c-0.8,0.5-0.9,0.7-0.7,1.7c0.2,0.6,0.1,1.1-0.4,1.6c-0.2,0.2-0.4,0.4-0.6,0.6c-0.3,0.4-0.4,0.8-0.1,1.2
	c0.6,0.8,0.8,1.7,0.3,2.7c-0.1,0.2-0.1,0.5-0.1,0.8c0,0.8,0.2,0.9,1,0.8c3.2-0.7,6.5-1.3,9.7-2c4.5-1,8.9-1.8,13.4-2.8
	C306.8,62.3,307.9,62.4,308.8,61.7z M308.5,55.7c0.2,0.7,0.8,1.2,0.6,1.7c-0.4,1,0.1,1.7,0.7,2.4c0.3,0.3,0.3,0.7,0.4,1
	c0.4,1.4-0.1,2.4-1.5,2.7c-1.6,0.4-3.2,0.6-4.8,1c-0.7,0.1-1.4,0.3-2.1,0.5c-0.2,0.1-0.4,0.3-0.6,0.5c-0.3,0.4-0.2-0.4-0.6-0.3
	c-0.7,0.1-1,0.5-1,1.3c0,0.4,0.2,0.6,0.6,0.5c0.2,0,0.4-0.1,0.6-0.1c2.5-0.5,4.9-1,7.4-1.5c2.4-0.5,4.9-0.9,7.3-1.4
	c2.5-0.5,4.9-1,7.4-1.5c0.8-0.2,1.6-0.3,2.5-0.6c0.5-0.1,0.6-0.4,0.2-0.8c-0.9-0.8-1.3-1.8-1-3c0.1-0.4-0.1-0.6-0.5-0.8
	c-0.8-0.3-1.5-0.8-1.7-1.7c-0.2-1-0.3-1.1-1.3-1.1c-0.8,0-1.7-0.3-2-1c-0.5-1-1.1-1-2.1-0.7c-0.8,0.2-1.8,0.4-2.6-0.3
	c-0.8-0.7-1.5-0.6-2.3,0c-1,0.8-2.1,0.9-3.3,0.6c-1-0.2-1.5,0-2,0.8c-0.2,0.4-0.2,0.7,0.1,1c0.3,0.3,0.5,0,0.7-0.1
	c2.6-1.1,5.2-1.6,8-1c2.6,0.6,5,1.6,6.8,3.8c0.7,0.9,1.4,1.9,1.5,3.4C319.4,54.6,313.9,53.8,308.5,55.7z"/>
<path class="st0" d="M296.4,23.9c-0.3-0.1-0.5,0-0.7,0.3c-2.4,3-4.2,6.3-5.6,9.9c-0.4,1.1,0.1,1.9,1.2,2c0.2,0,0.4,0,0.6,0
	c1.3,0,2.3,1,2.1,2.6c-0.1,1-1,1.7-2.3,1.8c-0.4,0-0.8,0-1.3,0c-0.2,0-0.3,0.2-0.3,0.5c0,0.2,0.1,0.4,0.3,0.5c0.5,0,1.1,0.1,1.6,0.1
	c0.7,0,1.5,0,2.2,0c1.4,0.1,2.3,1.1,2.2,2.4c-0.1,1-0.9,1.9-1.9,2c-0.8,0-1.6,0.1-2.4-0.1c-1.1-0.2-2.2-0.1-3.3-0.2
	c-0.7,0-1.2,0.4-1.3,1.1c-0.1,0.3-0.1,0.6-0.2,0.9c-0.6,2-1.9,2.8-4.1,2.5c-0.6-0.1-1.3,0-1.9-0.1c-1.9-0.1-3.1-1.3-3.1-3.1
	c-0.1-5.7,1-11.1,3-16.4c1.4-3.7,3.3-7.2,5.6-10.4c1.9-2.7,4.1-5,6.4-7.3c1.1-1.1,3.3-1.1,4.2-0.2c0.8,0.8,1.7,1.6,2.4,2.5
	c1.1,1.4,1,3.1-0.3,4.4c-0.8,0.8-1.6,1.6-2.3,2.4c-0.3,0.3-0.6,0.5-0.5,0.9l0,0c-0.3,0-0.4,0.1-0.4,0.4l0,0
	C296.3,23.4,296.3,23.6,296.4,23.9L296.4,23.9z M280.1,45.1c0,0.7,0,1.4,0,2.1c0.1,0.9,0.5,1.3,1.4,1.4c0.7,0,1.5,0,2.2,0
	c1.7,0,2.2-0.4,2.4-2c0.2-1.4,1.2-2.5,2.6-2.5c1.3,0,2.6-0.1,4,0.2c0.6,0.1,1.2,0.1,1.7,0c0.3,0,0.6-0.2,0.6-0.6
	c0-0.3-0.3-0.5-0.5-0.5c-0.3-0.1-0.6,0-0.9,0c-1,0-1.9,0-2.9-0.1c-1.3-0.1-2.4-1.3-2.2-2.4c0.3-1.4,1.4-2.1,2.8-1.9
	c0.2,0,0.4,0.1,0.6,0.1c0.3-0.1,0.6-0.2,0.6-0.6c0-0.3-0.2-0.5-0.5-0.5c-0.3-0.1-0.6,0-0.9-0.1c-0.7,0-1.3-0.4-1.8-0.9
	c-1-1-1-2.2-0.5-3.5c1.8-4.6,4.4-8.8,7.7-12.4c0.6-0.7,1.3-1.4,2-2c1-1.1,1-1.9,0-3c-0.4-0.4-0.8-0.8-1.2-1.2c-0.9-1-2.2-1.1-3.2,0
	c-2.3,2.4-4.5,4.9-6.4,7.7c-2.7,4-4.7,8.4-6,13C280.8,38.4,280.2,41.7,280.1,45.1z"/>
<path class="st0" d="M313.3,33.6c-0.2,0.3,0,0.6,0.1,0.9c0.7,1.8-0.2,3.8-2.3,4.2c-1.4,0.3-3.2-0.7-3.5-2.2
	c-0.4-1.9,0.5-3.4,2.4-3.9c0.5-0.1,1-0.1,1.5,0.1c0.4,0.2,0.8,0.6,1.3,0.4c0.1-0.4-0.2-0.6-0.4-0.8c-3.3-3.4-6.5-6.8-9.8-10.2
	c-0.3-0.3-0.6-0.5-0.7-0.8c-0.2-0.4-0.3-0.9,0.1-1.2c0.3-0.2,0.8-0.2,1.2,0.1c0.6,0.6,1.2,1.1,1.7,1.7c1.9,2.3,4.2,4.3,6.3,6.6
	c2.4,2.7,5,5.2,7.5,7.8c2.1,2.3,4.3,4.4,6.4,6.7c0.8,0.9,1.6,1.8,2.5,2.7c0.6,0.6,0.7,1.3,0.4,2c-0.4,0.8-0.9,1.3-1.8,1.3
	c-2.5-0.1-5,0-7.5-0.1c-5.5-0.2-11-0.1-16.5-0.4c-3.7-0.2-7.4-0.1-11.1-0.2c-0.3,0-0.6,0-0.9-0.1c-0.3-0.1-0.5-0.4-0.5-0.7
	c0-0.4,0.3-0.6,0.6-0.7c0.2-0.1,0.5,0,0.8,0c3.1,0,6.3-0.1,9.4,0.1c4.8,0.3,9.5,0,14.3,0.3c3.4,0.2,6.9,0.2,10.3,0.2
	c0.4,0,1,0.3,1.3-0.3c0.2-0.5-0.3-0.9-0.6-1.2c-3.1-3.2-6.2-6.4-9.3-9.6c-0.8-0.8-1.6-1.7-2.4-2.6C313.7,33.8,313.6,33.6,313.3,33.6
	z M312,35.7c0-0.8-0.7-1.5-1.5-1.5c-0.8,0-1.4,0.7-1.5,1.5c0,0.9,0.5,1.5,1.4,1.6C311.3,37.4,312,36.6,312,35.7z"/>
<path class="st0" d="M299.1,38.3c-2.6,0-4.7-2.6-3.9-5.1c0.4-1.4,1.3-2.5,3.1-1.7c0.4,0.2,0.5,0,0.8-0.1c1.1-0.7,1.7-0.6,2.5,0.3
	c0.2,0.2,0.4,0.5,0.6,0.7c0.7,1,0.7,1.1,0.1,2.1c-0.2,0.3-0.5,0.5-0.3,0.9c0.5,1.6-0.2,2.6-1.9,2.9
	C299.7,38.4,299.4,38.3,299.1,38.3z M300.9,33.4c-0.3-0.5-0.7-0.8-1.3-0.3c-0.7,0.6-1.3,0.6-1.9,0c-0.4-0.4-0.7,0-0.8,0.3
	c-0.3,1-0.2,1.9,0.7,2.7c0.8,0.8,1.7,0.8,2.6,0.5c0.3-0.1,0.5-0.3,0.2-0.7c-0.6-1.1-0.6-1.2,0.2-2.2
	C300.6,33.6,300.7,33.5,300.9,33.4z"/>
<path class="st0" d="M312.4,43c0-1.7,1-2.7,2.4-3.4c1.1-0.6,2.4-0.3,3.4,0.5c0.5,0.5,0.8,1.1,0.5,1.7c-0.2,0.6-0.2,1,0.2,1.4
	c0.1,0.1,0.2,0.4,0.1,0.6c-0.1,1-0.9,1.4-1.5,1.9c-0.4,0.4-1,0.4-1.5,0c-0.4-0.3-0.8-0.5-1.4-0.2c-0.4,0.2-0.9,0-1.3-0.3
	C312.7,44.6,312.3,43.9,312.4,43z M313.9,43c0,0.6,0.3,0.9,0.7,0.6c0.8-0.5,1.3-0.1,1.9,0.3c0.1,0.1,0.3,0.1,0.4,0
	c0.2-0.1,0.2-0.3,0.1-0.5c-0.3-0.5-0.7-0.9-0.4-1.6c0.4-0.8,0.2-1-0.6-1C315,40.9,313.9,42,313.9,43z"/>
<path class="st0" d="M297,23c0.5,0.2,0.8-0.2,1.2-0.4c1.5-0.6,3.3-0.1,4.1,1.4c0.7,1.3,0.5,2.9-0.9,4.1c-1.1,0.9-3.1,0.9-4.2-0.3
	c-0.8-0.9-1.4-1.8-0.9-3.1c0.1-0.2,0-0.5,0.1-0.8l0,0c0.4-0.1,0.4-0.4,0.3-0.7l0,0C297,23.4,297.1,23.3,297,23L297,23z M299.3,27.2
	c0.8,0,1.7-0.7,1.8-1.5c0.1-0.8-0.8-1.7-1.7-1.7c-0.8-0.1-1.6,0.8-1.7,1.6C297.6,26.3,298.5,27.1,299.3,27.2z"/>
<path class="st0" d="M300.3,43.2c0-1.7,1.3-3,3-3c1.7,0,3.1,1.4,2.9,3.1c-0.1,1.6-1.2,2.8-3,2.9C301.6,46.3,300.2,44.9,300.3,43.2z
	 M303.3,41.8c-0.8,0-1.4,0.6-1.4,1.3c0,0.8,0.7,1.6,1.5,1.5c0.7,0,1.4-0.8,1.4-1.4C304.6,42.4,304,41.8,303.3,41.8z"/>
<path class="st0" d="M306.3,60.6c-0.4-0.5-0.9-1-1.3-1.5c-2.5-3.2-5.7-4.8-9.8-4.5c-4.1,0.3-7.5,2-9.7,5.7c-0.8,1.4-1.3,2.9-1.6,4.4
	c0,0.2-0.1,0.4-0.2,0.6c0,0-0.1,0-0.3,0.1c-0.2-0.9-0.2-1.7,0-2.6c0.4-2.8,2-4.8,4.2-6.5c1-0.8,2.1-1.6,3.4-2
	c4.5-1.4,8.8-1.1,12.6,1.9C305,57.3,306.3,58.7,306.3,60.6L306.3,60.6z"/>
<path class="st0" d="M306.3,60.7c0.1,0,0.1,0.1,0.2,0.1c0,0-0.1,0-0.1,0C306.3,60.7,306.3,60.7,306.3,60.7L306.3,60.7z"/>
<path class="st0" d="M370.9,32.8c0-0.2,0.1-0.3,0.1-0.4c-0.1-1.7,0.4-3.4,0.3-5.2c-0.1-1.7,0-3.5,0-5.2c0-0.5,0-1.1,0-1.5
	c0.2-0.3,0.5-0.3,0.8-0.2c0.3,0,0.5-0.1,0.8,0.2c-0.4,0.6-0.3,1.3-0.3,1.9c0,2.7,0,5.4,0,8.1c0,0.5,0,0.9-0.2,1.4
	c-0.2,0.4-0.1,0.8,0.6,1c-0.2-2.7,0.4-5.4,0.3-8.1c0-1,0-1.9,0-2.9c0-0.4-0.1-0.8,0.5-0.8c0.7,0,1.1,0.2,1,0.7
	c-0.1,1,0.2,2.1-0.2,3.1c-0.1,0.2-0.1,0.5-0.1,0.8c0,2.3,0,4.7,0,7c0.2,0.2,0.5,0.2,0.8,0.2c1,0.1,1.2,0.3,1.1,1.3
	c-0.5,3.2,0,6.4-0.3,9.6c-0.4,3.8-0.1,7.7-0.4,11.5c-0.2,2-0.1,4-0.3,6.1c-1.4,0.2-2.8,0.1-4.2,0.1c-1.5,0-3-0.1-4.5,0
	c-1.4,0.1-2.8-0.5-4.4-0.2c0.4-0.9,0.4-1.6,0.4-2.3c0-2.7-0.2-5.4,0.1-8.1c0.3-3.6,0-7.2,0.3-10.7c0.2-2.5,0.1-4.9,0.3-7.5
	c0.6,0,1.1-0.1,1.8-0.1c0-1,0-2,0.1-3c0-2.1,0.5-4.3,0.3-6.3c0.4-0.3,0.7-0.2,1-0.2c0.6-0.1,0.7,0.3,0.5,0.7
	c-0.6,1.9-0.1,3.8-0.3,5.7c0.5,0.6,0.3,1.4,0.5,2.1c0.2-4,0.1-8,0.2-12.1c0.5-0.3,1-0.1,1.6-0.2c-0.1,1.4,0.2,2.6-0.3,3.8
	c-0.1,0.2,0,0.4,0,0.6c0,2.7,0,5.4,0,8.1c0,0.3-0.1,0.5,0.3,0.8c0.1-1.2,0.3-2.3,0.4-3.4c0.1-3.3,0.1-6.6,0.1-9.9c0-0.3,0-0.6,0-0.9
	c0.5-0.2,1-0.1,1.5,0c-0.1,1.2,0.3,2.4-0.2,3.6c-0.1,0.2,0,0.4,0,0.6c0,3.2,0,6.5,0,9.7C370.7,32.5,370.6,32.7,370.9,32.8z
	 M365,37.1c-0.1,0.7-0.3,1.4-0.4,2.1c-0.1,3.6,0,7.3-0.3,10.9c-0.3,2.9-0.1,5.8-0.1,8.7c0,0.3-0.1,0.7,0.2,1.1c3.1,0,6.2,0,9.4,0
	c0.1-1.4,0.2-2.7,0.3-3.9c0.3-3.6,0-7.3,0.3-10.9c0.2-1.9,0.1-3.9,0.1-5.9c0-0.7,0-1.4,0-2.1C371.3,37.1,368.2,37.1,365,37.1z
	 M365,35.4c3.3-0.1,6.5,0.6,9.7,0.2c0.1-1.4,0.1-1.4-1.1-1.5c-2.2,0-4.3,0-6.5,0c-0.7,0-1.3,0.1-2-0.3C364.8,34.4,365,34.8,365,35.4
	z"/>
<path class="st0" d="M349.7,32.9c2.5,0,4.8,0,7.2,0c0.2,0,0.4,0,0.8,0c0,0.9,0,1.7,0,2.5c0,0.5-0.2,0.9-0.7,0.9
	c-0.6,0-0.6,0.4-0.5,0.7c0.4,1.1,0.8,2.2,2,2.9c1.2,0.7,1.8,2,1.8,3.5c0,5.6,0,11.1,0,16.7c0,0.2,0,0.3,0,0.5
	c-0.1,1.1-0.6,1.6-1.7,1.6c-2.7,0-5.4,0-8.1,0c-0.6,0-1.2,0-1.8,0c-1,0-1.4-0.5-1.5-1.4c0-0.8,0-1.6,0-2.4c0-4.9,0-9.9,0-14.8
	c0-1.7,0.6-2.8,2-3.7c1.1-0.7,1.5-1.7,1.6-2.9c0-0.2,0-0.5-0.2-0.6c-1.2,0-0.7-0.9-0.8-1.5C349.6,34.3,349.7,33.7,349.7,32.9z
	 M358.8,57c0-3.8,0-7.4,0-11c-3.5,0-6.9,0-10.3,0c-0.2,2.6-0.2,9.9,0.1,11C352,57,355.4,57,358.8,57z M348.5,43.7c3.2,0,6.3,0,9.5,0
	c0.2,0,0.4,0,0.6-0.1c0.2-0.1,0.5-0.4,0.3-0.6c-0.3-0.5-0.4-1.3-1-1.6c-1.6-1-2.6-2.4-2.9-4.3c-0.7,0-1.2,0-1.8,0
	c-0.9,0-1.1,0.1-1.2,0.8c-0.3,1.5-1.1,2.5-2.4,3.3C348.7,41.7,348.3,42.5,348.5,43.7z M358.8,59.4c-3.5,0-7,0-10.4,0
	c0,1.4,0,1.5,1.2,1.5c2.7,0,5.3,0,8,0C358.8,60.9,358.8,60.8,358.8,59.4z M353.6,34.8c0.7,0,1.4,0,2.1,0c0.2,0,0.3-0.1,0.3-0.3
	c0-0.2-0.1-0.3-0.2-0.3c-1.4,0-2.8,0-4.3,0c-0.2,0-0.3,0.2-0.2,0.3c0,0.2,0.1,0.3,0.3,0.3C352.3,34.8,353,34.8,353.6,34.8z"/>
<path class="st0" d="M378.7,52.7c0-1.7,0-3.4,0-5.1c0-0.5-0.1-1,0.2-1.5c0.1-0.2,0.2-0.6,0-0.8c-0.5-0.8-0.3-1.8-0.3-2.6
	c0-2.5,0-5,0-7.5c0-0.5,0-0.9,0.3-1.4c0.4-0.6,0.8-1,1.6-1c0.6,0,1.2,0,1.8,0c0.7,0,0.9-0.5,0.7-1.1c0-0.1-0.2-0.2-0.2-0.3
	c-0.1-0.8-0.4-1.7,0.1-2.4c0.4-0.7,1.3-0.3,1.9-0.3c0.6-0.1,1.3,0,1.9,0c0.8,0,1.3,0.5,1.3,1.2c0,0.6,0,1.1-0.4,1.6
	c-0.5,0.6-0.1,1.2,0.7,1.3c0.5,0,1.1,0,1.6,0c1.2,0,2,0.7,2,1.9c0,3.1,0,6.3,0,9.4c0,0.4,0,0.8-0.3,1.2c-0.1,0.1-0.1,0.5,0,0.6
	c0.5,0.7,0.3,1.4,0.3,2.2c0,3.3,0,6.6,0,9.9c0,1.8-1.1,3.1-3,3.5c-2.5,0.5-5,0.5-7.5,0c-1.8-0.3-2.9-1.7-2.9-3.5
	C378.7,56.2,378.7,54.5,378.7,52.7z M379.9,44.6c0.2,0.1,0.3,0.2,0.5,0.3c0.2,0.1,0.4,0.2,0.5,0.3c0.5,0.4,0.4,0.7-0.2,1
	c-1,0.5-1.1,0.6-0.4,1.6c0.3,0.4,0.4,0.7-0.2,1c-0.5,0.2-0.5,0.7-0.1,0.9c0.9,0.5,0.5,0.8,0.1,1.3c-0.4,0.4-0.2,0.5,0.2,0.8
	c0.7,0.4,0.7,0.7,0,1.1c-0.3,0.2-0.5,0.3-0.5,0.7c0,1.6,0,3.2,0,4.8c0,0.8,0.4,1.5,1.3,1.8c0.6,0.2,1.1,0.5,1.8,0.5
	c1.6,0,3.2,0,4.8,0c1.9,0,2.7-0.8,3.2-2.5c0.1-0.3,0.1-0.6,0.1-0.9c0-1.1,0-2.2,0-3.3c0-0.4,0-0.8-0.6-0.9c-0.4-0.1-0.5-0.5-0.2-0.9
	c0.2-0.2,0.4-0.3,0.7-0.4c0.2-0.1,0.2-0.4,0-0.5c-0.1-0.1-0.2,0-0.3-0.1c-0.3-0.2-0.5-0.4-0.5-0.7c0-0.4,0.4-0.4,0.7-0.5
	c0.4-0.2,0.4-0.7,0-0.9c-0.8-0.4-0.8-0.4-0.3-1.1c0.6-0.8,0.6-1-0.2-1.5c-0.3-0.2-0.7-0.3-0.7-0.7c0.1-0.4,0.4-0.6,0.8-0.6
	c0.1,0,0.2-0.1,0.3-0.1c0.1-0.1,0.1-0.2,0.1-0.3c0-0.1-0.1-0.2-0.2-0.2c-0.2,0-0.4,0-0.6,0c-3.1,0-6.3,0-9.4,0
	C380.4,44.3,380.1,44.3,379.9,44.6z M391,43c0-2.4,0-4.6,0-6.9c-3.7,0-7.4,0-11,0c0,2.3,0,4.6,0,6.9C383.7,43,387.3,43,391,43z
	 M384.5,31.9c-0.3,1.6-0.7,2.1-2.2,2.2c-0.5,0-1.1,0-1.6,0c-0.2,0-0.4,0.1-0.6,0.1c-0.1,0-0.1,0.2-0.1,0.3c0,0.1,0.1,0.2,0.1,0.2
	c0.3,0,0.5,0,0.8,0c3,0,5.9,0,8.9,0c0.2,0,0.4,0,0.6,0c0.2,0,0.3-0.1,0.3-0.3c0-0.2-0.1-0.3-0.2-0.3c-0.6,0-1.3,0-1.9-0.1
	c-0.9-0.1-1.9-0.1-2.1-1.2c-0.2-0.9-0.6-1.1-1.4-1C385,32,384.8,31.9,384.5,31.9z M385.3,30.7c0.5,0,0.9,0,1.4,0
	c0.2,0,0.3-0.1,0.3-0.3c0-0.2-0.1-0.3-0.2-0.3c-0.4,0-0.9-0.1-1.3,0c-0.5,0.1-1.3-0.3-1.3,0.4C384.2,31,384.9,30.6,385.3,30.7z"/>
<path class="st0" d="M400.7,46.3c0.4,0,0.6,0,0.8,0c0.4,0,0.9-0.2,1.2,0.3c0.3,0.6,0.9,0.8,0.9,1.6c0,1.8,0.3,3.6,0.5,5.4
	c0.1,1.4,0.3,2.8,0.4,4.2c0,0.7,0,1.3,0.2,2c0.4,1-0.4,1.9-1.6,2c-2.7,0-5.3,0-8,0c-1.1,0-1.6-0.5-1.5-1.5c0.1-1.7,0.2-3.3,0.6-5
	c0-0.1,0-0.2,0-0.3c-0.1-2.1,0.5-4.2,0.4-6.3c0-0.4-0.2-1,0.3-1.3c0.7-0.4,1-1.5,2.1-1.1c0.2,0.1,0.4,0.1,0.7-0.2
	c-0.1-1,0.4-2,0.4-3.2c0.7-0.2,1.3-0.1,2.1-0.1C400.2,44,400.7,45,400.7,46.3z M396,50.7c-0.3,3.3-0.6,6.5-1,9.9c2.7,0,5.4,0,8.2,0
	c0-1.4-0.2-2.6-0.3-3.9c-0.1-1.7-0.5-3.3-0.4-5c0-0.8-0.2-1-1-1C399.7,50.7,397.9,50.7,396,50.7z"/>
<path class="st0" d="M366.2,45.6c-0.4-2,1.6-3.4,3.2-3.4c0.8,0,1.9,0.2,2.5,1c0.5,0.7,1,1.4,1,2.4c-0.1,2-1.7,3.4-3.5,3.4
	C367.5,49.1,366.2,47.7,366.2,45.6z M371.4,45.7c0-1.1-0.9-2-2-2c-1.1,0.1-1.8,0.9-1.9,1.9c0,1,0.8,1.9,1.8,1.9
	C370.5,47.6,371.3,46.8,371.4,45.7z"/>
<path class="st0" d="M365.8,59c-0.3-0.6-0.1-1-0.1-1.5c1.4-0.4,2.7,0.2,3.9,0.2c0.3,0.2,0.2,0.5,0.2,0.7c0,0.4-0.1,0.6-0.5,0.6
	C368,59,366.9,59,365.8,59z"/>
<path class="st0" d="M370.5,57.7c0.7,0,1.3,0,1.9,0c0.3,0.4,0.1,0.9,0.2,1.4c-0.6,0.2-1.2,0.2-1.7,0C370.2,59,370.4,58.4,370.5,57.7
	z"/>
<path class="st0" d="M353.5,56.1c-0.3,0-0.5,0-0.8,0c-1.3,0.2-2-0.5-2.6-1.4c-1-1.4-0.9-3.6,0.1-5c0.5-0.7,1.3-1,2.1-1.3
	c0.3-0.1,0.6-0.1,0.6-0.5c0-0.5,0.5-0.8,0.7-1.2c0.1-0.4,0.5-0.7,1-0.5c0.6,0.3,1,1,0.8,1.4c-0.5,0.7-0.2,0.9,0.4,1.1
	c1.9,0.7,2.9,3.9,1.4,6c-0.6,0.8-1.4,1.4-2.5,1.3C354.3,56.1,353.9,56.1,353.5,56.1z M355.7,52.5c0-0.4,0-0.8-0.2-1.2
	c-0.4-0.7-0.4-0.8-1.4-0.6c-0.4,0.1-0.9,0.2-1.2-0.1c-0.5-0.4-0.8,0-1,0.3c-0.7,0.9-0.6,1.9-0.1,2.8c0.2,0.4,0.5,0.6,0.8,0.5
	c0.7-0.2,1.3-0.4,1.9,0c0.2,0.1,0.4,0,0.6-0.2C355.6,53.6,355.8,53.1,355.7,52.5z"/>
<path class="st0" d="M388.2,38.6c-0.5,0.6-0.3,1.2,0,1.9c0.2,0.4-0.2,0.9-0.5,0.8c-0.9-0.1-1.3,0.5-1.8,1c-0.3,0.3-0.6,0.3-0.9,0
	c-0.5-0.5-0.8-1.1-1.7-1c-0.4,0-0.7-0.7-0.5-1.2c0.2-0.5,0.2-0.9,0-1.4c-0.2-0.5,0.1-1.1,0.6-1.2c0.7-0.2,1.2-0.5,1.7-1
	c0.2-0.2,0.5-0.4,0.7-0.1c0.5,0.6,1.3,0.9,2,1.1C388,37.8,388.2,38.1,388.2,38.6z"/>
<path class="st0" d="M448.9,47.8c0.7,0.3,1.5,0.7,2.4,0.9c1,0.2,2.1,0.1,3.1-0.3c2.2-0.9,4.5-1,6.7-0.2c2.1,0.8,3.1,2.5,3.3,4.7
	c0.1,2,0.1,4,0,6.1c-0.2,3-2.7,5.3-5.4,5.1c-0.7-0.1-1.5,0-2.2,0c-0.6,0-1.3-0.1-1.8-0.4c-1.6-0.8-3.1-0.9-4.7,0
	c-0.6,0.3-1.3,0.4-2,0.4c-0.7,0-1.4,0-2.1,0c-1.3,0.1-2.4-0.2-3.4-1.1c-0.6-0.5-1.2-0.6-1.9-0.6c-6.3,0-12.5,0-18.8,0
	c-2.2,0-2.3-0.1-2.5-2.3c-0.2-2-0.5-4-0.7-6c-0.3-2.1-0.5-4.2-0.8-6.3c-0.3-2.1-0.6-4.3-0.9-6.4c-0.3-2-0.5-4.1-0.7-6.1
	c-0.1-1.2-0.1-1.2-1.2-1.2c-1.9,0-1.7-0.3-1.7-1.8c0-0.9,0-1.7,0-2.6c0-0.9,0.2-1.1,1.2-1.1c1.1,0,2.1,0,3.3,0c0-1.4,0-2.7,0-4
	c0-1.2-0.2-2.4,0.1-3.5c0.3-1.1,1.2-2,2.1-2.8c1.2-1.2,1.6-2.6,1.4-4.3c-0.1-1.1-0.1-2.1,0-3.2c0-1.1,0.3-1.3,1.3-1.3
	c1.6,0,3.2,0,4.8,0c1,0,1.3,0.3,1.4,1.3c0,1.5,0,3,0,4.5c0,0.8,0.1,1.5,0.7,2.2c0.8,0.8,1.4,1.8,2.2,2.7c0.5,0.6,0.7,1.2,0.6,1.9
	c0,1.9,0,3.8,0,5.7c0,0.7,0.7,1.2,1.4,0.8c0.2-0.1,0.3-0.3,0.3-0.5c0-0.9,0.1-1.8,0-2.7c-0.1-1.2,0.3-2.1,1.2-2.8
	c0.2-0.1,0.3-0.3,0.5-0.4c1.3-1.3,1.3-1.3,1.1-3.2c-0.4-0.3-0.8-0.2-1.2-0.2c-1.3-0.1-1.6-0.5-1.5-1.7c0.3-2.8,1.7-5,4.1-6.4
	c1.3-0.8,2.7-1.1,4.2-1.1c2.8,0,5.6,0,8.4,0c1.3,0,1.5,0.2,1.5,1.4c0,1,0,2,0,3c0,0.7-0.3,0.9-1,1c-0.7,0-1.4,0-2.1,0
	c-0.9-0.1-1.7,0.3-2.2,1.1c0.7,1.4,1.4,2.7,2,4.1c0.4,0.8-0.3,1.6-1.1,1.5c-0.3,0-0.4-0.3-0.6-0.5c-0.5-0.9-0.9-1.9-1.4-2.8
	c-0.2-0.3-0.2-0.9-0.8-0.8c-0.5,0.1-1,0.7-1.1,1.2c0,1.3-0.1,2.5,1.1,3.4c0.9,0.6,1.6,1.6,2.4,2.3c0.7,0.6,1,1.3,1,2.2
	c0,0.6-0.3,1.4,0.2,1.8c0.5,0.4,1.2,0.1,1.8,0.2c0.4,0,0.9,0,1.3,0c1,0,1.3,0.3,1.4,1.3c0,1,0,1.9,0,2.9c-0.1,1-0.3,1.2-1.4,1.3
	c-0.2,0-0.3,0-0.5,0c-0.9,0-1.1,0.2-1.2,1.1c-0.1,0.9-0.2,1.8-0.3,2.7c-0.4,2.9-0.7,5.9-1.1,8.8C448.9,47.1,448.7,47.4,448.9,47.8z
	 M418.1,34.2c0,0.7,0,1.2,0.1,1.7c0.3,2.1,0.6,4.3,0.9,6.4c0.3,2,0.5,4,0.7,6c0.3,2.1,0.6,4.3,0.9,6.4c0.2,1.7,0.4,3.5,0.7,5.2
	c0.1,0.4,0.3,0.6,0.8,0.6c0.3,0,0.5,0,0.8,0c5.5,0,11,0,16.6,0c0.4,0,0.8,0.1,1.3-0.2c0.1-0.7-0.3-1.3-0.2-2c0.1-1.6,0-3.2,0-4.8
	c0-3.4,2.1-5.6,5.5-5.8c0.7,0,0.8-0.3,0.9-0.9c0.3-1.7,0.5-3.5,0.7-5.2c0.2-2.1,0.6-4.2,0.8-6.3c0-0.4,0.2-0.8-0.2-1.3
	c-2.9,0-5.8,0-8.7,0c-0.1,0-0.2,0-0.3,0c-0.2,0-0.3,0.1-0.3,0.3c-0.3,1,0,1.8,1,2.3c1.4,0.7,2.8,1.3,4.1,2.1c1.2,0.7,1.7,2,1.3,3.3
	c-0.4,1.5-1.3,2.2-2.9,2.2c-0.6,0-1.1-0.1-1.7-0.4c-0.6-0.3-1.1-0.6-1.7-0.9c-0.2,0.5-0.1,1-0.1,1.5c0,2,0,3.9,0,5.9
	c0,2.3-1.9,3.8-3.7,3.8c-3.1,0-6.2,0-9.2,0c-0.7,0-1.2-0.2-1.8-0.6c-1.3-0.9-1.8-2.1-1.8-3.7c0-4.7,0-9.5,0-14.2c0-0.4,0-0.7,0-1.1
	c0-0.4-0.2-0.6-0.6-0.6C420.5,34.2,419.4,34.2,418.1,34.2z M436.9,30.6c-0.5,0-0.8,0-1.1,0c-3.4,0-6.8,0-10.2,0c-0.3,0-0.5,0-0.8,0
	c-0.4,0-0.6,0.2-0.6,0.6c0,0.4,0,0.7,0,1.1c0,4.6,0,9.2,0,13.9c0,1.4,0,2.8,0,4.1c0,1.1,0.5,1.8,1.7,2c0.3-0.5,0.2-1.1,0.2-1.6
	c0-2,0-3.9,0-5.9c0-0.5,0.2-0.8,0.7-0.8c0.9,0,1.1,0.1,1.1,1.1c0,2,0,3.9,0,5.9c0,0.4-0.1,0.8,0.2,1.2c1.5,0.1,1.5,0.1,1.5-1.3
	c0-2,0-4,0-6.1c0-0.6,0.3-0.8,0.9-0.8c1,0,1,0,1.1,1.1c0,0.6,0,1.2,0,1.8c0,1.6,0,3.2,0,4.8c0,0.3,0,0.5,0.3,0.7
	c0.8,0.3,1.3-0.1,1.4-0.9c0-0.4,0-0.7,0-1.1c0-1.7,0-3.4,0-5.1c0-0.4-0.1-0.8,0.3-1c0.4-0.2,0.9-0.2,1.4,0c0.4,0.1,0.4,0.6,0.4,1
	c0,1.8,0,3.6,0,5.4c0,0.6-0.1,1.2,0.1,1.7c1.1-0.2,1.5-1,1.5-2c0-0.6,0-1.2,0-1.8c0-2.2,0-4.4,0-6.5c0-1.5,0.5-1.8,1.9-1.1
	c0.4,0.2,0.9,0.4,1.3,0.6c0.6,0.3,1.1,0.6,1.7,0.8c0.7,0.3,1.2,0.1,1.4-0.3c0.3-0.5,0.1-1.1-0.4-1.5c-0.3-0.2-0.6-0.4-1-0.5
	c-1.3-0.6-2.5-1.3-3.8-1.9c-0.8-0.3-1.1-0.8-1.1-1.7C437,34.5,436.9,32.7,436.9,30.6z M457.8,56.8c0.5,0,0.9,0,1.2,0
	c1.8-0.1,3.4-1.8,3.4-3.6c0-1.8-1.5-3.4-3.3-3.5c-1.5-0.1-2.9,0-4.3,0.6c-1.5,0.7-3.1,0.7-4.6,0c-1.4-0.7-2.9-0.7-4.3-0.6
	c-1.8,0.1-3.3,1.6-3.4,3.4c-0.1,1.6,1.3,3.4,3,3.6c1.5,0.2,2.9,0.2,4.4-0.5c1.7-0.8,3.5-0.7,5.2,0C455.9,56.7,456.9,56.9,457.8,56.8
	z M424.9,28.7c1.6,0,3.3,0,4.9,0c0.5,0,0.7-0.2,0.6-0.7c0-1.6,0-3.3,0-4.9c0-0.7-0.3-0.8-0.9-0.8c-1.4,0-2.9,0-4.3,0
	c-1.6,0-3.2,0-4.8,0c-0.5,0-0.9,0.1-0.9,0.8c0,1.6,0,3.3,0,4.9c0,0.5,0.2,0.7,0.6,0.7C421.9,28.7,423.4,28.7,424.9,28.7z
	 M442.5,57.6c-0.4,1.1-0.1,1.9,0.2,2.6c0.5,1.1,1.3,1.9,2.5,2c1.5,0.1,3,0.2,4.5-0.5c1.6-0.8,3.4-0.8,5.1,0c1.4,0.6,2.8,0.7,4.2,0.6
	c2.3-0.1,3.7-2.2,3.1-4.5c-2.7,1.4-5.4,1.4-8.1,0.3c-1.3-0.5-2.6-0.4-3.9,0.2c-0.9,0.4-1.9,0.6-2.9,0.6
	C445.6,58.8,444,58.8,442.5,57.6z M446.7,28.7c0.5-1.6,0.1-2.8-1.1-3.6c-0.3-0.2-0.5-0.4-0.7-0.7c-1.2-1.7-2.9-2.3-4.9-2.1
	c-1.1,0.1-2,0.3-2.8,1.2c-0.8,0.8-1.3,1.6-1.2,2.8c0.1,0.5,0,1.1,0,1.6c0,0.6,0.1,0.9,0.8,0.9C440,28.7,443.3,28.7,446.7,28.7z
	 M446.8,11.5c-1.8,0-3.4-0.1-5,0c-2.8,0.3-4.6,1.9-5.5,4.4c-0.2,0.6-0.2,1,0.7,1c0.8,0,1.6,0,2.4,0c1.2,0,2.4,0.3,3.5-0.1
	c1-0.4,1.9-1.4,2.8-2.1c0.2-0.1,0.3-0.3,0.5-0.4c0.5-0.4,0.8-0.8,0.7-1.5C446.8,12.4,446.8,12,446.8,11.5z M445,32.3
	c1.9,0,3.7,0,5.6,0c0.3,0,0.6,0,0.7-0.3c0.4-0.6-0.1-1.4-0.8-1.4c-3.6,0-7.2,0-10.8,0c-0.8,0-0.8,0.1-0.8,0.8c0,0.7,0.1,0.8,0.8,0.8
	C441.4,32.3,443.2,32.3,445,32.3z M423.2,13.8c0.1,0.6-0.3,1.5,0.2,2c0.5,0.5,1.4,0.1,2.1,0.2c0.3,0,0.5,0,0.8,0
	c0.4,0,0.6-0.2,0.6-0.6c0-1.1,0-2.1,0-3.2c0-0.6-0.3-0.7-0.8-0.7c-0.3,0-0.5,0-0.8,0C423.2,11.5,423.2,11.5,423.2,13.8z M421,20.4
	c2.8,0,5.5,0,8.2,0c0-0.1,0-0.2,0-0.2c-0.2-0.2-0.3-0.4-0.5-0.6c-0.7-1.4-1.8-1.8-3.4-1.7C422.6,18,422.6,17.9,421,20.4z
	 M418.8,30.6c-1,0-2,0-3,0c-0.6,0-0.7,0.4-0.7,0.8c0,0.5,0,0.8,0.7,0.8c2,0,3.9,0,5.9,0c0.5,0,0.6-0.3,0.6-0.7
	c0-0.4,0.1-0.9-0.6-0.9C420.8,30.6,419.8,30.6,418.8,30.6z M440.5,20.5C440.5,20.5,440.5,20.5,440.5,20.5c0.4,0,0.8,0,1.3,0
	c0.5,0,0.6-0.3,0.6-0.7c0-0.4,0.1-0.9-0.5-0.9c-0.8,0-1.7,0-2.5,0c-0.3,0-0.4,0.2-0.5,0.5c-0.1,0.9,0.1,1.1,0.9,1.2
	C440,20.5,440.2,20.5,440.5,20.5z M448.7,12.4c0,0.8,0.3,1,1,1c0.7,0,0.8-0.2,0.8-1c0-0.7-0.1-0.8-0.9-0.8
	C448.8,11.5,448.7,11.6,448.7,12.4z"/>
<path class="st0" d="M25.2,38.7c0,0.5-0.3,1-0.7,1c-0.5,0.1-1.1-0.5-1.2-1c0-0.4,0.3-0.8,0.9-0.9C24.8,37.8,25.2,38.1,25.2,38.7z"/>
<path class="st0" d="M41.7,56.2c0-0.4-0.1-0.9,0.5-0.9c0.7,0,1.1,0.3,1.1,0.8c0,0.5-0.3,0.8-0.9,0.8C41.9,57,41.8,56.9,41.7,56.2z"
	/>
<path class="st0" d="M16.3,16.7c0,0.6-0.3,1-0.8,1c-0.4,0-0.8-0.3-0.8-0.8c0-0.5,0.3-0.8,0.9-0.8C16,16.1,16.3,16.2,16.3,16.7z"/>
<path class="st0" d="M479.5,51.7c0-1.2,0-2.3,0-3.5c0-3.8,1.4-7,4-9.7c1.8-1.9,4-3.2,6.5-3.9c0.8-0.2,1.6-0.5,2.4-0.5
	c2-0.1,4.1-0.2,6,0c1.6,0.2,3.2,0.1,4.7,0.3c1.6,0.2,3.2,0.5,4.7,0.8c2.3,0.4,4.6,0.9,6.8,1.7c2.9,1,5.6,2.4,7.7,4.7
	c1.5,1.7,2.3,3.7,2.4,6c0,2,0,4,0,6.1c0,4.2-2.5,8.4-7.1,10.2c-1.3,0.5-2.7,0.7-4.1,0.7c-3.2-0.1-6.1,0.8-8.9,2
	c-2.1,0.9-4.2,1.8-6.4,2.3c-2.1,0.4-4.1,0.7-6.3,0.3c-1.8-0.3-3.4-0.8-5-1.7c-2.1-1.2-3.8-2.7-5.1-4.8c-1.1-1.8-1.9-3.7-2.2-5.8
	c-0.2-1.3-0.1-2.7-0.1-4C479.5,52.5,479.5,52.1,479.5,51.7z M481.7,56.6c0-0.1-0.1-0.2-0.1-0.3c-0.1-0.1-0.2,0-0.1,0.1
	C481.5,56.6,481.6,56.6,481.7,56.6c0,0.6,0.1,1.2,0.2,1.9c0.4,1.3,1,2.5,1.8,3.6c2.4,3.4,5.8,5.1,9.8,5.4c1.8,0.1,3.7-0.2,5.4-0.8
	c2.1-0.7,4.1-1.5,6.1-2.4c1.7-0.7,3.5-1.2,5.4-1.5c1.5-0.2,3.1-0.5,4.7-0.4c0.4,0,0.7-0.1,1.1-0.2c2-0.5,3.5-1.7,4.8-3.2
	c1.2-1.5,1.7-3.3,1.9-5.5c-0.7,0.7-1.1,1.3-1.6,1.8c-0.5,0.5-0.7,0.5-1.2,0c-0.5-0.5-0.5-0.8-0.1-1.4c0.1-0.2,0.3-0.3,0.4-0.5
	c1.9-2.2,2.8-4.8,2.1-7.7c-0.4-1.7-1.4-3.1-2.9-4.2c-2.5-1.9-5.4-3-8.3-3.8c-3.7-0.9-7.5-1.6-11.4-1.7c-0.3,0-0.5,0-0.8-0.1
	c-2.3-0.5-4.6-0.4-6.8-0.1c-2.8,0.3-5.2,1.6-7.3,3.7c-3.2,3.3-4.3,7.2-3.3,11.7c0.9,4.2,3.4,7.1,7.3,8.9c1.7,0.8,4,1,6,0.9
	c2.2-0.1,4.3-0.6,6.3-1.6c1.3-0.6,2.7-1.2,4-1.6c1.8-0.6,3.7-1.1,5.6-1.4c1.4-0.2,2.7-0.2,4.1-0.2c0.6,0,0.8,0.4,0.8,0.9
	c0,0.6-0.3,0.9-0.8,0.9c-0.4,0-0.9,0-1.3,0c-1.5-0.1-2.9,0.2-4.3,0.5c-2.4,0.5-4.5,1.4-6.7,2.4c-3.8,1.6-6.3,2.1-9.9,1.9
	c-2.5-0.1-4.7-1-6.7-2.3C484.3,59.7,483.1,58.1,481.7,56.6z"/>
<path class="st0" d="M480.5,21.8c-0.1-2.7,0.9-4.9,2.6-6.9c1.4-1.6,3.3-2.4,5.3-2.6c1.3-0.1,2.6,0.4,3.8,0.8
	c2.7,0.9,5.1,2.6,7.4,4.4c3,2.4,6.2,4.6,9.8,6.1c2.3,1,4.7,1.7,7,2.5c0.6,0.2,1.1,0.2,1.6-0.1c0.4-0.2,0.7-0.4,1.1-0.6
	c2.1-0.9,4.5,1,4.6,3c0,1-0.3,2.1-1.3,2.7c-0.6,0.4-0.7,0.8-0.5,1.4c0.5,1.4-0.1,2.4-1,3.4c-1.2,1.3-4.2,1.2-5.1-0.8
	c-0.5-1.3-1.4-1.8-2.7-2.2c-2.1-0.7-4.3-1.2-6.4-1.8c-0.7-0.2-1.4-0.2-2.2-0.3c-2.6-0.3-5.2-0.6-7.7-0.3c-1.4,0.1-2.7,0.2-4.1,0.3
	c-2.5,0-5-0.4-7.4-1.3c-2.5-0.9-3.9-2.7-4.6-5.2C480.5,23.5,480.5,22.7,480.5,21.8z M489,14.2c-1.3-0.1-2.5,0.1-3.5,0.9
	c-2.7,2.2-4,5-3.2,8.6c0.5,2.3,2,3.8,4.1,4.5c2.3,0.7,4.8,1.1,7.2,1c0.6,0,1.2-0.3,1.8-0.3c2.8,0.1,5.7-0.2,8.5,0.3
	c1.5,0.2,3,0.5,4.5,0.7c0.8,0.2,1.6,0.6,2.2,0c0.7-0.5,0.7-1.5,1-2.3c0-0.1,0-0.3,0-0.5c0.1-0.7-0.3-1-0.8-1.1
	c-2-0.7-3.9-1.6-5.8-2.7c-2.7-1.5-5.1-3.3-7.4-5.2c-1.4-1.1-2.8-2.2-4.5-2.8C491.8,14.8,490.5,13.9,489,14.2z M513.4,26.9
	c0,1.2-0.4,2.3-0.9,3.3c-0.3,0.6-0.3,0.6,0.5,0.9c0.6,0.2,1.2,0.4,1.8,0.6c1,0.3,1.8,0.9,2.2,1.9c0.1,0.3,0.3,0.6,0.4,0.8
	c0.5,0.7,1.2,1,2,0.7c0.9-0.4,1.4-1.2,1.2-2c-0.5-1.3-0.2-2.3,0.8-3.2c0.6-0.6,0.8-1.7,0.4-2.3c-0.4-0.6-1.1-0.8-2-0.7
	c-0.2,0-0.4,0.2-0.5,0.3c-1.1,0.7-2.3,0.9-3.6,0.4C515,27.3,514.2,27.2,513.4,26.9z"/>
<path class="st0" d="M494.9,39.4c-1.2-0.1-2.7,0-4.1,0.6c-3,1.1-4.8,3.2-5.6,6.3c-1.4,5.1,1.8,9.8,6.4,11.1c0.1,0,0.3,0.1,0.4,0.1
	c2.5,0.1,4.9,0.1,7.3-0.9c2.2-1,4.5-2,6.8-2.6c1.4-0.4,2.8-0.7,4.2-1c1.4-0.2,2.7-0.2,4.1-0.3c2-0.1,4.3-2,4.6-4.2
	c0.4-2-0.5-3.3-1.9-4.4c-2-1.4-4.2-2.3-6.5-2.9c-1.7-0.4-3.4-1-5.2-1c-0.4,0-0.7-0.3-1-0.3c-0.7-0.1-0.9-0.5-0.7-1.2
	c0.1-0.5,0.5-0.8,1.1-0.7c3.4,0.6,6.8,1.3,10.1,2.6c2,0.8,3.7,1.9,5.1,3.5c1,1.2,1.3,2.6,1.1,4.2c-0.3,1.8-1,3.3-2.4,4.5
	c-1.3,1-2.7,1.8-4.4,1.7c-4-0.1-7.7,1-11.3,2.5c-1.9,0.8-3.8,1.7-5.8,2.1c-1,0.2-1.9,0.1-2.8,0.2c-3.1,0.3-5.6-1-7.9-2.9
	c-1.5-1.3-2.5-3.1-3-5c-0.9-3.3-0.4-6.4,1.6-9.3c1.6-2.3,3.9-3.8,6.6-4.5c1.9-0.5,3.9-0.2,5.8-0.3c0.4,0,0.7,0.2,1,0.5
	c0.2,0.2,0.4,0.4,0.2,0.7c-0.2,0.3-0.2,0.8-0.7,0.8C497,39.4,496.1,39.4,494.9,39.4z"/>
<path class="st0" d="M494.9,41c2.4,0,4.2,1.5,4.5,3.9c0.1,0.9-0.2,1.9-0.9,2.7c-2,2.3-5.7,2.3-7.7-0.6c-1-1.5-0.6-3.1,0.4-4.2
	C492.2,41.7,493.4,40.9,494.9,41z M497.4,45.2c0.1-0.5,0-1-0.4-1.4c-1.2-1-2.8-1.4-4.1-0.1c-1,1-0.7,2.8,0.5,3.3
	c0.9,0.4,1.9,0.6,2.9,0C497,46.6,497.4,46.1,497.4,45.2z"/>
<path class="st0" d="M501.2,38.7c0,0.5-0.3,1-0.7,1c-0.5,0.1-1.1-0.5-1.2-1c0-0.4,0.3-0.8,0.9-0.9C500.8,37.8,501.2,38.1,501.2,38.7
	z"/>
<path class="st0" d="M517.7,56.2c0-0.4-0.1-0.9,0.5-0.9c0.7,0,1.1,0.3,1.1,0.8c0,0.5-0.3,0.8-0.9,0.8
	C517.9,57,517.8,56.9,517.7,56.2z"/>
<path class="st0" d="M488.2,15.5c0.3,0,0.4,0,0.5,0c0.3,0,0.7,0,0.7,0.4c0,0.4,0.1,0.7-0.3,1c-0.1,0.1-0.3,0.2-0.4,0.2
	c-1.6,0.1-2.3,1.2-3,2.4c-0.2,0.3-0.2,0.6-0.4,0.9c-0.2,0.3-0.4,0.7-0.8,0.5c-0.4-0.2-0.9-0.6-0.7-1.1c0.5-1.2,1-2.4,2.1-3.2
	C486.6,15.9,487.3,15.3,488.2,15.5z"/>
<path class="st0" d="M492.3,16.7c0,0.6-0.3,1-0.8,1c-0.4,0-0.8-0.3-0.8-0.8c0-0.5,0.3-0.8,0.9-0.8C492,16.1,492.3,16.2,492.3,16.7z"
	/>
<path class="st0" d="M543.6,30.4c-0.2-1.7,0.5-3,1.5-4.1c1.5-1.8,3.4-3.2,5.9-3.5c2-0.3,3.5-0.2,4.9-0.1c2.3,0.2,4.2,1.5,6.2,2.4
	c1.4,0.6,2.9,1.3,4.4,1.7c0.9,0.3,1.9,0.4,2.9,0.4c0.7,0,1.5,0,2.2,0c0.7,0,1.5-0.1,2.1,0.4c0.7,0.7,1.5,1.3,1.7,2.3
	c0,0.3,0.1,0.5,0.5,0.4c2.2-0.3,3.9,2.6,3.3,4.5c-0.3,1-0.9,2.1-2.2,2.5c-0.7,0.2-1.1,0.5-1,1.4c0.1,1.4-0.2,2.9,0.1,4.3
	c0.4,2.6,0,5.1,0.3,7.7c0.2,1.3,0.2,2.7,0.3,4c0,0.2,0.1,0.4,0.2,0.6c0.6,1.3,1.2,2.6,1.5,4c0.3,1.4,0.2,2.4-0.3,3.7
	c-0.6,1.3-1.7,1.6-2.9,1.8c-0.2,0-0.4,0-0.6,0c-10,0-20.1,0-30.1,0c-1.8,0-2.6-1-3.6-2c-0.1-0.8-0.6-1.6-0.4-2.4
	c0.3-1.4,0.5-2.9,1.3-4.1c0.7-1,0.6-2.1,0.9-3.1c-0.2-3.6,0.3-7.1,0.3-10.7c0-1.2-0.2-2.5,0.3-3.7c0.3-0.8,0-1.3-0.7-1.4
	c-1-0.1-1.4-0.8-2-1.4c-0.3-0.3-0.6-0.8-0.5-1.4c0-0.3,0.1-0.6,0-1c-0.4-1.9,1.7-3.5,3.4-3.4C543.2,30.4,543.3,30.4,543.6,30.4z
	 M573.9,37.8c-9.9,0-19.6,0-29.3,0c-0.3,2.6,0.2,5.2-0.3,7.7c-0.3,1.4-0.1,3,0,4.5c0.1,1.5-0.6,2.9-0.3,4.3c0.1,1-0.2,1.8-0.6,2.6
	c-0.5,0.8-0.7,1.7-1,2.6c-0.2,0.6-0.3,1.1-0.2,1.6c0.1,0.8,0.5,1.6,1.2,1.7c0.7,0.1,1.3,0.4,2.1,0.4c9.3,0,18.7,0,28,0
	c0.7,0,1.2-0.3,1.8-0.4c0.6-0.1,1.1-0.7,1.2-1.1c0.2-0.7,0.2-1.6-0.1-2.3c-0.4-1.1-0.7-2.3-1.4-3.4c-0.2-0.3-0.4-0.8-0.4-1.3
	c0-2.1,0.3-4.2-0.3-6.2c0-0.1,0-0.2,0-0.3C574.4,44.8,573.7,41.4,573.9,37.8z M545.3,30.4c0.5,0,1,0,1.5,0c3.1,0,6.2,0,9.2,0
	c0.2,0,0.6-0.1,0.6,0.1c0,0.4,0.4,0.5,0.4,0.8c0,0.3-0.4,0.6-0.9,0.6c-0.3,0-0.6,0-1,0c-3.6,0-7.1,0-10.7,0c-0.3,0-0.6,0-1,0
	c-0.7,0-2,1-2.1,1.6c-0.1,0.8,0.3,1.3,0.7,1.9c0.4,0.5,1,0.3,1.5,0.3c10.4,0,20.8,0,31.2,0c0.3,0,0.7,0.1,1,0c0.4-0.1,0.8-0.3,1-0.5
	c0.4-0.6,0.6-1.3,0.3-1.9c-0.2-0.5-0.4-1.3-1.3-1.1c-0.4-0.4-1-0.3-1.5-0.3c-3.6,0-7.1,0-10.7,0c-0.3,0-0.6,0-1,0
	c-0.6,0-0.9-0.3-0.9-0.8c0.1-0.4,0.3-0.8,0.8-0.7c0.3,0,0.6,0,1,0c2.9,0,5.8,0,8.8,0c0.3,0,0.8,0.3,0.9-0.2c0.1-0.4-0.4-0.6-0.6-0.8
	c-0.1-0.1-0.3-0.1-0.4-0.2c-0.6-0.2-1.2-0.4-1.9-0.3c-1.3,0.1-2.6,0.2-3.8,0c-1.3-0.3-2.5-0.8-3.7-1.4c-0.7-0.3-1.3-0.7-2-0.9
	c-0.5-0.1-1-0.5-1.6-0.8c-0.3-0.2-2.2-1-2.4-1c-1.4-0.5-2.8-0.2-4.2-0.3c-0.9-0.1-1.6,0.5-2.4,0.3c-2.2,1.2-4.3,2.5-4.7,5.3
	C545.4,30.1,545.1,30.2,545.3,30.4z"/>
<path class="st0" d="M566.7,9.7c-0.3,0.8-0.3,1.6-0.5,2.4c-0.2,1.1-0.9,2.1-1.1,3.2c0,0.2-0.3,0.4-0.6,0.5c-0.4,0.1-0.7-0.1-0.6-0.4
	c0-0.3,0-0.6,0.1-0.9c1.3-2.4,1.5-5,1.4-7.7c0-0.7-0.4-1.1-1.1-0.9c-1.9,0.4-3.7,1.1-5.3,2.1c-1.5,0.9-2.6,2.3-3.8,3.5
	c-1.3,1.4-1.2,4.2,0,5.6c1.1,1.3,2.4,1.8,4,1.8c0.4,0,0.8-0.2,1.1-0.3c0.4-0.2,0.7-0.4,1-0.6c0.3-0.1,0.7-0.2,0.8,0.1
	c0.1,0.2,0.1,0.6-0.2,0.9c-0.4,0.4-0.9,0.5-1.3,0.7c-1.8,0.6-2.6,0.6-4.1-0.1c-1.6-0.7-2.6-1.8-3.2-3.3c-0.8-2.2-0.1-4.5,1.4-6
	c0.5-0.5,1-1,1.5-1.5c1.7-1.9,3.9-2.8,6.1-3.6c0.7-0.2,1.3-0.3,2-0.6c1.1-0.4,2.3,0.7,2.3,2.1c0,0.8,0,1.6,0.1,2.4
	c0.4-1.7,1.5-2.9,2.9-3.9c0.4-0.3,1.1-0.1,1.4-0.6c1.1,0.2,2.1-0.1,3.2,0.3c2.1,0.7,3.2,2.2,3.9,4.2c0.1,0.2,0,0.5,0,0.8
	c0.1,0.4-0.1,0.9,0.3,1.3c0.2,0.3,0.2,1-0.1,1.3c-0.2,0.3-0.2,0.6-0.2,0.9c-0.2,2.8-1.2,5.2-2.7,7.5c-0.4,0.6-0.9,1.2-1.8,1
	c-0.3-0.1-0.5-0.1-0.7-0.3c-1.2-1.3-2.6-2.4-3.6-3.9c-1.3-2.1-2-3.7-2.4-5.9C567,11.1,566.8,10.4,566.7,9.7z M577.4,11.7
	c0-0.4,0-0.7,0-1.1c0-1.7-0.8-3.4-2.3-4.3c-2-1.2-3.7-1.1-5.5,0.4c-1.6,1.3-1.5,3.2-1.5,5c0.6,0.7,0.3,1.6,0.8,2.4
	c0.4,0.7,0.7,1.5,1.2,2.2c0.8,1.3,1.7,2.6,2.8,3.6c1,0.9,1.7,0.7,2.3-0.4C576.5,17.1,577.4,14.6,577.4,11.7z"/>
<path class="st0" d="M556,12.3c-0.1-0.4,0.1-0.7,0.4-0.9c1-1,2-2,3.1-2.8c0.4-0.3,0.8-0.6,1.4-0.5c0.2,0,0.5,0,0.5,0.2
	c0,0.3,0.2,0.7-0.3,0.7c-0.2,0-0.3,0.1-0.4,0.2c-1.5,0.9-2.8,2.1-4,3.4c-0.1,0.2-0.3,0.3-0.5,0.2C556,12.9,556,12.7,556,12.3z"/>
<path class="st0" d="M558.6,18.3c-0.3-0.1-0.8-0.3-1.2-0.4c-0.5-0.1-0.9-0.9-0.7-1.1c0.4-0.2,0.8-0.2,1.2,0c1,0.5,1.9,0.3,2.7-0.4
	c0.4-0.4,0.9-0.7,1.4-0.6c0.3,0.1,0,0.9-0.7,1.5C560.8,17.8,559.1,18.4,558.6,18.3z"/>
<path class="st0" d="M562.7,10.6c-0.1,1.4-0.8,2.6-1.5,3.9c-0.1,0.2-0.4,0.3-0.7,0.3c-0.3,0-0.4-0.2-0.5-0.5c-0.1-0.4,0.3-0.7,0.4-1
	c0.4-0.9,0.9-1.7,0.9-2.7c0-0.1,0.1-0.3,0.2-0.4c0.2-0.4,0.2-0.8,0.8-0.6c0.5,0.1,0.2,0.5,0.3,0.8C562.7,10.5,562.7,10.6,562.7,10.6
	z"/>
<path class="st0" d="M558.9,11.9c0.2,0,0.5-0.1,0.6,0.2c0.1,0.2,0,0.4-0.2,0.5c-0.2,0.2-0.5,0.3-0.5,0.6c-0.2,0.6-0.9,1.1-0.2,1.8
	c0.1,0.1,0.2,0.6-0.1,0.7c-0.3,0.2-0.6,0.1-0.9-0.1c-0.7-0.6-0.7-0.9-0.4-1.9c0.2-0.6,0.8-0.8,0.9-1.4
	C558.1,12,558.5,11.9,558.9,11.9z"/>
<path class="st0" d="M564.6,10.7c0.1,1-0.6,1.8-0.7,2.7c0,0.1-0.2,0.1-0.2,0.2c-0.2,0.4-0.6,0.3-0.9,0.2c-0.3-0.1-0.2-0.5-0.2-0.7
	c0.5-0.9,0.6-2,0.9-3c0.1-0.4,0.2-0.5,0.6-0.5c0.4,0,0.4,0.2,0.4,0.5C564.6,10.3,564.6,10.5,564.6,10.7z"/>
<path class="st0" d="M556.2,44.5c0.2-0.8,0.1-1.5,0.3-2.2c0.3-0.9,0.8-1.4,1.3-2c0.5-0.7,1.2-0.6,1.9-0.5c0.6,0.1,1.1,0.4,1.5,0.9
	c0.8,1.1,1,2.4,0.9,3.9c0.5,0,1,0.1,1.4,0c0.9-0.1,1.5,0.6,1.7,1.2c0.2,0.6,0.3,1.4-0.2,2.1c-0.1,0.2-0.1,0.5-0.3,0.7
	c-0.2,0.2-0.2,0.6,0,0.7c0.7,0.5,0.7,1.2,0.6,1.8c-0.2,0.8-0.5,1.6-0.9,2.3c-0.8,1.4-2,2.3-3.4,3c-0.6,0.3-0.8,0.5-0.8,1.1
	c0,0.4,0,0.7,0,1.1c0,0.8-0.4,1.1-1.2,1c-0.4-0.1-0.7-0.3-0.7-0.8c0-0.5,0-1,0-1.4c0-0.5-0.2-0.8-0.6-0.9c-1.9-0.8-3.1-2.2-4-3.9
	c-0.4-0.7-0.9-1.7-0.2-2.7c0.5-0.8,0.5-0.9-0.1-2.2c-0.2-0.6-0.3-1.1-0.1-1.6c0.3-1,0.9-1.3,2-1.3C555.5,44.5,555.8,44.5,556.2,44.5
	z M560.5,44.1c0.1-0.6-0.3-1.3-0.6-1.9c-0.3-0.7-0.6-0.6-1.2-0.3c-0.8,0.4-0.3,1.2-0.7,1.8c-0.3,0.4,0.1,0.9,0.2,1.4
	c0.1,0.8,0.6,0.8,1.1,1c0.5,0.2,0.7-0.3,0.9-0.7C560.4,44.9,560.4,44.6,560.5,44.1z M558.5,53.4c-0.1-0.4,0.2-0.8-0.1-1.2
	c-0.7-0.9-1.7-1.6-2.8-2c-0.3-0.1-0.7-0.1-0.6,0.4c0,0.2,0,0.4,0,0.6c0.2,0.7,2,2.8,2.8,3.1c0.3,0.1,0.7-0.1,0.7-0.5
	C558.6,53.7,558.5,53.6,558.5,53.4z M560.3,54.4c1.3-0.6,2.2-1.4,2.7-2.6c0.2-0.5,0.6-1.1,0.2-1.5c-0.4-0.4-0.9,0.2-1.4,0.4
	c-1.2,0.5-1.9,1.3-1.7,2.8C560.2,53.7,560,54,560.3,54.4z M558.5,49.6c0.2-0.9,0.1-1.6-0.6-2.2c-0.6-0.6-1.4-0.8-2-1.3
	c-0.1-0.1-0.5-0.1-0.7,0.1c-0.2,0.4,0.5,2.4,0.9,2.4C556.9,48.6,557.5,49.5,558.5,49.6z M560.1,49.6c0.7-0.4,1.3-0.9,1.9-0.9
	c1.1-0.1,1.1-0.9,1.3-1.6c0.1-0.3,0-0.6,0-1.1c-0.4,0.2-0.6,0.1-0.9,0.2c-0.6,0.2-0.9,0.7-1.5,1c-0.5,0.2-0.9,0.7-0.7,1.4
	C560.2,48.9,560.1,49.2,560.1,49.6z"/>
<path class="st0" d="M559.1,30.4c0.7,0,1.1,0.3,1,0.8c0,0.4-0.3,0.7-0.8,0.8c-0.7,0.1-1.1-0.2-1.1-0.8
	C558.2,30.8,558.5,30.5,559.1,30.4z"/>
<path class="st0" d="M576.4,12.1c0,0.6-0.1,1.2,0,1.7c0.1,0.6-0.4,0.9-0.4,1.5c0.1,0.6-0.3,0.8-0.9,0.8c-0.3,0-0.4-0.2-0.3-0.4
	c0.6-1.5,0.7-3,0.6-4.5c0-0.5,0-1,0-1.4c0-0.2,0.1-0.3,0.2-0.4c0.1,0,0.3,0,0.4,0.1c0.2,0.2,0.4,0.3,0.3,0.7
	C576.4,10.8,576.4,11.5,576.4,12.1z"/>
<path class="st0" d="M568.8,10.2c0.3-1.6,1.1-2.9,2.6-3.6c0.4-0.2,0.8-0.1,1.1,0.3c0.2,0.2,0.2,0.5-0.1,0.6
	c-0.4,0.2-0.7,0.4-1.1,0.5c-0.9,0.3-1.2,1-1.3,1.8c0,0.3,0.1,0.7-0.3,1c-0.2,0.1,0,0.6-0.4,0.5c-0.3-0.1-0.5-0.3-0.6-0.6
	C568.7,10.5,568.8,10.4,568.8,10.2z"/>
<path class="st0" d="M571,11.5c0-0.2-0.1-0.6,0.3-0.5c0.3,0,0.5-0.1,0.7,0.4c0.3,1.3,0.8,2.6,1.7,3.7c0.1,0.1,0.2,0.3,0.2,0.4
	c0,0.1,0,0.3,0,0.5c-0.1,0.2-0.4,0.1-0.6,0.1c-0.3,0-0.4-0.2-0.5-0.3c-0.6-1.2-1.2-2.5-1.7-3.7C570.9,11.9,571,11.7,571,11.5z"/>
<path class="st0" d="M572.9,8.4c0.5,0,1.5,0.8,1.5,1.3c0.1,0.6-0.1,1.2,0.3,1.8c0.2,0.3-0.2,0.6-0.5,0.7c-0.4,0.1-0.7-0.2-0.7-0.5
	c-0.1-0.4,0-0.9,0-1.3c-0.1-0.5-0.1-1.2-0.9-1.1c-0.3,0-0.6-0.3-0.6-0.5c0.1-0.2,0.4-0.5,0.7-0.4C572.8,8.4,572.9,8.4,572.9,8.4z"/>
<path class="st0" d="M572.6,17c0,0.2-0.1,0.3-0.2,0.3c-0.2,0-0.5,0.1-0.7-0.2c-0.2-0.3-0.5-0.5-0.7-0.8c-0.3-0.8-0.7-1.5-1.1-2.2
	c-0.1-0.2-0.1-0.3-0.1-0.4c0.1-0.2,0.4-0.1,0.6-0.2c0.3,0,0.5,0.2,0.6,0.4c0.4,1,1,1.9,1.6,2.8C572.5,16.9,572.5,17,572.6,17z"/>
<path class="st0" d="M601.5,56.2c-0.3,0.1-0.6,0.1-0.8,0.2c-1.1,0.3-2.3-0.2-2.8-1.1c-0.4-0.8-0.1-2.4,0.6-2.9
	c0.9-0.6,1.6-1.4,2.5-2c1-0.7,1-2.1,0-2.8c-0.6-0.4-1.1-0.8-1.6-1.3c-1-1.3-1.7-2.7-1.7-4.5c0.1-6.4,0.1-12.8,0-19.1
	c0-1.9,0.8-3.2,2.3-4.2c1.5-1,3.1-1.6,4.9-2c1.9-0.3,3.7-0.7,5.6-0.6c2.6,0.1,5.2,0.5,7.6,1.6c0.9,0.4,1.8,1,2.5,1.7
	c0.9,0.9,1.5,2,1.4,3.4c-0.1,2.8,0,5.5,0,8.3c0,0.3,0,0.6,0,1c0.1,0.4,0.7,0.6,1.1,0.3c1.8-1.5,3.7-3,5.5-4.5c1.5-1.2,3-2.4,4.4-3.6
	c1.5-1.2,3-2.5,4.5-3.8c1.4-1.2,2.8-2.4,4.3-3.5c0.9-0.7,1.9-1.2,3.2-0.6c1.7,0.9,1.5,3.6,0.4,4.5c-2.7,2-5.3,4.2-7.9,6.3
	c-2.5,2-5,4-7.5,6c-1.1,0.9-2.2,1.9-3.4,2.8c-0.3,0.2-0.4,0.5-0.4,0.8c0,1.6,0,3.3,0,5.1c0.9-0.5,1.7-0.9,2.5-1.4
	c4.6-2.8,9.1-5.7,13.6-8.5c0.9-0.6,1.9-0.5,2.9-0.1c1,0.4,1.1,1.3,1.1,2.2c0.1,1-0.4,1.7-1.2,2.2c-3.7,2.3-7.5,4.5-11.2,6.7
	c-2.4,1.5-4.8,3-7.3,4.4c-0.5,0.3-0.5,0.6-0.5,1c0,2.4-0.1,4.8,0,7.2c0.2,3.5-1.5,5.7-4.4,7.2c-1.5,0.8-3,1.3-4.7,1.6
	c-1.6,0.3-3.3,0.3-4.9,0.2c-2.8-0.3-5.6-1-7.9-2.8c-0.4-0.3-0.8-0.5-1.3-0.1c-0.6,0.4-1.2,0.7-1.8,1c-1.6,0.9-3.2,0.2-3.7-1.6
	c-0.2-0.6,0.1-1.2,0.5-1.7c0.4-0.5,0.9-0.9,1.5-1.2c0.6-0.3,1.2-0.7,1.7-1.1C601.6,56.9,601.7,56.6,601.5,56.2z M603.4,55.8
	c1.5-0.9,2.9-1.8,4.3-2.6c3.1-1.9,6.2-3.9,9.4-5.8c0.5-0.3,1.3-0.6,1.5-1.1c0.3-0.6,0.1-1.3,0.1-2c0-0.1-0.1-0.2-0.1-0.3
	c-0.2,0-0.5-0.1-0.7,0c-1.2,0.5-2.5,0.2-3.7,0.6c-0.8,0.2-1.5-0.2-2.3-0.3c-2.4-0.1-4.6-0.9-6.7-2.1c-0.6-0.3-1.1-0.7-1.7-1.1
	C603.4,46,603.4,50.8,603.4,55.8z M605.3,60.3c0.7,0.7,1.5,1.1,2.2,1.4c3.3,1.3,6.7,1.4,10.2,0.7c1-0.2,1-0.2,1-1.2
	c0-2.8,0-5.6,0-8.4c0-0.2,0-0.4-0.3-0.6C614.1,54.9,609.6,57.5,605.3,60.3z M600.2,61.2c0.3-0.1,0.7-0.3,1.1-0.6
	c2.4-1.4,4.8-2.9,7.1-4.3c3.8-2.3,7.5-4.6,11.3-6.8c3.7-2.3,7.4-4.5,11.2-6.8c4.3-2.6,8.5-5.1,12.8-7.7c0.2-0.1,0.4-0.3,0.6-0.5
	c0.3-0.3,0.4-0.6,0.1-1c-0.2-0.3-0.6-0.5-1-0.3c-0.5,0.2-1,0.5-1.5,0.9c-1.3,0.8-2.6,1.7-4,2.6c-4.5,2.7-9,5.4-13.4,8.2
	c-3.6,2.2-7.2,4.6-10.8,6.8c-4.4,2.7-8.9,5.4-13.3,8.1c-0.3,0.2-0.7,0.5-0.9,0.9C599.5,60.8,599.7,61.2,600.2,61.2z M601.6,45.9
	c0.3-0.4,0.2-0.8,0.2-1.1c0-2.5,0.1-5,0-7.5c0-1.3,0.3-2.4,1.2-3.3c0.3-0.3,0.4-0.5,0.4-1c0-1.3,0-2.5,0-3.8c0-0.4-0.1-0.6-0.5-0.7
	c-1.2-0.5-2.2-1.2-3.2-1.9c-0.1-0.1-0.2-0.3-0.4,0c0,2.5,0,5,0,7.5c0,2.5,0,5.1,0,7.6C599.3,43.6,600.1,44.9,601.6,45.9z
	 M614.3,19.9c0,0.4,0.3,0.4,0.4,0.5c2.3,1.6,1.7,4.1-0.4,5.2c-1,0.5-2,0.9-3.2,0.8c-0.9,0-1.8,0.1-2.7,0c-1.1-0.2-1.8,0.3-2.4,1.1
	c0.4,0.3,0.8,0.5,1.3,0.5c1.3,0,2.5,0.3,3.9,0.1c1.6-0.2,3.2-0.5,4.7-1.1c1.8-0.7,3.4-1.7,4.2-3.6c0.2-0.6,0.2-1.1,0-1.6
	c-0.7-1.7-2.2-2.3-3.7-2.9c-0.4-0.2-1-0.1-1.3,0.3C614.8,19.4,614.4,19.6,614.3,19.9z M609.9,32.5c1,1.2,1.6,1.7,3,1.4
	c2.2-0.5,4.3,0.1,6.2,1.3c1.5,1,2,3,0.1,4.4c-1,0.7-0.9,0.9,0.1,1.5c0.5,0.3,1,0.3,1.5,0c1.1-0.6,2.1-1.3,2.8-2.2
	c0.4-0.4,0.6-1,0.6-1.6c0.1-1.4-0.6-2.4-1.8-3.1c-2.5-1.6-5.3-1.8-8.1-2.1C612.9,32,611.6,32.5,609.9,32.5z M605.3,25.6
	c-0.5-0.2-1-0.7-1.4-1.1c-0.8-0.9-0.8-2.5,0-3.3c1.8-1.8,4.1-2.2,6.5-2c1,0.1,1.8,0.2,2.6-0.6c0.2-0.2,0.3-0.3,0.3-0.5
	c0-0.3-0.3-0.4-0.6-0.4c-1.5,0-3.1,0-4.6,0c-2.3,0-4.5,0.7-6.6,1.7c-0.6,0.3-1.1,0.8-1.6,1.3c-0.7,0.8-0.9,1.7-0.4,2.8
	c0.5,1.1,1.3,1.9,2.3,2.5c0.6,0.3,1.2,0.8,1.8,0.9c0.6,0.1,0.9-0.8,1.5-1C605.3,25.9,605.3,25.8,605.3,25.6z M617.5,42.2
	c-0.4-0.9-1-1.2-1.9-1.2c-1.2,0.1-2.3,0.1-3.5,0c-1.6-0.1-2.9-0.7-4-1.9c-1.2-1.3-0.9-2.6,0.1-3.6c0.2-0.2,0.5-0.4,0.7-0.6
	c0.4-0.3,0.4-0.6,0.1-0.9c-0.3-0.3-0.7-0.5-1-0.8c-0.2-0.2-0.4-0.2-0.7,0c-0.9,0.4-1.8,0.8-2.6,1.5c-1.6,1.3-1.6,3.1-0.4,4.4
	c1.1,1.2,2.4,2,3.9,2.6c2.5,1,5.1,1,7.8,0.9C616.4,42.6,616.9,42.4,617.5,42.2z M624.4,48.6c-1.3,0.8-2.2,1.4-3.3,2
	c-0.6,0.3-0.8,0.7-0.8,1.4c0,3,0,6,0,8.9c0,0.2,0,0.4,0.2,0.6c0.9-0.4,1.7-1,2.4-1.7c0.9-0.9,1.5-2.1,1.5-3.4
	C624.5,53.9,624.4,51.4,624.4,48.6z M644.3,18.6c0-0.3,0.1-0.7-0.3-0.8c-0.3-0.1-0.6-0.1-0.9,0.1c-0.2,0.1-0.3,0.3-0.5,0.4
	c-1.1,0.9-2.3,1.9-3.4,2.8c-2,1.7-4,3.4-6.1,5.1c-1.4,1.2-2.9,2.3-4.3,3.5c-1.3,1.1-2.7,2.2-4,3.3c-0.4,0.3-0.5,0.7-0.1,1.1
	c0.3,0.4,0.7,0.4,1.1,0.1c1.7-1.3,3.4-2.7,5-4.1c2-1.6,3.9-3.2,5.9-4.8c2.3-1.9,4.7-3.7,7.1-5.6C644,19.4,644.4,19.1,644.3,18.6z
	 M605,32.4c2.5-1.1,5-1.6,7.6-1.8c2.6-0.2,5.1,0.2,7.7,0.9c0-1.7,0-3.3,0-4.9c-0.9,0.1-1.4,0.9-2.1,1.3c-2.5,1.3-5.2,1.9-8,2
	c-1.5,0.1-3-0.2-4.5-0.6c-0.3-0.1-0.7-0.1-0.7,0.4C605,30.5,605,31.3,605,32.4z M614,35.6c-0.6,0-1.2,0-1.7,0
	c-0.8,0-1.6,0.3-2.3,0.8c-1.1,0.7-1,1.5,0.1,2.1c1.8,1,3.7,1.1,5.6,0.7c0.8-0.2,1.6-0.4,2.3-0.8c0.7-0.4,0.7-1.2,0.2-1.7
	c-0.4-0.4-0.9-0.6-1.4-0.8C615.9,35.6,614.9,35.6,614,35.6z M609.6,24.8c1.3,0.1,2.5-0.1,3.6-0.6c0.6-0.3,1.4-0.7,1.3-1.4
	c0-0.6-0.8-1-1.4-1.3c-1.5-0.7-3.1-0.7-4.6-0.5c-1.1,0.1-2.3,0.4-3.1,1.3c-0.4,0.4-0.3,0.7,0,1.1c0.2,0.4,0.6,0.5,0.9,0.6
	C607.2,24.7,608.4,24.9,609.6,24.8z M620.5,45.2c1.2-0.7,2.3-1.4,3.5-2c0.3-0.2,0.5-0.4,0.4-0.8c-0.1-0.4,0.1-0.9-0.2-1.4
	c-1.1,0.7-2.2,1.6-3.4,2c-0.3,0.1-0.5,0.4-0.5,0.7C620.4,44.2,620.2,44.7,620.5,45.2z M600.1,54.7c0.7-0.1,1.7-1.3,1.7-2
	c0-0.1,0-0.3-0.1-0.4c-0.2-0.2-0.4,0-0.5,0.1c-0.3,0.3-0.7,0.6-1.1,0.9c-0.4,0.2-0.5,0.6-0.4,1.1C599.7,54.7,599.9,54.7,600.1,54.7z
	"/>
<path class="st0" d="M659.8,43.6c-2.3-2.1-2.4-3.1-2.6-6c1.6,0,3.3,0,4.9,0c0.3,0,0.4,0,0.5-0.4c0.3-1,0.6-1.2,1.5-1.2
	c0.4,0,0.8,0,1.4,0c-0.5-1.3-0.7-2.6-0.9-3.9c-0.3-1.5-1-3.1-0.1-4.6c-0.1-1.8,1.1-3.1,2-4.4c0.2-0.3,0.2-0.5,0-0.8
	c-0.8-1.1-1.6-2.2-2.4-3.3c-0.2-0.3-0.5-0.7-0.5-0.9c-0.1-0.5-0.6-0.9-0.4-1.3c0.3-0.6,0.3-1.3,0.7-1.8c0.3-0.3,0.6-0.6,1.1-0.8
	c1.6-0.6,3.2,0.1,3.9,1.7c0.6,1.5,1,3.1,1.8,4.5c0-0.7,0.4-1.4-0.2-2.1c-0.1-0.2,0-0.5,0-0.8c-0.1-0.9,0-1.7-0.3-2.6
	c-0.5-1.6,0.9-3.3,2.6-3.5c1.2-0.2,2.8,1.2,2.8,2.5c0,0.8,0.2,1.6-0.2,2.4c-0.3,0.7,0.2,1.6-0.4,2.4c-0.1,0.1,0,0.4,0,0.6
	c0,0.2,0.1,0.3,0.3,0.3c0.2,0,0.3,0,0.4-0.2c0.3-0.9,0.7-1.7,0.9-2.6c0.1-0.5,0.3-0.9,0.5-1.2c0.5-1.1,1.2-1.7,2.5-1.7
	c1.3,0,2.2,0.6,2.9,1.7c0.6,1,0.4,2-0.2,2.8c-0.8,1.1-1.6,2.2-2.4,3.3c-0.2,0.2-0.2,0.4-0.4,0.6c-0.1,0.2-0.3,0.3,0,0.6
	c0.6,0.5,0.9,1.2,1.3,1.8c0.6,1.1,1,2.3,1,3.6c0,0.7,0,1.4,0,2.2c1-0.8,1.6-1.8,2.7-2c0.5-0.7,1.4,0.1,1.8-0.6
	c0.6,0.1,1.3-0.3,2,0.2c0.2,0.2,0.7,0,1.1,0c0-1.8,0-3.5,0-5.2c0-1.7,0.9-2.9,2.3-3.7c0.9-0.5,1.8-1.3,3.1-0.9c0,0.6,0,1.1,0,1.8
	c-1.3,0-2.3,0.7-3,1.7c-0.7,0.9-0.4,2-0.4,3c0.4,0.1,0.4-0.2,0.6-0.3c0.2-0.2,0.4-0.5,0.7-0.7c0.2-0.1,0.4-0.2,0.7-0.3
	c0.2-0.1,0.4-0.2,0.7-0.3c0.5-0.3,1.1-0.5,1.7-0.5c1.7,0.1,3.4,0,5.1,0c0.2,1.1,0.1,1.1-0.5,3.2c-0.3,1.2-1.1,1.9-1.9,2.7
	c2.7,1.7,4,4.3,4.8,7.2c1.4,0,2.7,0,4.1,0c0.7,0,1.3,0.6,1.3,1.3c0,0.9,0,1.7,0,2.6c0,0.7-0.6,1.3-1.2,1.3c-0.6,0-1.3,0-1.9,0
	c0,0.6,0,1,0,1.5c0,4.6,0,9.2,0,13.9c0,0.9-0.1,1.9-0.4,2.7c-0.2,0.7-0.6,1.3-1.2,1.7c-1,0.7-2,1.2-3.3,1.2c-7.9,0-15.8,0-23.8,0
	c-1,0-1.7,0.3-2.5,0.9c-1.6,1.3-3.4,2.3-5.6,2.3c-0.6,0-1,0.4-1.6,0.3c-2.9-0.3-5.6-1-7.9-2.9c-2-1.7-3.2-3.8-4.1-6.1
	c0-1.8-1-3.5-0.1-5.3c0-2.2,1.2-3.9,2.3-5.6C657.7,44.8,658.6,44,659.8,43.6z M666.1,46.8c0-0.5,0-0.9,0-1.4c0-0.5-0.3-0.8-0.8-0.8
	c-1,0-1.9-0.1-2.9,0c-0.8,0.1-1.7,0.3-2.3,0.9c-1,1-1.9,2-2.6,3.2c-0.6,1.1-0.7,2.4-1,3.6c-0.4,1.2,0.3,2.4,0.3,3.7
	c0,0.6,0.8,1.1,0.6,1.8c1,1.5,2.1,3,3.7,4c1.7,1.1,3.6,1.8,5.6,1.8c1.8,0,3.6-0.5,5.3-1.5c1.4-0.8,2.4-1.8,3.3-3.1
	c0.8-1.1,1.2-2.3,1.6-3.7c0.5-1.8,0.3-3.6-0.2-5.3c-0.4-1.5-1.3-2.8-2.3-4c-0.5-0.5-1.2-1.2-1.9-1.2c-1.2-0.1-2.4-0.4-3.5,0.2
	c-1,0.5-1.1,0.4-1,1.6c0.4-0.2,0.8-0.3,1.1-0.7c0.2-0.3,0.5-0.3,0.7-0.2c0.4,0.1,0.9,0.7,1,1.1c0.2,0.6-0.5,0.4-0.7,0.7
	c-0.2,0.4-0.7,0.4-1,0.7c-0.5,0.4-1.6,0.7-2.1,0.8c-1.8,0-3.1-0.9-4.2-2c-0.1-0.4,0.1-0.5,0.2-0.6c0.8-0.8,0.7-0.7,1.7-0.2
	C665.1,46.5,665.4,46.9,666.1,46.8z M701.4,41.2c-11.3,0-22.5,0-33.8,0c0,0.7,0,1.4,0,2.1c0,0.5,0.2,0.5,0.6,0.3
	c0.7-0.4,1.5-0.5,2.3-0.5c1.1,0,2.1,0.1,3.1,0.6c1,0.5,2,0.9,2.5,1.9c0.5,0.9,1.1,1.1,2,1.1c7.9,0,15.8,0,23.8,0c0.5,0,0.9,0,1.4,0
	c0-2.4,0-4.7,0-7.1c1.2,0,2.3,0,3.4,0c0-0.7,0-1.3,0-1.9c-0.3,0-0.6,0-0.8,0c-12.3,0-24.6,0-36.8,0c-0.3,0-0.5,0-0.8,0
	c-0.1,0-0.4,0.1-0.4,0.1c0,0.5-0.6,0.8-0.3,1.3c0.2,0.3,0.5,0.6,0.9,0.5c0.3-0.1,0.6,0,1,0c10.1,0,20.2,0,30.3,0c0.5,0,1,0,1.6,0
	C701.4,40.1,701.4,40.5,701.4,41.2z M667.2,34.8c1.3-0.5,2.4-1.7,4-1.2c0,0.3,0,0.5,0,0.7c0,0.9-0.1,1-1.1,1.1
	c-0.4,0-0.6,0.2-0.8,0.7c2.9,0,5.8,0,8.8,0c0.3,0,0.4-0.1,0.5-0.4c0.1-0.3,0.3-0.6,0.3-1c0.1-1.2,0.5-2.4,0.8-3.7
	c0.2-1.3,0.3-3.3-0.3-4.5c-0.6-1.3-1.4-2.4-2.7-3.2c-1-0.6-2.1-1-3.3-0.9c-0.6,0-1.2,0-1.7,0c-0.2,0-0.5,0-0.7,0.1
	c-1.1,0.6-2.1,1.1-3,2c-1.4,1.6-2.1,3.4-1.7,5.5C666.4,31.5,666.7,33.1,667.2,34.8z M677.2,60.1c0.2,0.1,0.3,0.1,0.4,0.1
	c7.7,0,15.4,0,23.1,0c1.1,0,2-0.8,2.4-1.8c0.5-1.1,0.3-2.2,0.3-3.3c-8.2,0-16.4,0-24.5,0C679,57.1,677.8,58.5,677.2,60.1z
	 M679.1,53.2c8.1,0,16.2,0,24.2,0c0-1.7,0-3.4,0-5.1c-5.6,0-11.1,0-16.6,0c-2.6,0-5.2,0-7.8,0c-0.8,0-0.9,0.1-0.6,0.9
	C678.8,50.4,679.3,51.7,679.1,53.2z M686,32.1c0.2-0.2,0.3-0.3,0.5-0.5c0.6-0.6,0.6-0.5,1.5-0.1c0.3,0.1,0.4,0.2,0.6,0.4
	c0.2,0.1,0.3,0.3,0.5,0.3c0.3-0.1,0.2-0.4,0.2-0.7c0.1-0.5,0-1.1-0.5-1.2c-0.7-0.1-1.2-0.6-1.9-0.4c-0.7,0.2-1.4,0.2-2,0.5
	c-2.1,1.2-3.2,3.2-3.9,5.5c6.7,0,13.2,0,19.8,0c0-0.4,0.1-0.8,0-1c-0.7-1.1-1.1-2.3-2-3.3c-0.8-0.8-1.7-1.5-2.8-1.6
	c-1.6-0.2-3.1,0-4.6,0c-0.2,0.6,0.1,1.1-0.2,1.5c-0.2,0.2-0.4,0.4-0.1,0.7c0.3,0.2,0.5-0.2,0.7-0.2c0.4,0,0.5-0.3,0.8-0.5
	c0.4-0.3,0.7-0.4,1.1,0c0.2,0.3,0.6,0.4,0.6,0.7c-0.6,0.9-1.4,1.4-2.2,1.7c-0.7,0.2-1.5,0.6-2,0.4C688.6,33.9,687.1,33.6,686,32.1z
	 M661.2,39.5c-0.5,0-1,0-1.4,0c-0.5,0-0.5,0.5-0.4,0.6c0.5,0.7,0.8,1.5,1.6,1.9c1.3,0.7,2.7,1.1,4.2,0.9c0.5,0,0.8-0.4,0.5-0.8
	c-0.6-1-1.3-1.9-2.3-2.4c-0.3-0.2-0.6-0.4-1-0.3C662,39.5,661.6,39.5,661.2,39.5z M694.1,28c0.7-0.1,1.5,0.2,2.3-0.3
	c0.8-0.6,1.6-1.2,2.1-2.2c0.1-0.2,0.2-0.3,0.2-0.6c0-0.2,0-0.4-0.3-0.4c-0.4,0-0.9,0-1.3,0c-1.8,0.2-3.5,0.6-4.5,2.4
	c-0.2,0.3-0.4,0.6-0.2,1c0.1,0.3,0.5,0.1,0.7,0.1C693.3,28,693.6,28,694.1,28z M677.2,20.8c0,0.1,0,0.2,0,0.3c0,0.2,0,0.4,0.2,0.5
	c0.2,0,0.3-0.1,0.4-0.3c0.9-1.3,1.6-2.7,2.7-3.8c0.3-0.4,0.2-1.1-0.1-1.4c-0.3-0.2-1-0.3-1.3,0c-0.2,0.2-0.6,0.4-0.6,0.7
	c0,1.1-0.8,1.9-1,2.9C677.5,20.1,677.1,20.4,677.2,20.8z M668.9,21.1c0-0.1,0-0.1,0-0.2c-0.7-1.1-0.9-2.5-1.4-3.7
	c-0.2-0.5-0.5-0.9-0.9-1.2c-0.3-0.2-1.1-0.2-1.1,0c0,0.4-0.7,0.6-0.3,1.1c1,1.2,1.8,2.5,2.6,3.9c0.2,0.3,0.5,0.4,0.8,0.4
	C668.8,21.3,668.9,21.2,668.9,21.1z M672.8,20.3c0.4-0.2,0.6-0.4,0.6-0.9c-0.1-0.8-0.3-1.7,0-2.4c0.5-1,0.1-2,0.3-2.9
	c0.1-0.5-0.3-0.7-0.7-0.8c-0.5-0.1-0.8,0.2-0.8,0.8c0,0.7,0,1.4,0.3,2.1c0.2,0.6,0.1,1.4,0,2.1C672.4,19,673,19.6,672.8,20.3z
	 M666,37.7c-0.3-0.2-0.7-0.1-1-0.1c-0.2,0-0.5,0-0.5,0.2c0,0.2-0.1,0.7,0.1,0.7c0.6,0,0.7,0.8,1.4,0.6C666,38.7,666,38.2,666,37.7z"
	/>
<path class="st0" d="M667,60.3c0,0.7,0,1.2,0,1.9c-2.3-0.2-4.3-0.9-6-2.4c-1.9-1.6-2.9-4.3-2.8-6.5c0.6,0,1.1,0,1.7,0
	c0.3,1.1,0.4,2.3,1,3.3c0.7,1.1,1.6,2,2.6,2.7C664.5,60,665.7,60.2,667,60.3z"/>
<path class="st0" d="M699.9,44.6c0-0.7,0-1.2,0-1.8c1.9-0.2,1.9-0.2,1.8,1.7c-0.3,0.2-0.6,0.1-0.9,0.1
	C700.6,44.6,700.3,44.6,699.9,44.6z"/>
<path class="st0" d="M677.5,34.4c-0.6,0-1,0-1.5,0c-0.4,0-0.8-0.3-0.7-0.8c0-0.4-0.1-0.7,0.1-1.1c0.2-0.3,1-0.6,1.6-0.4
	c0.3,0.1,0.6,0.4,0.6,0.8C677.5,33.4,677.5,33.8,677.5,34.4z"/>
<path class="st0" d="M675.7,25.5c0.6,0,1.2,0,1.8,0c0,0.6,0,1.2,0,1.8c-0.5,0-1.1,0-1.8,0C675.7,26.8,675.7,26.2,675.7,25.5z"/>
<path class="st0" d="M677.5,29c0,0.6,0,1.2,0,1.8c-0.6,0-1.2,0-1.8,0c0-0.5,0-1.1,0-1.8C676.2,29,676.8,29,677.5,29z"/>
<path class="st0" d="M701.8,56.8c0,0.6,0,1.2,0,1.8c-0.6,0-1.2,0-1.8,0c0-0.5,0-1.2,0-1.8C700.5,56.8,701.1,56.8,701.8,56.8z"/>
<path class="st0" d="M699.9,49.7c0.6,0,1.2,0,1.8,0c0,0.6,0,1.2,0,1.8c-0.5,0-1.1,0-1.8,0C699.9,51,699.9,50.5,699.9,49.7z"/>
</svg>
