<?xml version="1.0" encoding="utf-8"?>
<!-- Generator: Adobe Illustrator 21.0.0, SVG Export Plug-In . SVG Version: 6.00 Build 0)  -->
<svg version="1.1" id="Capa_1" xmlns="http://www.w3.org/2000/svg" xmlns:xlink="http://www.w3.org/1999/xlink" x="0px" y="0px"
	 viewBox="0 0 100 100" style="enable-background:new 0 0 100 100;" xml:space="preserve">
<style type="text/css">
	.st0{fill:#605393;}
</style>
<path class="st0" d="M46.9,42.8c0-0.2,0.1-0.3,0.1-0.4c-0.1-1.7,0.4-3.4,0.3-5.2c-0.1-1.7,0-3.5,0-5.2c0-0.5,0-1.1,0-1.5
	c0.2-0.3,0.5-0.3,0.8-0.2c0.3,0,0.5-0.1,0.8,0.2c-0.4,0.6-0.3,1.3-0.3,1.9c0,2.7,0,5.4,0,8.1c0,0.5,0,0.9-0.2,1.4
	c-0.2,0.4-0.1,0.8,0.6,1c-0.2-2.7,0.4-5.4,0.3-8.1c0-1,0-1.9,0-2.9c0-0.4-0.1-0.8,0.5-0.8c0.7,0,1.1,0.2,1,0.7
	c-0.1,1,0.2,2.1-0.2,3.1c-0.1,0.2-0.1,0.5-0.1,0.8c0,2.3,0,4.7,0,7c0.2,0.2,0.5,0.2,0.8,0.2c1,0.1,1.2,0.3,1.1,1.3
	c-0.5,3.2,0,6.4-0.3,9.6c-0.4,3.8-0.1,7.7-0.4,11.5c-0.2,2-0.1,4-0.3,6.1c-1.4,0.2-2.8,0.1-4.2,0.1c-1.5,0-3-0.1-4.5,0
	c-1.4,0.1-2.8-0.5-4.4-0.2c0.4-0.9,0.4-1.6,0.4-2.3c0-2.7-0.2-5.4,0.1-8.1c0.3-3.6,0-7.2,0.3-10.7c0.2-2.5,0.1-4.9,0.3-7.5
	c0.6,0,1.1-0.1,1.8-0.1c0-1,0-2,0.1-3c0-2.1,0.5-4.3,0.3-6.3c0.4-0.3,0.7-0.2,1-0.2c0.6-0.1,0.7,0.3,0.5,0.7
	c-0.6,1.9-0.1,3.8-0.3,5.7c0.5,0.6,0.3,1.4,0.5,2.1c0.2-4,0.1-8,0.2-12.1c0.5-0.3,1-0.1,1.6-0.2c-0.1,1.4,0.2,2.6-0.3,3.8
	c-0.1,0.2,0,0.4,0,0.6c0,2.7,0,5.4,0,8.1c0,0.3-0.1,0.5,0.3,0.8c0.1-1.2,0.3-2.3,0.4-3.4c0.1-3.3,0.1-6.6,0.1-9.9c0-0.3,0-0.6,0-0.9
	c0.5-0.2,1-0.1,1.5,0c-0.1,1.2,0.3,2.4-0.2,3.6c-0.1,0.2,0,0.4,0,0.6c0,3.2,0,6.5,0,9.7C46.7,42.5,46.6,42.7,46.9,42.8z M41,47.1
	c-0.1,0.7-0.3,1.4-0.4,2.1c-0.1,3.6,0,7.3-0.3,10.9c-0.3,2.9-0.1,5.8-0.1,8.7c0,0.3-0.1,0.7,0.2,1.1c3.1,0,6.2,0,9.4,0
	c0.1-1.4,0.2-2.7,0.3-3.9c0.3-3.6,0-7.3,0.3-10.9c0.2-1.9,0.1-3.9,0.1-5.9c0-0.7,0-1.4,0-2.1C47.3,47.1,44.2,47.1,41,47.1z M41,45.4
	c3.3-0.1,6.5,0.6,9.7,0.2c0.1-1.4,0.1-1.4-1.1-1.5c-2.2,0-4.3,0-6.5,0c-0.7,0-1.3,0.1-2-0.3C40.8,44.4,41,44.8,41,45.4z"/>
<path class="st0" d="M25.7,42.9c2.5,0,4.8,0,7.2,0c0.2,0,0.4,0,0.8,0c0,0.9,0,1.7,0,2.5c0,0.5-0.2,0.9-0.7,0.9
	c-0.6,0-0.6,0.4-0.5,0.7c0.4,1.1,0.8,2.2,2,2.9c1.2,0.7,1.8,2,1.8,3.5c0,5.6,0,11.1,0,16.7c0,0.2,0,0.3,0,0.5
	c-0.1,1.1-0.6,1.6-1.7,1.6c-2.7,0-5.4,0-8.1,0c-0.6,0-1.2,0-1.8,0c-1,0-1.4-0.5-1.5-1.4c0-0.8,0-1.6,0-2.4c0-4.9,0-9.9,0-14.8
	c0-1.7,0.6-2.8,2-3.7c1.1-0.7,1.5-1.7,1.6-2.9c0-0.2,0-0.5-0.2-0.6c-1.2,0-0.7-0.9-0.8-1.5C25.6,44.3,25.7,43.7,25.7,42.9z M34.8,67
	c0-3.8,0-7.4,0-11c-3.5,0-6.9,0-10.3,0c-0.2,2.6-0.2,9.9,0.1,11C28,67,31.4,67,34.8,67z M24.5,53.7c3.2,0,6.3,0,9.5,0
	c0.2,0,0.4,0,0.6-0.1c0.2-0.1,0.5-0.4,0.3-0.6c-0.3-0.5-0.4-1.3-1-1.6c-1.6-1-2.6-2.4-2.9-4.3c-0.7,0-1.2,0-1.8,0
	c-0.9,0-1.1,0.1-1.2,0.8c-0.3,1.5-1.1,2.5-2.4,3.3C24.7,51.7,24.3,52.5,24.5,53.7z M34.8,69.4c-3.5,0-7,0-10.4,0
	c0,1.4,0,1.5,1.2,1.5c2.7,0,5.3,0,8,0C34.8,70.9,34.8,70.8,34.8,69.4z M29.6,44.8c0.7,0,1.4,0,2.1,0c0.2,0,0.3-0.1,0.3-0.3
	c0-0.2-0.1-0.3-0.2-0.3c-1.4,0-2.8,0-4.3,0c-0.2,0-0.3,0.2-0.2,0.3c0,0.2,0.1,0.3,0.3,0.3C28.3,44.8,29,44.8,29.6,44.8z"/>
<path class="st0" d="M54.7,62.7c0-1.7,0-3.4,0-5.1c0-0.5-0.1-1,0.2-1.5c0.1-0.2,0.2-0.6,0-0.8c-0.5-0.8-0.3-1.8-0.3-2.6
	c0-2.5,0-5,0-7.5c0-0.5,0-0.9,0.3-1.4c0.4-0.6,0.8-1,1.6-1c0.6,0,1.2,0,1.8,0c0.7,0,0.9-0.5,0.7-1.1c0-0.1-0.2-0.2-0.2-0.3
	c-0.1-0.8-0.4-1.7,0.1-2.4c0.4-0.7,1.3-0.3,1.9-0.3c0.6-0.1,1.3,0,1.9,0c0.8,0,1.3,0.5,1.3,1.2c0,0.6,0,1.1-0.4,1.6
	c-0.5,0.6-0.1,1.2,0.7,1.3c0.5,0,1.1,0,1.6,0c1.2,0,2,0.7,2,1.9c0,3.1,0,6.3,0,9.4c0,0.4,0,0.8-0.3,1.2c-0.1,0.1-0.1,0.5,0,0.6
	c0.5,0.7,0.3,1.4,0.3,2.2c0,3.3,0,6.6,0,9.9c0,1.8-1.1,3.1-3,3.5c-2.5,0.5-5,0.5-7.5,0c-1.8-0.3-2.9-1.7-2.9-3.5
	C54.7,66.2,54.7,64.5,54.7,62.7z M55.9,54.6c0.2,0.1,0.3,0.2,0.5,0.3c0.2,0.1,0.4,0.2,0.5,0.3c0.5,0.4,0.4,0.7-0.2,1
	c-1,0.5-1.1,0.6-0.4,1.6c0.3,0.4,0.4,0.7-0.2,1c-0.5,0.2-0.5,0.7-0.1,0.9c0.9,0.5,0.5,0.8,0.1,1.3c-0.4,0.4-0.2,0.5,0.2,0.8
	c0.7,0.4,0.7,0.7,0,1.1c-0.3,0.2-0.5,0.3-0.5,0.7c0,1.6,0,3.2,0,4.8c0,0.8,0.4,1.5,1.3,1.8c0.6,0.2,1.1,0.5,1.8,0.5
	c1.6,0,3.2,0,4.8,0c1.9,0,2.7-0.8,3.2-2.5c0.1-0.3,0.1-0.6,0.1-0.9c0-1.1,0-2.2,0-3.3c0-0.4,0-0.8-0.6-0.9c-0.4-0.1-0.5-0.5-0.2-0.9
	c0.2-0.2,0.4-0.3,0.7-0.4c0.2-0.1,0.2-0.4,0-0.5c-0.1-0.1-0.2,0-0.3-0.1c-0.3-0.2-0.5-0.4-0.5-0.7c0-0.4,0.4-0.4,0.7-0.5
	c0.4-0.2,0.4-0.7,0-0.9c-0.8-0.4-0.8-0.4-0.3-1.1c0.6-0.8,0.6-1-0.2-1.5c-0.3-0.2-0.7-0.3-0.7-0.7c0.1-0.4,0.4-0.6,0.8-0.6
	c0.1,0,0.2-0.1,0.3-0.1c0.1-0.1,0.1-0.2,0.1-0.3c0-0.1-0.1-0.2-0.2-0.2c-0.2,0-0.4,0-0.6,0c-3.1,0-6.3,0-9.4,0
	C56.4,54.3,56.1,54.3,55.9,54.6z M67,53c0-2.4,0-4.6,0-6.9c-3.7,0-7.4,0-11,0c0,2.3,0,4.6,0,6.9C59.7,53,63.3,53,67,53z M60.5,41.9
	c-0.3,1.6-0.7,2.1-2.2,2.2c-0.5,0-1.1,0-1.6,0c-0.2,0-0.4,0.1-0.6,0.1c-0.1,0-0.1,0.2-0.1,0.3c0,0.1,0.1,0.2,0.1,0.2
	c0.3,0,0.5,0,0.8,0c3,0,5.9,0,8.9,0c0.2,0,0.4,0,0.6,0c0.2,0,0.3-0.1,0.3-0.3c0-0.2-0.1-0.3-0.2-0.3c-0.6,0-1.3,0-1.9-0.1
	c-0.9-0.1-1.9-0.1-2.1-1.2c-0.2-0.9-0.6-1.1-1.4-1C61,42,60.8,41.9,60.5,41.9z M61.3,40.7c0.5,0,0.9,0,1.4,0c0.2,0,0.3-0.1,0.3-0.3
	c0-0.2-0.1-0.3-0.2-0.3c-0.4,0-0.9-0.1-1.3,0c-0.5,0.1-1.3-0.3-1.3,0.4C60.2,41,60.9,40.6,61.3,40.7z"/>
<path class="st0" d="M76.7,56.3c0.4,0,0.6,0,0.8,0c0.4,0,0.9-0.2,1.2,0.3c0.3,0.6,0.9,0.8,0.9,1.6c0,1.8,0.3,3.6,0.5,5.4
	c0.1,1.4,0.3,2.8,0.4,4.2c0,0.7,0,1.3,0.2,2c0.4,1-0.4,1.9-1.6,2c-2.7,0-5.3,0-8,0c-1.1,0-1.6-0.5-1.5-1.5c0.1-1.7,0.2-3.3,0.6-5
	c0-0.1,0-0.2,0-0.3c-0.1-2.1,0.5-4.2,0.4-6.3c0-0.4-0.2-1,0.3-1.3c0.7-0.4,1-1.5,2.1-1.1c0.2,0.1,0.4,0.1,0.7-0.2
	c-0.1-1,0.4-2,0.4-3.2c0.7-0.2,1.3-0.1,2.1-0.1C76.2,54,76.7,55,76.7,56.3z M72,60.7c-0.3,3.3-0.6,6.5-1,9.9c2.7,0,5.4,0,8.2,0
	c0-1.4-0.2-2.6-0.3-3.9c-0.1-1.7-0.5-3.3-0.4-5c0-0.8-0.2-1-1-1C75.7,60.7,73.9,60.7,72,60.7z"/>
<path class="st0" d="M42.2,55.6c-0.4-2,1.6-3.4,3.2-3.4c0.8,0,1.9,0.2,2.5,1c0.5,0.7,1,1.4,1,2.4c-0.1,2-1.7,3.4-3.5,3.4
	C43.5,59.1,42.2,57.7,42.2,55.6z M47.4,55.7c0-1.1-0.9-2-2-2c-1.1,0.1-1.8,0.9-1.9,1.9c0,1,0.8,1.9,1.8,1.9
	C46.5,57.6,47.3,56.8,47.4,55.7z"/>
<path class="st0" d="M41.8,69c-0.3-0.6-0.1-1-0.1-1.5c1.4-0.4,2.7,0.2,3.9,0.2c0.3,0.2,0.2,0.5,0.2,0.7c0,0.4-0.1,0.6-0.5,0.6
	C44,69,42.9,69,41.8,69z"/>
<path class="st0" d="M46.5,67.7c0.7,0,1.3,0,1.9,0c0.3,0.4,0.1,0.9,0.2,1.4c-0.6,0.2-1.2,0.2-1.7,0C46.2,69,46.4,68.4,46.5,67.7z"/>
<path class="st0" d="M29.5,66.1c-0.3,0-0.5,0-0.8,0c-1.3,0.2-2-0.5-2.6-1.4c-1-1.4-0.9-3.6,0.1-5c0.5-0.7,1.3-1,2.1-1.3
	c0.3-0.1,0.6-0.1,0.6-0.5c0-0.5,0.5-0.8,0.7-1.2c0.1-0.4,0.5-0.7,1-0.5c0.6,0.3,1,1,0.8,1.4c-0.5,0.7-0.2,0.9,0.4,1.1
	c1.9,0.7,2.9,3.9,1.4,6c-0.6,0.8-1.4,1.4-2.5,1.3C30.3,66.1,29.9,66.1,29.5,66.1z M31.7,62.5c0-0.4,0-0.8-0.2-1.2
	c-0.4-0.7-0.4-0.8-1.4-0.6c-0.4,0.1-0.9,0.2-1.2-0.1c-0.5-0.4-0.8,0-1,0.3c-0.7,0.9-0.6,1.9-0.1,2.8c0.2,0.4,0.5,0.6,0.8,0.5
	c0.7-0.2,1.3-0.4,1.9,0c0.2,0.1,0.4,0,0.6-0.2C31.6,63.6,31.8,63.1,31.7,62.5z"/>
<path class="st0" d="M64.2,48.6c-0.5,0.6-0.3,1.2,0,1.9c0.2,0.4-0.2,0.9-0.5,0.8c-0.9-0.1-1.3,0.5-1.8,1c-0.3,0.3-0.6,0.3-0.9,0
	c-0.5-0.5-0.8-1.1-1.7-1c-0.4,0-0.7-0.7-0.5-1.2c0.2-0.5,0.2-0.9,0-1.4c-0.2-0.5,0.1-1.1,0.6-1.2c0.7-0.2,1.2-0.5,1.7-1
	c0.2-0.2,0.5-0.4,0.7-0.1c0.5,0.6,1.3,0.9,2,1.1C64,47.8,64.2,48.1,64.2,48.6z"/>
</svg>
