<?xml version="1.0" encoding="utf-8"?>
<!-- Generator: Adobe Illustrator 21.0.0, SVG Export Plug-In . SVG Version: 6.00 Build 0)  -->
<svg version="1.1" id="Capa_1" xmlns="http://www.w3.org/2000/svg" xmlns:xlink="http://www.w3.org/1999/xlink" x="0px" y="0px"
	 viewBox="0 0 100 100" style="enable-background:new 0 0 100 100;" xml:space="preserve">
<style type="text/css">
	.st0{fill:#605393;}
</style>
<path class="st0" d="M27.5,60.7c0-1.2,0-2.3,0-3.5c0-3.8,1.4-7,4-9.7c1.8-1.9,4-3.2,6.5-3.9c0.8-0.2,1.6-0.5,2.4-0.5
	c2-0.1,4.1-0.2,6,0c1.6,0.2,3.2,0.1,4.7,0.3c1.6,0.2,3.2,0.5,4.7,0.8c2.3,0.4,4.6,0.9,6.8,1.7c2.9,1,5.6,2.4,7.7,4.7
	c1.5,1.7,2.3,3.7,2.4,6c0,2,0,4,0,6.1c0,4.2-2.5,8.4-7.1,10.2c-1.3,0.5-2.7,0.7-4.1,0.7c-3.2-0.1-6.1,0.8-8.9,2
	c-2.1,0.9-4.2,1.8-6.4,2.3c-2.1,0.4-4.1,0.7-6.3,0.3c-1.8-0.3-3.4-0.8-5-1.7c-2.1-1.2-3.8-2.7-5.1-4.8c-1.1-1.8-1.9-3.7-2.2-5.8
	c-0.2-1.3-0.1-2.7-0.1-4C27.5,61.5,27.5,61.1,27.5,60.7z M29.7,65.6c0-0.1-0.1-0.2-0.1-0.3c-0.1-0.1-0.2,0-0.1,0.1
	C29.5,65.6,29.6,65.6,29.7,65.6c0,0.6,0.1,1.2,0.2,1.9c0.4,1.3,1,2.5,1.8,3.6c2.4,3.4,5.8,5.1,9.8,5.4c1.8,0.1,3.7-0.2,5.4-0.8
	c2.1-0.7,4.1-1.5,6.1-2.4c1.7-0.7,3.5-1.2,5.4-1.5c1.5-0.2,3.1-0.5,4.7-0.4c0.4,0,0.7-0.1,1.1-0.2c2-0.5,3.5-1.7,4.8-3.2
	c1.2-1.5,1.7-3.3,1.9-5.5c-0.7,0.7-1.1,1.3-1.6,1.8c-0.5,0.5-0.7,0.5-1.2,0c-0.5-0.5-0.5-0.8-0.1-1.4c0.1-0.2,0.3-0.3,0.4-0.5
	c1.9-2.2,2.8-4.8,2.1-7.7c-0.4-1.7-1.4-3.1-2.9-4.2c-2.5-1.9-5.4-3-8.3-3.8c-3.7-0.9-7.5-1.6-11.4-1.7c-0.3,0-0.5,0-0.8-0.1
	c-2.3-0.5-4.6-0.4-6.8-0.1c-2.8,0.3-5.2,1.6-7.3,3.7c-3.2,3.3-4.3,7.2-3.3,11.7c0.9,4.2,3.4,7.1,7.3,8.9c1.7,0.8,4,1,6,0.9
	c2.2-0.1,4.3-0.6,6.3-1.6c1.3-0.6,2.7-1.2,4-1.6c1.8-0.6,3.7-1.1,5.6-1.4c1.4-0.2,2.7-0.2,4.1-0.2c0.6,0,0.8,0.4,0.8,0.9
	c0,0.6-0.3,0.9-0.8,0.9c-0.4,0-0.9,0-1.3,0c-1.5-0.1-2.9,0.2-4.3,0.5c-2.4,0.5-4.5,1.4-6.7,2.4c-3.8,1.6-6.3,2.1-9.9,1.9
	c-2.5-0.1-4.7-1-6.7-2.3C32.3,68.7,31.1,67.1,29.7,65.6z"/>
<path class="st0" d="M28.5,30.8c-0.1-2.7,0.9-4.9,2.6-6.9c1.4-1.6,3.3-2.4,5.3-2.6c1.3-0.1,2.6,0.4,3.8,0.8c2.7,0.9,5.1,2.6,7.4,4.4
	c3,2.4,6.2,4.6,9.8,6.1c2.3,1,4.7,1.7,7,2.5c0.6,0.2,1.1,0.2,1.6-0.1c0.4-0.2,0.7-0.4,1.1-0.6c2.1-0.9,4.5,1,4.6,3
	c0,1-0.3,2.1-1.3,2.7c-0.6,0.4-0.7,0.8-0.5,1.4c0.5,1.4-0.1,2.4-1,3.4c-1.2,1.3-4.2,1.2-5.1-0.8c-0.5-1.3-1.4-1.8-2.7-2.2
	c-2.1-0.7-4.3-1.2-6.4-1.8c-0.7-0.2-1.4-0.2-2.2-0.3c-2.6-0.3-5.2-0.6-7.7-0.3c-1.4,0.1-2.7,0.2-4.1,0.3c-2.5,0-5-0.4-7.4-1.3
	c-2.5-0.9-3.9-2.7-4.6-5.2C28.5,32.5,28.5,31.7,28.5,30.8z M37,23.2c-1.3-0.1-2.5,0.1-3.5,0.9c-2.7,2.2-4,5-3.2,8.6
	c0.5,2.3,2,3.8,4.1,4.5c2.3,0.7,4.8,1.1,7.2,1c0.6,0,1.2-0.3,1.8-0.3c2.8,0.1,5.7-0.2,8.5,0.3c1.5,0.2,3,0.5,4.5,0.7
	c0.8,0.2,1.6,0.6,2.2,0c0.7-0.5,0.7-1.5,1-2.3c0-0.1,0-0.3,0-0.5c0.1-0.7-0.3-1-0.8-1.1c-2-0.7-3.9-1.6-5.8-2.7
	c-2.7-1.5-5.1-3.3-7.4-5.2c-1.4-1.1-2.8-2.2-4.5-2.8C39.8,23.8,38.5,22.9,37,23.2z M61.4,35.9c0,1.2-0.4,2.3-0.9,3.3
	c-0.3,0.6-0.3,0.6,0.5,0.9c0.6,0.2,1.2,0.4,1.8,0.6c1,0.3,1.8,0.9,2.2,1.9c0.1,0.3,0.3,0.6,0.4,0.8c0.5,0.7,1.2,1,2,0.7
	c0.9-0.4,1.4-1.2,1.2-2c-0.5-1.3-0.2-2.3,0.8-3.2c0.6-0.6,0.8-1.7,0.4-2.3c-0.4-0.6-1.1-0.8-2-0.7c-0.2,0-0.4,0.2-0.5,0.3
	c-1.1,0.7-2.3,0.9-3.6,0.4C63,36.3,62.2,36.2,61.4,35.9z"/>
<path class="st0" d="M42.9,48.4c-1.2-0.1-2.7,0-4.1,0.6c-3,1.1-4.8,3.2-5.6,6.3c-1.4,5.1,1.8,9.8,6.4,11.1c0.1,0,0.3,0.1,0.4,0.1
	c2.5,0.1,4.9,0.1,7.3-0.9c2.2-1,4.5-2,6.8-2.6c1.4-0.4,2.8-0.7,4.2-1c1.4-0.2,2.7-0.2,4.1-0.3c2-0.1,4.3-2,4.6-4.2
	c0.4-2-0.5-3.3-1.9-4.4c-2-1.4-4.2-2.3-6.5-2.9c-1.7-0.4-3.4-1-5.2-1c-0.4,0-0.7-0.3-1-0.3c-0.7-0.1-0.9-0.5-0.7-1.2
	c0.1-0.5,0.5-0.8,1.1-0.7c3.4,0.6,6.8,1.3,10.1,2.6c2,0.8,3.7,1.9,5.1,3.5c1,1.2,1.3,2.6,1.1,4.2c-0.3,1.8-1,3.3-2.4,4.5
	c-1.3,1-2.7,1.8-4.4,1.7c-4-0.1-7.7,1-11.3,2.5c-1.9,0.8-3.8,1.7-5.8,2.1c-1,0.2-1.9,0.1-2.8,0.2c-3.1,0.3-5.6-1-7.9-2.9
	c-1.5-1.3-2.5-3.1-3-5c-0.9-3.3-0.4-6.4,1.6-9.3c1.6-2.3,3.9-3.8,6.6-4.5c1.9-0.5,3.9-0.2,5.8-0.3c0.4,0,0.7,0.2,1,0.5
	c0.2,0.2,0.4,0.4,0.2,0.7c-0.2,0.3-0.2,0.8-0.7,0.8C45,48.4,44.1,48.4,42.9,48.4z"/>
<path class="st0" d="M42.9,50c2.4,0,4.2,1.5,4.5,3.9c0.1,0.9-0.2,1.9-0.9,2.7c-2,2.3-5.7,2.3-7.7-0.6c-1-1.5-0.6-3.1,0.4-4.2
	C40.2,50.7,41.4,49.9,42.9,50z M45.4,54.2c0.1-0.5,0-1-0.4-1.4c-1.2-1-2.8-1.4-4.1-0.1c-1,1-0.7,2.8,0.5,3.3c0.9,0.4,1.9,0.6,2.9,0
	C45,55.6,45.4,55.1,45.4,54.2z"/>
<path class="st0" d="M49.2,47.7c0,0.5-0.3,1-0.7,1c-0.5,0.1-1.1-0.5-1.2-1c0-0.4,0.3-0.8,0.9-0.9C48.8,46.8,49.2,47.1,49.2,47.7z"/>
<path class="st0" d="M65.7,65.2c0-0.4-0.1-0.9,0.5-0.9c0.7,0,1.1,0.3,1.1,0.8c0,0.5-0.3,0.8-0.9,0.8C65.9,66,65.8,65.9,65.7,65.2z"
	/>
<path class="st0" d="M36.2,24.5c0.3,0,0.4,0,0.5,0c0.3,0,0.7,0,0.7,0.4c0,0.4,0.1,0.7-0.3,1c-0.1,0.1-0.3,0.2-0.4,0.2
	c-1.6,0.1-2.3,1.2-3,2.4c-0.2,0.3-0.2,0.6-0.4,0.9c-0.2,0.3-0.4,0.7-0.8,0.5c-0.4-0.2-0.9-0.6-0.7-1.1c0.5-1.2,1-2.4,2.1-3.2
	C34.6,24.9,35.3,24.3,36.2,24.5z"/>
<path class="st0" d="M40.3,25.7c0,0.6-0.3,1-0.8,1c-0.4,0-0.8-0.3-0.8-0.8c0-0.5,0.3-0.8,0.9-0.8C40,25.1,40.3,25.2,40.3,25.7z"/>
</svg>
