<svg id="Capa_1" data-name="Capa 1" xmlns="http://www.w3.org/2000/svg" viewBox="0 0 624.21 263.99"><defs><style>.cls-1{fill:#fff;}.cls-2{fill:#775cab;}</style></defs><title>compra_en_casa_negativo</title><path class="cls-1" d="M631.16,350H197.57V323.36h5.34v21.3H631.16a20.82,20.82,0,0,0,20.8-20.8V112.15a20.82,20.82,0,0,0-20.8-20.8H149.82v24.44h-5.34V86H631.16a26.17,26.17,0,0,1,26.14,26.14V323.86A26.17,26.17,0,0,1,631.16,350Z" transform="translate(-33.09 -86.01)"/><path class="cls-1" d="M202.19,298.24a6.24,6.24,0,0,1-4.63-2.07c-2-2.18-4.18-4.69-6.38-7.17-4.12-4.66-8.39-9.47-10.36-11.45-3.22-3.22-2.24-9,.8-12.05a6.15,6.15,0,0,1,4-1.92,5.9,5.9,0,0,1,4.58,1.94l10.93,10.93c5.71-6.87,23.38-28.1,27.68-32.4a6.36,6.36,0,0,1,5.86-1.77,10.18,10.18,0,0,1,5.09,2.88c3.29,3.29,4.88,8.68,1.36,12.2-4.09,4.09-27.22,30.67-34.21,38.72a6.24,6.24,0,0,1-4.65,2.15Zm-16.3-30.66h-.07a2.27,2.27,0,0,0-1.38.75c-1.62,1.62-2.3,4.88-.8,6.39,2.06,2.06,6.17,6.7,10.53,11.62,2.19,2.47,4.4,5,6.36,7.14a2.2,2.2,0,0,0,1.65.74h0a2.19,2.19,0,0,0,1.66-.77c9-10.35,30.34-34.86,34.4-38.93,1.88-1.89.16-5-1.36-6.54a6.27,6.27,0,0,0-3-1.78,2.33,2.33,0,0,0-2.27.67c-4.35,4.35-23.81,27.75-27.66,32.4h0a3.68,3.68,0,0,1-2.66,1.32,3.72,3.72,0,0,1-2.79-1.09l-11.17-11.17A2.17,2.17,0,0,0,185.89,267.58Z" transform="translate(-33.09 -86.01)"/><path class="cls-2" d="M229.36,214.72V192l9.21,6a10.9,10.9,0,1,0,11.86-18.29L148.6,113.56a11.3,11.3,0,0,0-12.55.11L37.26,180.75a9.54,9.54,0,0,0-2.88,12.66l2,3.47a9.58,9.58,0,0,0,6.2,4.54,10.74,10.74,0,0,0,2.06.21,9.39,9.39,0,0,0,5.47-1.74l6.65-4.67V256a2.67,2.67,0,1,0,5.34,0v-64.5l76.46-53.79a6,6,0,0,1,6.73-.13l78.73,51v24.57a56.71,56.71,0,0,0-14-1.76A57.35,57.35,0,0,0,157,290.73H139.49v-77a5.43,5.43,0,0,0-5.42-5.42H83.65a5.43,5.43,0,0,0-5.42,5.42v77H62.1V272.94a2.67,2.67,0,1,0-5.34,0v17.79H49.2a9.44,9.44,0,0,0-9.43,9.43v.72A8.17,8.17,0,0,0,47.94,309h121.3a57.34,57.34,0,1,0,60.12-94.33ZM148.2,133.05a11.32,11.32,0,0,0-12.71.27L47,195.52a4,4,0,0,1-3.31.67,4.13,4.13,0,0,1-2.72-2l-2-3.47a4.19,4.19,0,0,1,1.26-5.58L139,118.1a6.1,6.1,0,0,1,3.39-1,6,6,0,0,1,3.26,1l101.83,66.1a5.66,5.66,0,0,1,2.46,3.63,5.59,5.59,0,0,1-8.52,5.72ZM83.65,213.68l50.5.08v77H83.57Zm-35.71,90a2.83,2.83,0,0,1-2.83-2.83v-.72a4.1,4.1,0,0,1,4.09-4.09H159.28v-.59a54.1,54.1,0,0,0,5.31,8.23Zm162,17a52,52,0,1,1,52-52A52.06,52.06,0,0,1,210,320.69Z" transform="translate(-33.09 -86.01)"/><path class="cls-2" d="M331.63,171.35q7,4,11.16,13.05a13.21,13.21,0,0,1-5.09,3.6,20.24,20.24,0,0,1-7,1.53,43,43,0,0,0-3.06-6.3,15.39,15.39,0,0,0-5.17-5.31,14.82,14.82,0,0,0-8.06-2.07,28.3,28.3,0,0,1-9.9-1.85,22.06,22.06,0,0,1-7.7-5,21.3,21.3,0,0,1-4.91-7.83,29.62,29.62,0,0,1-1.71-10.31,55.31,55.31,0,0,1,.76-8.6,36.16,36.16,0,0,1,2.93-9.5,32.81,32.81,0,0,1,5.4-8.28,29.58,29.58,0,0,1,7.33-5.94,28,28,0,0,1,8.28-3.2,37.67,37.67,0,0,1,7.43-.85,29.1,29.1,0,0,1,10.13,1.71,21.92,21.92,0,0,1,7.92,5,21.58,21.58,0,0,1,5,7.92,29.24,29.24,0,0,1,1.76,10.35,42.1,42.1,0,0,1-4.14,19.08A30.76,30.76,0,0,1,331.63,171.35Zm-26.73-22q0,6.39,3,10.08t8.69,3.69a13.64,13.64,0,0,0,8.15-2.48,17.07,17.07,0,0,0,5.58-7.43A31.27,31.27,0,0,0,332.45,141q0-6.57-3-10.17t-8.73-3.6a13.34,13.34,0,0,0-11.66,6.12Q304.9,139.49,304.9,149.39Z" transform="translate(-33.09 -86.01)"/><path class="cls-2" d="M389.78,131.38a39.9,39.9,0,0,1,6.57.54l-7,40a40,40,0,0,1-8.6,2.66,57.3,57.3,0,0,1-12.11,1.21q-17.29,0-17.28-13.86a27.58,27.58,0,0,1,.54-5.22l4.32-24.75a45,45,0,0,1,6.84-.54,40.47,40.47,0,0,1,6.66.54l-4.14,23.49a17.69,17.69,0,0,0-.36,3.51,4.79,4.79,0,0,0,1.49,3.87q1.48,1.26,4.91,1.26a24.36,24.36,0,0,0,5.85-.81l5.49-31.33A45,45,0,0,1,389.78,131.38Z" transform="translate(-33.09 -86.01)"/><path class="cls-2" d="M404.73,174.77a42.65,42.65,0,0,1-6.66-.54l7.56-42.76a43.79,43.79,0,0,1,6.84-.54,41,41,0,0,1,6.57.54l-7.56,42.76A41,41,0,0,1,404.73,174.77Zm9.81-48.7a8.15,8.15,0,0,1-8-8,8.79,8.79,0,0,1,.81-3.42,7.72,7.72,0,0,1,2.84-3.29,7.55,7.55,0,0,1,4.37-1.4,8.81,8.81,0,0,1,3.42.81,7.44,7.44,0,0,1,3.24,2.84,7.87,7.87,0,0,1,1.35,4.46,8.15,8.15,0,0,1-8,8Z" transform="translate(-33.09 -86.01)"/><path class="cls-2" d="M433.54,175.49q-5.49,0-8.33-2.43a8.32,8.32,0,0,1-2.83-6.66,25.31,25.31,0,0,1,.54-5.31l8.1-45.82a38.26,38.26,0,0,1,6.93-.54,30.31,30.31,0,0,1,6.48.54l-7.92,44.65-.18,1.35a1.87,1.87,0,0,0,.59,1.44,2.1,2.1,0,0,0,1.49.54,3.3,3.3,0,0,0,2.25-1q4.06,3.42,3.87,9.9a16.14,16.14,0,0,1-4.77,2.39A19.8,19.8,0,0,1,433.54,175.49Z" transform="translate(-33.09 -86.01)"/><path class="cls-2" d="M503.29,130q8.46,0,12.56,3.65a12.65,12.65,0,0,1,4.1,9.95,20.37,20.37,0,0,1-.36,4l-4.68,26.64a45,45,0,0,1-6.84.54,42.7,42.7,0,0,1-6.66-.54l4.23-23.85.27-2.43q0-5.85-5.94-5.85a13.65,13.65,0,0,0-6.48,1.62,19.53,19.53,0,0,1-.36,3.87l-4.68,26.64a45,45,0,0,1-6.84.54,40.44,40.44,0,0,1-6.66-.54l4.23-23.76a12.82,12.82,0,0,0,.18-2.43q0-5.85-6-5.85a18.35,18.35,0,0,0-6.12.9l-5.4,31.15a42.1,42.1,0,0,1-6.75.54,40.44,40.44,0,0,1-6.66-.54l7-39.7a42.48,42.48,0,0,1,9-3.1,51.38,51.38,0,0,1,12.2-1.4q8.28,0,12.51,3.42A31.26,31.26,0,0,1,503.29,130Z" transform="translate(-33.09 -86.01)"/><path class="cls-2" d="M559.11,161.18a9.44,9.44,0,0,1,3.6,3.6,10.57,10.57,0,0,1,1.35,4.86,24.84,24.84,0,0,1-8,4.41,31.29,31.29,0,0,1-10.44,1.71q-9.54,0-14.89-4.82t-5.36-14.18a30.44,30.44,0,0,1,1.8-10.58,25.43,25.43,0,0,1,5-8.46,22.34,22.34,0,0,1,7.7-5.49,23.82,23.82,0,0,1,9.59-1.94q8.19,0,12.83,3.69a11.82,11.82,0,0,1,4.64,9.72,14,14,0,0,1-1.08,5.4,11.88,11.88,0,0,1-3.87,4.77,16.09,16.09,0,0,1-6.71,3,35.39,35.39,0,0,1-7.15.81,36,36,0,0,1-9.27-1.17q0,4.77,2.21,6.89t6.89,2.11Q553.43,165.5,559.11,161.18ZM548.57,140.3a7.66,7.66,0,0,0-5.63,2.3,13.16,13.16,0,0,0-3.29,6.26,37.89,37.89,0,0,0,7.56,1,7.89,7.89,0,0,0,4.91-1.35,4.5,4.5,0,0,0,1.75-3.78,4,4,0,0,0-1.44-3.15A5.68,5.68,0,0,0,548.57,140.3Z" transform="translate(-33.09 -86.01)"/><path class="cls-2" d="M585.3,175.76a38.2,38.2,0,0,1-6.62-.63,25.19,25.19,0,0,1-6.48-2,15.83,15.83,0,0,1-4.37-2.83,17,17,0,0,1,2.65-5.31,13.41,13.41,0,0,1,3.92-3.6,20.79,20.79,0,0,0,12.6,4.32,8.3,8.3,0,0,0,4.55-1,3,3,0,0,0,1.49-2.61,2.79,2.79,0,0,0-1-2q-1-.95-5.22-2.2a47.38,47.38,0,0,1-5.85-2,19.27,19.27,0,0,1-2.79-1.58,9.66,9.66,0,0,1-2.07-1.93,12.07,12.07,0,0,1-1.62-2.84,10.91,10.91,0,0,1-.72-4.23,12.78,12.78,0,0,1,2.52-7.52,17.47,17.47,0,0,1,6.93-5.36,25.48,25.48,0,0,1,10.71-2.07,37.46,37.46,0,0,1,10.31,1.22,19.94,19.94,0,0,1,6.44,2.92,19.35,19.35,0,0,1-2.52,5.45,15.24,15.24,0,0,1-3.6,3.83,18.46,18.46,0,0,0-5.31-2.29,23.72,23.72,0,0,0-6.48-.95q-5.32,0-5.31,3.15a2.17,2.17,0,0,0,1,1.76,13.89,13.89,0,0,0,4,1.62q2.93.86,4.19,1.26a25.44,25.44,0,0,1,2.75,1.08,19.08,19.08,0,0,1,2.52,1.35,11.59,11.59,0,0,1,2,1.71,11.43,11.43,0,0,1,1.89,2.88,10.57,10.57,0,0,1,.9,4.64,15.51,15.51,0,0,1-.77,4.86,13.65,13.65,0,0,1-2.25,4.23A14.18,14.18,0,0,1,600,172.3a23.58,23.58,0,0,1-5.85,2.43A32.39,32.39,0,0,1,585.3,175.76Z" transform="translate(-33.09 -86.01)"/><path class="cls-1" d="M313.39,244.11q-9.51,0-15.1-5.29t-5.58-14.41a35.31,35.31,0,0,1,2-12,27.69,27.69,0,0,1,5.53-9.42,24.48,24.48,0,0,1,8.5-6,26.45,26.45,0,0,1,10.58-2.14,24.73,24.73,0,0,1,9,1.55,16.77,16.77,0,0,1,6.11,3.79,15.93,15.93,0,0,1-3.11,5.48,17.37,17.37,0,0,1-4.85,4.13q-2.72-2.72-7.76-2.72a10.46,10.46,0,0,0-5.2,1.46,11.06,11.06,0,0,0-4.32,5.29,19.79,19.79,0,0,0-1.75,8.3,11.11,11.11,0,0,0,2.19,7.18A7.68,7.68,0,0,0,316,232a11.69,11.69,0,0,0,3.88-.68,12.14,12.14,0,0,0,4.17-2.81,10.9,10.9,0,0,1,4.42,3.69,12.14,12.14,0,0,1,2.09,5.53A24.49,24.49,0,0,1,313.39,244.11Z" transform="translate(-33.09 -86.01)"/><path class="cls-1" d="M357.27,244.11q-10,0-15.77-5.49t-5.78-14.9a35.87,35.87,0,0,1,1.89-11.84,27,27,0,0,1,5.34-9.27,23.07,23.07,0,0,1,8.25-5.87,26.7,26.7,0,0,1,10.53-2q10.1,0,15.78,5.53t5.68,15a35.93,35.93,0,0,1-1.85,11.7,26.36,26.36,0,0,1-5.24,9.17,23.26,23.26,0,0,1-8.25,5.87A26.48,26.48,0,0,1,357.27,244.11Zm1.07-12a8.91,8.91,0,0,0,4.8-1.5,10.94,10.94,0,0,0,3.93-5.44,23.21,23.21,0,0,0,1.55-8.59,11.41,11.41,0,0,0-2-7.14,7,7,0,0,0-5.87-2.57,8.22,8.22,0,0,0-3.44.73,10.3,10.3,0,0,0-3,2.14,13.68,13.68,0,0,0-2.67,4.61,22.44,22.44,0,0,0-1.36,7.76,11.85,11.85,0,0,0,2,7.28A7.05,7.05,0,0,0,358.34,232.08Z" transform="translate(-33.09 -86.01)"/><path class="cls-1" d="M446,194.8q9.13,0,13.54,3.93T464,209.46a22,22,0,0,1-.39,4.27l-5.05,28.73a48.5,48.5,0,0,1-7.38.58,46,46,0,0,1-7.18-.58l4.56-25.73.29-2.62q0-6.31-6.41-6.31a14.72,14.72,0,0,0-7,1.75,21.06,21.06,0,0,1-.39,4.18l-5,28.73a48.5,48.5,0,0,1-7.38.58,43.61,43.61,0,0,1-7.18-.58L420,216.84a13.82,13.82,0,0,0,.19-2.62q0-6.31-6.5-6.31a19.79,19.79,0,0,0-6.6,1l-5.82,33.59A45.4,45.4,0,0,1,394,243a43.61,43.61,0,0,1-7.18-.58l7.57-42.81a45.82,45.82,0,0,1,9.76-3.35,55.41,55.41,0,0,1,13.16-1.51q8.93,0,13.49,3.69A33.71,33.71,0,0,1,446,194.8Z" transform="translate(-33.09 -86.01)"/><path class="cls-1" d="M495.9,195.09a29.55,29.55,0,0,1,9,1.31,20.23,20.23,0,0,1,7.09,3.84,16.53,16.53,0,0,1,4.56,6.41,22.69,22.69,0,0,1,1.6,8.74,34.12,34.12,0,0,1-1.94,11.75,25.3,25.3,0,0,1-5.63,9.12,25,25,0,0,1-8.83,5.83,30.6,30.6,0,0,1-11.36,2,33.4,33.4,0,0,1-8.06-.87l-3,17.09a45.13,45.13,0,0,1-7.28.58,43.42,43.42,0,0,1-7.19-.58l10.68-60.67A45,45,0,0,1,495.9,195.09Zm-5,36.5a11.35,11.35,0,0,0,7-2.23,11.7,11.7,0,0,0,4.13-5.58,19.13,19.13,0,0,0,1.16-6.26,10.16,10.16,0,0,0-2.43-7.18q-2.42-2.62-7-2.62a20.81,20.81,0,0,0-5.53.78l-3.88,22.33A21.37,21.37,0,0,0,490.94,231.59Z" transform="translate(-33.09 -86.01)"/><path class="cls-1" d="M547.25,194.7q7.76,0,11.45,1.84a23.57,23.57,0,0,1-1.75,6.51,19.26,19.26,0,0,1-3.49,5.53,17.13,17.13,0,0,0-5-.78,13.48,13.48,0,0,0-6.6,1.46L536,242.46a48.5,48.5,0,0,1-7.38.58,43,43,0,0,1-7.09-.58L529,199.65a34,34,0,0,1,7.86-3.4A34.55,34.55,0,0,1,547.25,194.7Z" transform="translate(-33.09 -86.01)"/><path class="cls-1" d="M586.57,195.09q11.74,0,19.12,4.56L598,243a28.83,28.83,0,0,1-10,0l-.58-5a20.2,20.2,0,0,1-14.66,6.11q-7.67,0-12.13-5t-4.46-13.59a32.89,32.89,0,0,1,2.28-12.38,27.91,27.91,0,0,1,6.41-9.71,28.71,28.71,0,0,1,9.71-6.21A32.62,32.62,0,0,1,586.57,195.09Zm-8.74,36.7q5.54,0,8.64-5.63l3.11-17.86a18.08,18.08,0,0,0-5.34-.78,11.57,11.57,0,0,0-7.09,2.23,14.23,14.23,0,0,0-4.56,5.68,19.11,19.11,0,0,0-1.55,7.91,9.43,9.43,0,0,0,1.85,6.26A6.13,6.13,0,0,0,577.83,231.79Z" transform="translate(-33.09 -86.01)"/><path class="cls-1" d="M325,301.37a10.12,10.12,0,0,1,3.86,3.86,11.33,11.33,0,0,1,1.45,5.21,26.62,26.62,0,0,1-8.59,4.73A33.53,33.53,0,0,1,310.5,317q-10.22,0-16-5.16t-5.74-15.19a32.62,32.62,0,0,1,1.93-11.33,27.25,27.25,0,0,1,5.4-9.07,23.94,23.94,0,0,1,8.25-5.88,25.53,25.53,0,0,1,10.27-2.07q8.78,0,13.74,4a12.67,12.67,0,0,1,5,10.42,15,15,0,0,1-1.16,5.79,12.73,12.73,0,0,1-4.15,5.11,17.24,17.24,0,0,1-7.19,3.18,37.93,37.93,0,0,1-7.67.87,38.53,38.53,0,0,1-9.94-1.26q0,5.11,2.36,7.38T313,306Q318.89,306,325,301.37ZM313.69,279a8.21,8.21,0,0,0-6,2.46,14.1,14.1,0,0,0-3.52,6.7,40.6,40.6,0,0,0,8.11,1.06,8.46,8.46,0,0,0,5.26-1.45,4.82,4.82,0,0,0,1.88-4.05,4.31,4.31,0,0,0-1.54-3.38A6.09,6.09,0,0,0,313.69,279Z" transform="translate(-33.09 -86.01)"/><path class="cls-1" d="M365.58,268q9.84,0,14.61,4.05T385,283.14a23.9,23.9,0,0,1-.39,4.44l-4.92,27.78a48.19,48.19,0,0,1-7.33.58,42.75,42.75,0,0,1-7-.58l4.44-25.46a12.84,12.84,0,0,0,.29-2.7q0-6.17-6.65-6.17a19.28,19.28,0,0,0-6.95,1.06l-5.79,33.28a48.19,48.19,0,0,1-7.33.58,42.75,42.75,0,0,1-7-.58l7.43-42.54a44.79,44.79,0,0,1,9.59-3.42A51.05,51.05,0,0,1,365.58,268Z" transform="translate(-33.09 -86.01)"/><path class="cls-2" d="M430.3,317q-9.45,0-15-5.26t-5.54-14.32a35.08,35.08,0,0,1,2-12,27.51,27.51,0,0,1,5.5-9.36,24.33,24.33,0,0,1,8.44-6A26.28,26.28,0,0,1,436.19,268a24.57,24.57,0,0,1,9,1.54,16.67,16.67,0,0,1,6.07,3.76,15.83,15.83,0,0,1-3.09,5.45,17.26,17.26,0,0,1-4.82,4.1q-2.7-2.7-7.72-2.7a10.39,10.39,0,0,0-5.16,1.45,11,11,0,0,0-4.29,5.26,19.66,19.66,0,0,0-1.74,8.25,11,11,0,0,0,2.17,7.14,7.63,7.63,0,0,0,6.32,2.7,11.61,11.61,0,0,0,3.86-.68,12.06,12.06,0,0,0,4.14-2.8,10.84,10.84,0,0,1,4.39,3.66,12.06,12.06,0,0,1,2.07,5.5A24.33,24.33,0,0,1,430.3,317Z" transform="translate(-33.09 -86.01)"/><path class="cls-2" d="M482.49,268.28q11.67,0,19,4.53l-7.62,43.12a28.65,28.65,0,0,1-9.94,0l-.58-5A20.08,20.08,0,0,1,468.79,317q-7.62,0-12.06-4.92t-4.44-13.5a32.68,32.68,0,0,1,2.27-12.3,27.73,27.73,0,0,1,6.37-9.65,28.53,28.53,0,0,1,9.64-6.17A32.41,32.41,0,0,1,482.49,268.28Zm-8.68,36.46q5.5,0,8.59-5.59l3.09-17.75a18,18,0,0,0-5.3-.77,11.5,11.5,0,0,0-7,2.22,14.14,14.14,0,0,0-4.53,5.64,19,19,0,0,0-1.54,7.86,9.37,9.37,0,0,0,1.83,6.22A6.09,6.09,0,0,0,473.81,304.74Z" transform="translate(-33.09 -86.01)"/><path class="cls-2" d="M520.5,317a40.93,40.93,0,0,1-7.09-.68,27,27,0,0,1-6.94-2.17,17,17,0,0,1-4.68-3,18.2,18.2,0,0,1,2.84-5.69,14.36,14.36,0,0,1,4.2-3.86,22.28,22.28,0,0,0,13.5,4.63,8.89,8.89,0,0,0,4.87-1.06,3.22,3.22,0,0,0,1.59-2.8,3,3,0,0,0-1.06-2.17q-1.06-1-5.6-2.36a50.77,50.77,0,0,1-6.27-2.17,20.64,20.64,0,0,1-3-1.69,10.35,10.35,0,0,1-2.22-2.07,12.93,12.93,0,0,1-1.74-3,11.69,11.69,0,0,1-.77-4.53,13.7,13.7,0,0,1,2.7-8.05,18.72,18.72,0,0,1,7.43-5.74,27.3,27.3,0,0,1,11.48-2.22,40.14,40.14,0,0,1,11,1.3,21.37,21.37,0,0,1,6.9,3.13,20.73,20.73,0,0,1-2.7,5.84,16.34,16.34,0,0,1-3.86,4.1,19.78,19.78,0,0,0-5.69-2.46,25.42,25.42,0,0,0-6.94-1q-5.7,0-5.69,3.38a2.33,2.33,0,0,0,1.11,1.88,14.89,14.89,0,0,0,4.24,1.74q3.14.92,4.49,1.35a27.26,27.26,0,0,1,2.94,1.16,20.44,20.44,0,0,1,2.7,1.45,12.42,12.42,0,0,1,2.17,1.83,12.25,12.25,0,0,1,2,3.09,11.33,11.33,0,0,1,1,5,16.62,16.62,0,0,1-.82,5.21,14.63,14.63,0,0,1-2.41,4.53,15.19,15.19,0,0,1-4,3.52,25.27,25.27,0,0,1-6.27,2.61A34.71,34.71,0,0,1,520.5,317Z" transform="translate(-33.09 -86.01)"/><path class="cls-2" d="M580.2,268.28q11.67,0,19,4.53l-7.62,43.12a28.65,28.65,0,0,1-9.94,0l-.58-5A20.08,20.08,0,0,1,566.5,317q-7.62,0-12.06-4.92T550,298.57a32.68,32.68,0,0,1,2.27-12.3,27.73,27.73,0,0,1,6.37-9.65,28.53,28.53,0,0,1,9.64-6.17A32.41,32.41,0,0,1,580.2,268.28Zm-8.68,36.46q5.5,0,8.59-5.59l3.09-17.75a18,18,0,0,0-5.3-.77,11.5,11.5,0,0,0-7,2.22,14.14,14.14,0,0,0-4.53,5.64,19,19,0,0,0-1.54,7.86,9.37,9.37,0,0,0,1.83,6.22A6.09,6.09,0,0,0,571.52,304.74Z" transform="translate(-33.09 -86.01)"/></svg>