<?xml version="1.0" encoding="utf-8"?>
<!-- Generator: Adobe Illustrator 21.0.0, SVG Export Plug-In . SVG Version: 6.00 Build 0)  -->
<svg version="1.1" id="Capa_1" xmlns="http://www.w3.org/2000/svg" xmlns:xlink="http://www.w3.org/1999/xlink" x="0px" y="0px"
	 viewBox="0 0 754 382" style="enable-background:new 0 0 754 382;" xml:space="preserve">
<style type="text/css">
	.st0{fill:#111111;}
	.st1{fill:#775CAB;}
</style>
<g>
	<g>
		<path class="st0" d="M649.1,318.8H236v-25.4h5.1v20.3h408c10.9,0,19.8-8.9,19.8-19.8V92.2c0-10.9-8.9-19.8-19.8-19.8H190.5v23.3
			h-5.1V67.2h463.6c13.7,0,24.9,11.2,24.9,24.9v201.7C674,307.6,662.8,318.8,649.1,318.8z"/>
	</g>
	<g>
		<path class="st0" d="M240.4,269.4c-1.7,0-3.3-0.7-4.4-2c-1.9-2.1-4-4.5-6.1-6.8c-3.9-4.4-8-9-9.9-10.9c-3.1-3.1-2.1-8.6,0.8-11.5
			c1.1-1.1,2.4-1.7,3.8-1.8c1.1-0.1,2.7,0.2,4.4,1.8l10.4,10.4c5.4-6.5,22.3-26.8,26.4-30.9c1.5-1.5,3.5-2.1,5.6-1.7
			c1.7,0.3,3.4,1.3,4.9,2.7c3.1,3.1,4.7,8.3,1.3,11.6c-3.9,3.9-25.9,29.2-32.6,36.9C243.8,268.7,242.2,269.4,240.4,269.4
			C240.5,269.4,240.4,269.4,240.4,269.4z M224.9,240.2C224.9,240.2,224.9,240.2,224.9,240.2c-0.5,0-0.9,0.3-1.4,0.7
			c-1.5,1.5-2.2,4.7-0.8,6.1c2,2,5.9,6.4,10,11.1c2.1,2.4,4.2,4.7,6.1,6.8c0.4,0.5,1,0.7,1.6,0.7c0,0,0,0,0,0c0.6,0,1.2-0.3,1.6-0.7
			c8.6-9.9,28.9-33.2,32.8-37.1c1.8-1.8,0.2-4.8-1.3-6.2c-0.9-0.9-2-1.5-2.9-1.7c-0.9-0.2-1.6,0-2.2,0.6
			c-4.1,4.1-22.7,26.4-26.4,30.9l0,0c-0.6,0.8-1.6,1.2-2.5,1.3c-1,0-2-0.3-2.7-1L226.3,241C225.8,240.5,225.3,240.2,224.9,240.2z"/>
	</g>
	<g>
		<path class="st1" d="M266.3,189.9v-21.7l8.8,5.7c4.7,3.1,10.9,1.9,14.1-2.7c1.6-2.3,2.2-5.2,1.7-8c-0.5-2.8-2.2-5.2-4.6-6.7
			l-97-63c-3.6-2.4-8.3-2.3-12,0.1l-94.1,63.9c-3.9,2.6-5.1,8-2.7,12.1l1.9,3.3c1.3,2.2,3.4,3.8,5.9,4.3c0.7,0.1,1.3,0.2,2,0.2
			c1.9,0,3.7-0.6,5.2-1.7l6.3-4.5v57.9c0,1.4,1.1,2.5,2.5,2.5c1.4,0,2.5-1.1,2.5-2.5v-61.4l72.8-51.2c1.9-1.3,4.4-1.4,6.4-0.1
			l75,48.6v23.4c-4.3-1.1-8.8-1.7-13.4-1.7c-30.1,0-54.6,24.5-54.6,54.7c0,7.4,1.5,14.5,4.2,21h-16.7V189c0-2.8-2.3-5.2-5.2-5.2h-48
			c-2.8,0-5.2,2.3-5.2,5.2v73.3H107v-16.9c0-1.4-1.1-2.5-2.5-2.5c-1.4,0-2.5,1.1-2.5,2.5v16.9h-7.2c-4.9,0-9,4-9,9v0.7
			c0,4.3,3.5,7.8,7.8,7.8H209c9.9,10,23.7,16.2,38.8,16.2c30.1,0,54.6-24.5,54.6-54.6C302.5,217.7,287.4,197.5,266.3,189.9z
			 M189,112.1c-3.7-2.4-8.5-2.3-12.1,0.3l-84.3,59.3c-0.9,0.7-2,0.9-3.2,0.6c-1.1-0.2-2-0.9-2.6-1.9L85,167
			c-1.1-1.8-0.5-4.1,1.2-5.3l94.1-63.9c1-0.7,2.1-1,3.2-1c1.1,0,2.2,0.3,3.1,0.9l97,63c1.2,0.8,2.1,2,2.3,3.5c0.3,1.4-0.1,2.9-0.9,4
			c-1.6,2.4-4.8,3-7.2,1.4L189,112.1z M127.5,188.9l48.1,0.1v73.3h-48.2L127.5,188.9z M93.5,274.6c-1.5,0-2.7-1.2-2.7-2.7v-0.7
			c0-2.1,1.8-3.9,3.9-3.9h104.9v-0.6c1.5,2.8,3.2,5.4,5.1,7.8H93.5z M247.8,290.8c-27.3,0-49.5-22.2-49.5-49.5
			c0-27.3,22.2-49.6,49.5-49.6s49.5,22.2,49.5,49.6C297.4,268.6,275.2,290.8,247.8,290.8z"/>
	</g>
	<path class="st1" d="M363.7,148.6c4.5,2.5,8,6.7,10.6,12.4c-1.2,1.4-2.8,2.6-4.8,3.4s-4.2,1.3-6.6,1.5c-0.7-1.9-1.7-3.9-2.9-6
		c-1.2-2.1-2.8-3.7-4.9-5.1c-2.1-1.3-4.6-2-7.7-2c-3.4-0.1-6.6-0.6-9.4-1.8c-2.9-1.1-5.3-2.7-7.3-4.7c-2-2-3.6-4.5-4.7-7.5
		c-1.1-2.9-1.6-6.2-1.6-9.8c0-2.4,0.2-5.1,0.7-8.2c0.5-3.1,1.4-6.1,2.8-9c1.4-3,3.1-5.6,5.1-7.9c2.1-2.3,4.4-4.2,7-5.7
		c2.6-1.5,5.2-2.5,7.9-3c2.7-0.5,5-0.8,7.1-0.8c3.5,0,6.7,0.5,9.6,1.6c2.9,1.1,5.5,2.7,7.5,4.7c2.1,2.1,3.7,4.6,4.8,7.5
		c1.1,3,1.7,6.3,1.7,9.9c0,6.9-1.3,12.9-3.9,18.2C372,141.6,368.4,145.7,363.7,148.6z M338.3,127.6c0,4.1,1,7.3,2.9,9.6
		c1.9,2.3,4.7,3.5,8.3,3.5c3,0,5.6-0.8,7.8-2.4c2.2-1.6,4-3.9,5.3-7.1c1.3-3.1,2-7,2-11.7c0-4.2-0.9-7.4-2.8-9.7
		c-1.9-2.3-4.7-3.4-8.3-3.4c-4.7,0-8.5,1.9-11.1,5.8C339.6,116.3,338.3,121.3,338.3,127.6z"/>
	<path class="st1" d="M419.1,110.5c2.1,0,4.2,0.2,6.3,0.5l-6.7,38.1c-1.9,0.9-4.6,1.8-8.2,2.5c-3.6,0.8-7.4,1.2-11.5,1.2
		c-11,0-16.5-4.4-16.5-13.2c0-1.5,0.2-3.2,0.5-5l4.1-23.6c2.2-0.3,4.4-0.5,6.5-0.5c2.2,0,4.3,0.2,6.3,0.5l-3.9,22.4
		c-0.2,1.1-0.3,2.3-0.3,3.3c0,1.7,0.5,2.9,1.4,3.7c0.9,0.8,2.5,1.2,4.7,1.2c1.7,0,3.5-0.3,5.6-0.8l5.2-29.8
		C414.9,110.6,417,110.5,419.1,110.5z"/>
	<path class="st1" d="M433.4,151.8c-2.1,0-4.2-0.2-6.3-0.5l7.2-40.7c2.2-0.3,4.3-0.5,6.5-0.5c2.1,0,4.1,0.2,6.3,0.5l-7.2,40.7
		C437.8,151.6,435.6,151.8,433.4,151.8z M442.7,105.4c-2.1,0-3.8-0.8-5.4-2.3c-1.5-1.5-2.3-3.3-2.3-5.4c0-1,0.3-2.1,0.8-3.3
		c0.5-1.2,1.4-2.2,2.7-3.1c1.3-0.9,2.7-1.3,4.2-1.3c1,0,2.1,0.3,3.3,0.8c1.2,0.5,2.2,1.4,3.1,2.7s1.3,2.7,1.3,4.2
		c0,2.1-0.8,3.8-2.3,5.4C446.6,104.7,444.8,105.4,442.7,105.4z"/>
	<path class="st1" d="M460.8,152.5c-3.5,0-6.1-0.8-7.9-2.3c-1.8-1.5-2.7-3.7-2.7-6.3c0-1.8,0.2-3.5,0.5-5.1l7.7-43.7
		c1.8-0.3,4-0.5,6.6-0.5c2.6,0,4.7,0.2,6.2,0.5l-7.5,42.5l-0.2,1.3c0,0.6,0.2,1,0.6,1.4c0.4,0.3,0.8,0.5,1.4,0.5
		c0.7,0,1.5-0.3,2.1-0.9c2.6,2.2,3.8,5.3,3.7,9.4c-1.2,0.9-2.7,1.7-4.5,2.3C464.9,152.2,462.9,152.5,460.8,152.5z"/>
	<path class="st1" d="M527.3,109.2c5.4,0,9.4,1.2,12,3.5c2.6,2.3,3.9,5.5,3.9,9.5c0,1.4-0.1,2.6-0.3,3.8l-4.5,25.4
		c-2.2,0.3-4.4,0.5-6.5,0.5c-2.1,0-4.2-0.2-6.3-0.5l4-22.7l0.3-2.3c0-3.7-1.9-5.6-5.7-5.6c-2.2,0-4.2,0.5-6.2,1.5
		c0,1.3-0.1,2.5-0.3,3.7l-4.5,25.4c-2.2,0.3-4.4,0.5-6.5,0.5c-2.2,0-4.3-0.2-6.3-0.5l4-22.6c0.1-0.6,0.2-1.3,0.2-2.3
		c0-3.7-1.9-5.6-5.7-5.6c-2.3,0-4.2,0.3-5.8,0.9l-5.1,29.7c-2.1,0.3-4.3,0.5-6.4,0.5c-2.2,0-4.3-0.2-6.3-0.5l6.7-37.8
		c2.1-1.1,5-2.1,8.6-3c3.6-0.9,7.5-1.3,11.6-1.3c5.3,0,9.2,1.1,11.9,3.3C518.2,110.3,522.7,109.2,527.3,109.2z"/>
	<path class="st1" d="M580.5,138.9c1.5,0.9,2.6,2,3.4,3.4c0.8,1.4,1.2,3,1.3,4.6c-2,1.7-4.5,3.1-7.6,4.2s-6.4,1.6-10,1.6
		c-6.1,0-10.8-1.5-14.2-4.6c-3.4-3.1-5.1-7.6-5.1-13.5c0-3.6,0.6-7,1.7-10.1c1.1-3.1,2.7-5.8,4.8-8.1c2.1-2.3,4.5-4,7.3-5.2
		c2.8-1.2,5.9-1.8,9.1-1.8c5.2,0,9.3,1.2,12.2,3.5c2.9,2.3,4.4,5.4,4.4,9.3c0,1.8-0.3,3.5-1,5.1c-0.7,1.7-1.9,3.2-3.7,4.5
		c-1.8,1.4-3.9,2.3-6.4,2.8c-2.5,0.5-4.8,0.8-6.8,0.8c-3.1,0-6-0.4-8.8-1.1c0,3,0.7,5.2,2.1,6.6c1.4,1.3,3.6,2,6.6,2
		C573.3,143,576.9,141.6,580.5,138.9z M570.4,119c-2.1,0-3.9,0.7-5.4,2.2c-1.5,1.5-2.5,3.4-3.1,6c2.1,0.5,4.5,0.8,7.2,0.9
		c2,0,3.6-0.4,4.7-1.3c1.1-0.9,1.7-2.1,1.7-3.6c0-1.2-0.5-2.2-1.4-3C573.2,119.4,572,119,570.4,119z"/>
	<path class="st1" d="M605.4,152.8c-1.9,0-4-0.2-6.3-0.6c-2.3-0.4-4.3-1-6.2-1.9c-1.9-0.9-3.2-1.8-4.2-2.7c0.6-1.9,1.4-3.6,2.5-5.1
		c1.1-1.5,2.4-2.6,3.7-3.4c3.7,2.7,7.7,4.1,12,4.1c1.9,0,3.4-0.3,4.3-0.9c0.9-0.6,1.4-1.5,1.4-2.5c0-0.7-0.3-1.3-0.9-1.9
		c-0.6-0.6-2.3-1.3-5-2.1c-2.7-0.8-4.5-1.4-5.6-1.9c-1-0.5-1.9-1-2.7-1.5c-0.7-0.5-1.4-1.1-2-1.8c-0.6-0.7-1.1-1.6-1.5-2.7
		c-0.5-1.1-0.7-2.4-0.7-4c0.1-2.7,0.9-5.1,2.4-7.2c1.5-2.1,3.7-3.8,6.6-5.1c2.9-1.3,6.3-2,10.2-2c3.9,0,7.2,0.4,9.8,1.2
		c2.7,0.8,4.7,1.7,6.1,2.8c-0.6,1.9-1.4,3.7-2.4,5.2c-1,1.5-2.2,2.7-3.4,3.6c-1.3-0.9-2.9-1.6-5.1-2.2c-2.1-0.6-4.2-0.9-6.2-0.9
		c-3.4,0-5.1,1-5.1,3c0,0.6,0.3,1.2,1,1.7c0.7,0.5,1.9,1,3.8,1.5c1.9,0.5,3.2,0.9,4,1.2c0.8,0.3,1.7,0.6,2.6,1
		c0.9,0.4,1.7,0.9,2.4,1.3c0.7,0.4,1.3,1,1.9,1.6c0.6,0.7,1.2,1.6,1.8,2.7c0.6,1.2,0.9,2.6,0.9,4.4c0,1.6-0.2,3.1-0.7,4.6
		c-0.5,1.5-1.2,2.8-2.1,4c-0.9,1.2-2.1,2.2-3.6,3.1c-1.4,0.9-3.3,1.7-5.6,2.3C611.5,152.4,608.7,152.8,605.4,152.8z"/>
	<path class="st0" d="M346.4,217.9c-6,0-10.8-1.7-14.4-5c-3.5-3.4-5.3-7.9-5.3-13.7c0-4.1,0.6-8,1.9-11.5c1.3-3.5,3-6.5,5.3-9
		s5-4.4,8.1-5.7c3.1-1.4,6.5-2,10.1-2c3.2,0,6.1,0.5,8.6,1.5c2.5,1,4.5,2.2,5.8,3.6c-0.6,1.8-1.5,3.5-3,5.2c-1.4,1.7-3,3-4.6,3.9
		c-1.7-1.7-4.2-2.6-7.4-2.6c-1.7,0-3.3,0.5-5,1.4c-1.6,0.9-3,2.6-4.1,5c-1.1,2.4-1.7,5.1-1.7,7.9c0,2.8,0.7,5.1,2.1,6.8
		c1.4,1.7,3.4,2.6,6.1,2.6c1.2,0,2.5-0.2,3.7-0.6c1.2-0.4,2.6-1.3,4-2.7c1.7,0.8,3.1,2,4.2,3.5c1.1,1.5,1.7,3.3,2,5.3
		C358.3,215.8,352.8,217.9,346.4,217.9z"/>
	<path class="st0" d="M388.2,217.9c-6.4,0-11.4-1.7-15-5.2c-3.7-3.5-5.5-8.2-5.5-14.2c0-4.1,0.6-7.8,1.8-11.3
		c1.2-3.5,2.9-6.4,5.1-8.8c2.2-2.4,4.8-4.3,7.9-5.6c3.1-1.3,6.4-1.9,10-1.9c6.4,0,11.4,1.8,15,5.3c3.6,3.5,5.4,8.3,5.4,14.3
		c0,4-0.6,7.7-1.8,11.1c-1.2,3.4-2.8,6.3-5,8.7c-2.2,2.4-4.8,4.3-7.9,5.6C395.2,217.2,391.8,217.9,388.2,217.9z M389.2,206.4
		c1.5,0,3.1-0.5,4.6-1.4c1.5-1,2.8-2.7,3.7-5.2c1-2.5,1.5-5.2,1.5-8.2c0-2.9-0.6-5.2-1.9-6.8c-1.3-1.6-3.1-2.5-5.6-2.5
		c-1.2,0-2.3,0.2-3.3,0.7c-1,0.5-2,1.1-2.9,2c-0.9,0.9-1.7,2.4-2.5,4.4c-0.8,2-1.2,4.5-1.3,7.4c0,2.9,0.6,5.2,1.9,6.9
		C384.7,205.5,386.7,206.4,389.2,206.4z"/>
	<path class="st0" d="M472.7,170.9c5.8,0,10.1,1.2,12.9,3.7s4.2,5.9,4.2,10.2c0,1.5-0.1,2.8-0.4,4.1l-4.8,27.4
		c-2.4,0.4-4.7,0.6-7,0.6c-2.2,0-4.5-0.2-6.8-0.6l4.3-24.5l0.3-2.5c0-4-2-6-6.1-6c-2.3,0-4.6,0.6-6.7,1.7c0,1.4-0.1,2.7-0.4,4
		l-4.8,27.4c-2.4,0.4-4.7,0.6-7,0.6c-2.3,0-4.6-0.2-6.8-0.6l4.3-24.4c0.1-0.6,0.2-1.4,0.2-2.5c0-4-2.1-6-6.2-6
		c-2.5,0-4.6,0.3-6.3,0.9l-5.5,32c-2.3,0.4-4.6,0.6-6.9,0.6c-2.3,0-4.6-0.2-6.8-0.6l7.2-40.8c2.3-1.2,5.4-2.2,9.3-3.2
		c3.9-1,8.1-1.4,12.5-1.4c5.7,0,10,1.2,12.9,3.5C462.9,172.1,467.7,170.9,472.7,170.9z"/>
	<path class="st0" d="M520.2,171.2c3.1,0,5.9,0.4,8.6,1.2c2.6,0.8,4.9,2,6.8,3.7c1.9,1.6,3.3,3.6,4.3,6.1c1,2.5,1.5,5.2,1.5,8.3
		c0,4.1-0.6,7.8-1.8,11.2c-1.2,3.4-3,6.3-5.4,8.7c-2.3,2.4-5.1,4.3-8.4,5.6s-6.9,1.9-10.8,1.9c-2.9,0-5.5-0.3-7.7-0.8l-2.9,16.3
		c-2.3,0.4-4.6,0.6-6.9,0.6c-2.3,0-4.6-0.2-6.8-0.6l10.2-57.8C506.6,172.6,513.1,171.2,520.2,171.2z M515.5,205.9
		c2.6,0,4.8-0.7,6.7-2.1c1.9-1.4,3.2-3.2,3.9-5.3s1.1-4.1,1.1-6c0-2.9-0.8-5.2-2.3-6.8c-1.5-1.7-3.8-2.5-6.7-2.5
		c-1.7,0-3.5,0.2-5.3,0.7l-3.7,21.3C510.8,205.7,512.9,205.9,515.5,205.9z"/>
	<path class="st0" d="M569.2,170.8c4.9,0,8.6,0.6,10.9,1.8c-0.2,2.1-0.8,4.2-1.7,6.2c-0.9,2-2,3.8-3.3,5.3c-1.6-0.5-3.2-0.7-4.8-0.7
		c-2.5,0-4.6,0.5-6.3,1.4l-5.5,31.6c-2.4,0.4-4.7,0.6-7,0.6c-2.3,0-4.5-0.2-6.8-0.6l7.1-40.8c1.8-1.2,4.3-2.2,7.5-3.2
		C562.4,171.3,565.7,170.8,569.2,170.8z"/>
	<path class="st0" d="M606.6,171.2c7.5,0,13.5,1.4,18.2,4.3l-7.3,41.3c-3.2,0.6-6.4,0.6-9.5,0l-0.6-4.8c-3.9,3.9-8.6,5.8-14,5.8
		c-4.9,0-8.7-1.6-11.6-4.7c-2.8-3.1-4.3-7.5-4.3-12.9c0-4.3,0.7-8.2,2.2-11.8c1.4-3.6,3.5-6.7,6.1-9.2c2.6-2.6,5.7-4.5,9.2-5.9
		C598.7,171.9,602.5,171.2,606.6,171.2z M598.3,206.1c3.5,0,6.3-1.8,8.2-5.4l3-17c-1.6-0.5-3.3-0.7-5.1-0.7c-2.6,0-4.8,0.7-6.8,2.1
		c-1.9,1.4-3.4,3.2-4.3,5.4c-1,2.2-1.5,4.7-1.5,7.5c0,2.6,0.6,4.6,1.8,6C594.7,205.4,596.3,206.1,598.3,206.1z"/>
	<path class="st0" d="M357.4,272.4c1.6,0.9,2.8,2.1,3.7,3.7c0.9,1.5,1.3,3.2,1.4,5c-2.1,1.8-4.9,3.3-8.2,4.5
		c-3.3,1.2-6.9,1.7-10.7,1.7c-6.5,0-11.6-1.6-15.2-4.9c-3.6-3.3-5.5-8.1-5.5-14.5c0-3.9,0.6-7.5,1.8-10.8c1.2-3.3,2.9-6.2,5.1-8.6
		c2.2-2.4,4.8-4.3,7.9-5.6c3-1.3,6.3-2,9.8-2c5.6,0,9.9,1.3,13.1,3.8c3.2,2.5,4.7,5.8,4.7,9.9c0,1.9-0.4,3.7-1.1,5.5
		c-0.7,1.8-2.1,3.4-4,4.9c-1.9,1.5-4.2,2.5-6.8,3c-2.7,0.6-5.1,0.8-7.3,0.8c-3.3,0-6.5-0.4-9.5-1.2c0,3.2,0.7,5.6,2.3,7
		c1.5,1.4,3.8,2.2,7,2.2C349.7,276.8,353.5,275.4,357.4,272.4z M346.6,251.1c-2.3,0-4.2,0.8-5.7,2.3c-1.6,1.6-2.7,3.7-3.4,6.4
		c2.2,0.6,4.8,0.9,7.7,1c2.1,0,3.8-0.5,5-1.4c1.2-0.9,1.8-2.2,1.8-3.9c0-1.3-0.5-2.4-1.5-3.2C349.6,251.5,348.3,251.1,346.6,251.1z"
		/>
	<path class="st0" d="M396.1,240.6c6.2,0,10.9,1.3,13.9,3.9c3,2.6,4.6,6.1,4.6,10.6c0,1.5-0.1,2.9-0.4,4.2l-4.7,26.5
		c-2.4,0.4-4.7,0.6-7,0.6c-2.3,0-4.5-0.2-6.7-0.6l4.2-24.3c0.2-0.9,0.3-1.7,0.3-2.6c0-3.9-2.1-5.9-6.3-5.9c-2.7,0-4.9,0.3-6.6,1
		l-5.5,31.7c-2.4,0.4-4.7,0.6-7,0.6c-2.3,0-4.5-0.2-6.7-0.6l7.1-40.5c2.5-1.3,5.6-2.4,9.1-3.3C388,241.1,391.9,240.6,396.1,240.6z"
		/>
	<path class="st1" d="M457.7,287.3c-6,0-10.8-1.7-14.3-5c-3.5-3.3-5.3-7.9-5.3-13.6c0-4.1,0.6-7.9,1.9-11.4c1.3-3.5,3-6.5,5.2-8.9
		c2.2-2.5,4.9-4.4,8-5.7c3.1-1.3,6.5-2,10-2c3.2,0,6,0.5,8.5,1.5c2.5,1,4.4,2.2,5.8,3.6c-0.6,1.8-1.5,3.5-2.9,5.2
		c-1.4,1.7-2.9,3-4.6,3.9c-1.7-1.7-4.2-2.6-7.4-2.6c-1.7,0-3.3,0.5-4.9,1.4c-1.6,0.9-3,2.6-4.1,5c-1.1,2.4-1.7,5-1.7,7.9
		c0,2.8,0.7,5.1,2.1,6.8c1.4,1.7,3.4,2.6,6,2.6c1.2,0,2.4-0.2,3.7-0.6c1.2-0.4,2.5-1.3,3.9-2.7c1.7,0.8,3.1,2,4.2,3.5
		c1.1,1.5,1.7,3.3,2,5.2C469.6,285.3,464.2,287.3,457.7,287.3z"/>
	<path class="st1" d="M507.5,240.9c7.4,0,13.4,1.4,18.1,4.3l-7.3,41.1c-3.2,0.6-6.3,0.6-9.5,0l-0.6-4.8c-3.9,3.9-8.5,5.8-13.9,5.8
		c-4.8,0-8.7-1.6-11.5-4.7c-2.8-3.1-4.2-7.4-4.2-12.9c0-4.2,0.7-8.1,2.2-11.7c1.4-3.6,3.5-6.6,6.1-9.2c2.6-2.5,5.7-4.5,9.2-5.9
		C499.6,241.6,503.4,240.9,507.5,240.9z M499.2,275.6c3.5,0,6.2-1.8,8.2-5.3l2.9-16.9c-1.6-0.5-3.3-0.7-5.1-0.7
		c-2.6,0-4.8,0.7-6.7,2.1c-1.9,1.4-3.3,3.2-4.3,5.4c-1,2.2-1.5,4.7-1.5,7.5c0,2.6,0.6,4.5,1.7,5.9
		C495.7,274.9,497.2,275.6,499.2,275.6z"/>
	<path class="st1" d="M543.7,287.3c-2.1,0-4.3-0.2-6.8-0.6c-2.4-0.4-4.6-1.1-6.6-2.1c-2-0.9-3.5-1.9-4.5-2.9c0.6-2,1.5-3.8,2.7-5.4
		c1.2-1.6,2.5-2.8,4-3.7c4,2.9,8.3,4.4,12.9,4.4c2.1,0,3.6-0.3,4.6-1c1-0.7,1.5-1.6,1.5-2.7c0-0.7-0.3-1.4-1-2.1
		c-0.7-0.6-2.5-1.4-5.3-2.2c-2.9-0.9-4.9-1.5-6-2.1c-1.1-0.5-2.1-1.1-2.9-1.6c-0.8-0.6-1.5-1.2-2.1-2c-0.6-0.8-1.2-1.7-1.7-2.9
		s-0.7-2.6-0.7-4.3c0.1-2.9,0.9-5.4,2.6-7.7c1.7-2.2,4-4.1,7.1-5.5c3.1-1.4,6.7-2.1,10.9-2.1c4.2,0,7.7,0.4,10.5,1.2
		c2.9,0.8,5,1.8,6.6,3c-0.6,2.1-1.5,3.9-2.6,5.6c-1.1,1.6-2.3,2.9-3.7,3.9c-1.4-0.9-3.2-1.7-5.4-2.3c-2.3-0.6-4.5-1-6.6-1
		c-3.6,0-5.4,1.1-5.4,3.2c0,0.7,0.4,1.3,1.1,1.8c0.7,0.5,2.1,1.1,4,1.7c2,0.6,3.4,1,4.3,1.3s1.8,0.6,2.8,1.1c1,0.5,1.9,0.9,2.6,1.4
		c0.7,0.5,1.4,1,2.1,1.7c0.7,0.7,1.3,1.7,1.9,2.9c0.6,1.3,0.9,2.8,0.9,4.7c0,1.7-0.3,3.4-0.8,5c-0.5,1.6-1.3,3-2.3,4.3
		c-1,1.3-2.3,2.4-3.8,3.4c-1.5,1-3.5,1.8-6,2.5C550.2,287,547.2,287.3,543.7,287.3z"/>
	<path class="st1" d="M600.6,240.9c7.4,0,13.4,1.4,18.1,4.3l-7.3,41.1c-3.2,0.6-6.3,0.6-9.5,0l-0.6-4.8c-3.9,3.9-8.5,5.8-13.9,5.8
		c-4.8,0-8.7-1.6-11.5-4.7c-2.8-3.1-4.2-7.4-4.2-12.9c0-4.2,0.7-8.1,2.2-11.7c1.4-3.6,3.5-6.6,6.1-9.2c2.6-2.5,5.7-4.5,9.2-5.9
		C592.7,241.6,596.5,240.9,600.6,240.9z M592.3,275.6c3.5,0,6.2-1.8,8.2-5.3l2.9-16.9c-1.6-0.5-3.3-0.7-5.1-0.7
		c-2.6,0-4.8,0.7-6.7,2.1c-1.9,1.4-3.3,3.2-4.3,5.4c-1,2.2-1.5,4.7-1.5,7.5c0,2.6,0.6,4.5,1.7,5.9
		C588.8,274.9,590.3,275.6,592.3,275.6z"/>
</g>
</svg>
