<?xml version="1.0" encoding="utf-8"?>
<!-- Generator: Adobe Illustrator 21.0.0, SVG Export Plug-In . SVG Version: 6.00 Build 0)  -->
<svg version="1.1" id="Capa_1" xmlns="http://www.w3.org/2000/svg" xmlns:xlink="http://www.w3.org/1999/xlink" x="0px" y="0px"
	 viewBox="0 0 100 100" style="enable-background:new 0 0 100 100;" xml:space="preserve">
<style type="text/css">
	.st0{fill:#605393;}
</style>
<path class="st0" d="M34.6,45.4c-0.2-1.7,0.5-3,1.5-4.1c1.5-1.8,3.4-3.2,5.9-3.5c2-0.3,3.5-0.2,4.9-0.1c2.3,0.2,4.2,1.5,6.2,2.4
	c1.4,0.6,2.9,1.3,4.4,1.7c0.9,0.3,1.9,0.4,2.9,0.4c0.7,0,1.5,0,2.2,0c0.7,0,1.5-0.1,2.1,0.4c0.7,0.7,1.5,1.3,1.7,2.3
	c0,0.3,0.1,0.5,0.5,0.4c2.2-0.3,3.9,2.6,3.3,4.5c-0.3,1-0.9,2.1-2.2,2.5c-0.7,0.2-1.1,0.5-1,1.4c0.1,1.4-0.2,2.9,0.1,4.3
	c0.4,2.6,0,5.1,0.3,7.7c0.2,1.3,0.2,2.7,0.3,4c0,0.2,0.1,0.4,0.2,0.6c0.6,1.3,1.2,2.6,1.5,4c0.3,1.4,0.2,2.4-0.3,3.7
	c-0.6,1.3-1.7,1.6-2.9,1.8c-0.2,0-0.4,0-0.6,0c-10,0-20.1,0-30.1,0c-1.8,0-2.6-1-3.6-2c-0.1-0.8-0.6-1.6-0.4-2.4
	c0.3-1.4,0.5-2.9,1.3-4.1c0.7-1,0.6-2.1,0.9-3.1c-0.2-3.6,0.3-7.1,0.3-10.7c0-1.2-0.2-2.5,0.3-3.7c0.3-0.8,0-1.3-0.7-1.4
	c-1-0.1-1.4-0.8-2-1.4c-0.3-0.3-0.6-0.8-0.5-1.4c0-0.3,0.1-0.6,0-1c-0.4-1.9,1.7-3.5,3.4-3.4C34.2,45.4,34.3,45.4,34.6,45.4z
	 M64.9,52.8c-9.9,0-19.6,0-29.3,0c-0.3,2.6,0.2,5.2-0.3,7.7c-0.3,1.4-0.1,3,0,4.5c0.1,1.5-0.6,2.9-0.3,4.3c0.1,1-0.2,1.8-0.6,2.6
	c-0.5,0.8-0.7,1.7-1,2.6c-0.2,0.6-0.3,1.1-0.2,1.6c0.1,0.8,0.5,1.6,1.2,1.7c0.7,0.1,1.3,0.4,2.1,0.4c9.3,0,18.7,0,28,0
	c0.7,0,1.2-0.3,1.8-0.4c0.6-0.1,1.1-0.7,1.2-1.1c0.2-0.7,0.2-1.6-0.1-2.3c-0.4-1.1-0.7-2.3-1.4-3.4c-0.2-0.3-0.4-0.8-0.4-1.3
	c0-2.1,0.3-4.2-0.3-6.2c0-0.1,0-0.2,0-0.3C65.4,59.8,64.7,56.4,64.9,52.8z M36.3,45.4c0.5,0,1,0,1.5,0c3.1,0,6.2,0,9.2,0
	c0.2,0,0.6-0.1,0.6,0.1c0,0.4,0.4,0.5,0.4,0.8c0,0.3-0.4,0.6-0.9,0.6c-0.3,0-0.6,0-1,0c-3.6,0-7.1,0-10.7,0c-0.3,0-0.6,0-1,0
	c-0.7,0-2,1-2.1,1.6c-0.1,0.8,0.3,1.3,0.7,1.9c0.4,0.5,1,0.3,1.5,0.3c10.4,0,20.8,0,31.2,0c0.3,0,0.7,0.1,1,0c0.4-0.1,0.8-0.3,1-0.5
	c0.4-0.6,0.6-1.3,0.3-1.9c-0.2-0.5-0.4-1.3-1.3-1.1c-0.4-0.4-1-0.3-1.5-0.3c-3.6,0-7.1,0-10.7,0c-0.3,0-0.6,0-1,0
	c-0.6,0-0.9-0.3-0.9-0.8c0.1-0.4,0.3-0.8,0.8-0.7c0.3,0,0.6,0,1,0c2.9,0,5.8,0,8.8,0c0.3,0,0.8,0.3,0.9-0.2c0.1-0.4-0.4-0.6-0.6-0.8
	c-0.1-0.1-0.3-0.1-0.4-0.2c-0.6-0.2-1.2-0.4-1.9-0.3c-1.3,0.1-2.6,0.2-3.8,0c-1.3-0.3-2.5-0.8-3.7-1.4c-0.7-0.3-1.3-0.7-2-0.9
	c-0.5-0.1-1-0.5-1.6-0.8c-0.3-0.2-2.2-1-2.4-1c-1.4-0.5-2.8-0.2-4.2-0.3c-0.9-0.1-1.6,0.5-2.4,0.3c-2.2,1.2-4.3,2.5-4.7,5.3
	C36.4,45.1,36.1,45.2,36.3,45.4z"/>
<path class="st0" d="M57.7,24.7c-0.3,0.8-0.3,1.6-0.5,2.4c-0.2,1.1-0.9,2.1-1.1,3.2c0,0.2-0.3,0.4-0.6,0.5c-0.4,0.1-0.7-0.1-0.6-0.4
	c0-0.3,0-0.6,0.1-0.9c1.3-2.4,1.5-5,1.4-7.7c0-0.7-0.4-1.1-1.1-0.9c-1.9,0.4-3.7,1.1-5.3,2.1c-1.5,0.9-2.6,2.3-3.8,3.5
	c-1.3,1.4-1.2,4.2,0,5.6c1.1,1.3,2.4,1.8,4,1.8c0.4,0,0.8-0.2,1.1-0.3c0.4-0.2,0.7-0.4,1-0.6c0.3-0.1,0.7-0.2,0.8,0.1
	c0.1,0.2,0.1,0.6-0.2,0.9c-0.4,0.4-0.9,0.5-1.3,0.7c-1.8,0.6-2.6,0.6-4.1-0.1c-1.6-0.7-2.6-1.8-3.2-3.3c-0.8-2.2-0.1-4.5,1.4-6
	c0.5-0.5,1-1,1.5-1.5c1.7-1.9,3.9-2.8,6.1-3.6c0.7-0.2,1.3-0.3,2-0.6c1.1-0.4,2.3,0.7,2.3,2.1c0,0.8,0,1.6,0.1,2.4
	c0.4-1.7,1.5-2.9,2.9-3.9c0.4-0.3,1.1-0.1,1.4-0.6c1.1,0.2,2.1-0.1,3.2,0.3c2.1,0.7,3.2,2.2,3.9,4.2c0.1,0.2,0,0.5,0,0.8
	c0.1,0.4-0.1,0.9,0.3,1.3c0.2,0.3,0.2,1-0.1,1.3c-0.2,0.3-0.2,0.6-0.2,0.9c-0.2,2.8-1.2,5.2-2.7,7.5c-0.4,0.6-0.9,1.2-1.8,1
	c-0.3-0.1-0.5-0.1-0.7-0.3c-1.2-1.3-2.6-2.4-3.6-3.9c-1.3-2.1-2-3.7-2.4-5.9C58,26.1,57.8,25.4,57.7,24.7z M68.4,26.7
	c0-0.4,0-0.7,0-1.1c0-1.7-0.8-3.4-2.3-4.3c-2-1.2-3.7-1.1-5.5,0.4c-1.6,1.3-1.5,3.2-1.5,5c0.6,0.7,0.3,1.6,0.8,2.4
	c0.4,0.7,0.7,1.5,1.2,2.2c0.8,1.3,1.7,2.6,2.8,3.6c1,0.9,1.7,0.7,2.3-0.4C67.5,32.1,68.4,29.6,68.4,26.7z"/>
<path class="st0" d="M47,27.3c-0.1-0.4,0.1-0.7,0.4-0.9c1-1,2-2,3.1-2.8c0.4-0.3,0.8-0.6,1.4-0.5c0.2,0,0.5,0,0.5,0.2
	c0,0.3,0.2,0.7-0.3,0.7c-0.2,0-0.3,0.1-0.4,0.2c-1.5,0.9-2.8,2.1-4,3.4c-0.1,0.2-0.3,0.3-0.5,0.2C47,27.9,47,27.7,47,27.3z"/>
<path class="st0" d="M49.6,33.3c-0.3-0.1-0.8-0.3-1.2-0.4c-0.5-0.1-0.9-0.9-0.7-1.1c0.4-0.2,0.8-0.2,1.2,0c1,0.5,1.9,0.3,2.7-0.4
	c0.4-0.4,0.9-0.7,1.4-0.6c0.3,0.1,0,0.9-0.7,1.5C51.8,32.8,50.1,33.4,49.6,33.3z"/>
<path class="st0" d="M53.7,25.6c-0.1,1.4-0.8,2.6-1.5,3.9c-0.1,0.2-0.4,0.3-0.7,0.3c-0.3,0-0.4-0.2-0.5-0.5c-0.1-0.4,0.3-0.7,0.4-1
	c0.4-0.9,0.9-1.7,0.9-2.7c0-0.1,0.1-0.3,0.2-0.4c0.2-0.4,0.2-0.8,0.8-0.6c0.5,0.1,0.2,0.5,0.3,0.8C53.7,25.5,53.7,25.6,53.7,25.6z"
	/>
<path class="st0" d="M49.9,26.9c0.2,0,0.5-0.1,0.6,0.2c0.1,0.2,0,0.4-0.2,0.5c-0.2,0.2-0.5,0.3-0.5,0.6c-0.2,0.6-0.9,1.1-0.2,1.8
	c0.1,0.1,0.2,0.6-0.1,0.7c-0.3,0.2-0.6,0.1-0.9-0.1c-0.7-0.6-0.7-0.9-0.4-1.9c0.2-0.6,0.8-0.8,0.9-1.4C49.1,27,49.5,26.9,49.9,26.9z
	"/>
<path class="st0" d="M55.6,25.7c0.1,1-0.6,1.8-0.7,2.7c0,0.1-0.2,0.1-0.2,0.2c-0.2,0.4-0.6,0.3-0.9,0.2c-0.3-0.1-0.2-0.5-0.2-0.7
	c0.5-0.9,0.6-2,0.9-3c0.1-0.4,0.2-0.5,0.6-0.5c0.4,0,0.4,0.2,0.4,0.5C55.6,25.3,55.6,25.5,55.6,25.7z"/>
<path class="st0" d="M47.2,59.5c0.2-0.8,0.1-1.5,0.3-2.2c0.3-0.9,0.8-1.4,1.3-2c0.5-0.7,1.2-0.6,1.9-0.5c0.6,0.1,1.1,0.4,1.5,0.9
	c0.8,1.1,1,2.4,0.9,3.9c0.5,0,1,0.1,1.4,0c0.9-0.1,1.5,0.6,1.7,1.2c0.2,0.6,0.3,1.4-0.2,2.1c-0.1,0.2-0.1,0.5-0.3,0.7
	c-0.2,0.2-0.2,0.6,0,0.7c0.7,0.5,0.7,1.2,0.6,1.8c-0.2,0.8-0.5,1.6-0.9,2.3c-0.8,1.4-2,2.3-3.4,3c-0.6,0.3-0.8,0.5-0.8,1.1
	c0,0.4,0,0.7,0,1.1c0,0.8-0.4,1.1-1.2,1c-0.4-0.1-0.7-0.3-0.7-0.8c0-0.5,0-1,0-1.4c0-0.5-0.2-0.8-0.6-0.9c-1.9-0.8-3.1-2.2-4-3.9
	c-0.4-0.7-0.9-1.7-0.2-2.7c0.5-0.8,0.5-0.9-0.1-2.2c-0.2-0.6-0.3-1.1-0.1-1.6c0.3-1,0.9-1.3,2-1.3C46.5,59.5,46.8,59.5,47.2,59.5z
	 M51.5,59.1c0.1-0.6-0.3-1.3-0.6-1.9c-0.3-0.7-0.6-0.6-1.2-0.3c-0.8,0.4-0.3,1.2-0.7,1.8c-0.3,0.4,0.1,0.9,0.2,1.4
	c0.1,0.8,0.6,0.8,1.1,1c0.5,0.2,0.7-0.3,0.9-0.7C51.4,59.9,51.4,59.6,51.5,59.1z M49.5,68.4c-0.1-0.4,0.2-0.8-0.1-1.2
	c-0.7-0.9-1.7-1.6-2.8-2c-0.3-0.1-0.7-0.1-0.6,0.4c0,0.2,0,0.4,0,0.6c0.2,0.7,2,2.8,2.8,3.1c0.3,0.1,0.7-0.1,0.7-0.5
	C49.6,68.7,49.5,68.6,49.5,68.4z M51.3,69.4c1.3-0.6,2.2-1.4,2.7-2.6c0.2-0.5,0.6-1.1,0.2-1.5c-0.4-0.4-0.9,0.2-1.4,0.4
	c-1.2,0.5-1.9,1.3-1.7,2.8C51.2,68.7,51,69,51.3,69.4z M49.5,64.6c0.2-0.9,0.1-1.6-0.6-2.2c-0.6-0.6-1.4-0.8-2-1.3
	c-0.1-0.1-0.5-0.1-0.7,0.1c-0.2,0.4,0.5,2.4,0.9,2.4C47.9,63.6,48.5,64.5,49.5,64.6z M51.1,64.6c0.7-0.4,1.3-0.9,1.9-0.9
	c1.1-0.1,1.1-0.9,1.3-1.6c0.1-0.3,0-0.6,0-1.1c-0.4,0.2-0.6,0.1-0.9,0.2c-0.6,0.2-0.9,0.7-1.5,1c-0.5,0.2-0.9,0.7-0.7,1.4
	C51.2,63.9,51.1,64.2,51.1,64.6z"/>
<path class="st0" d="M50.1,45.4c0.7,0,1.1,0.3,1,0.8c0,0.4-0.3,0.7-0.8,0.8c-0.7,0.1-1.1-0.2-1.1-0.8C49.2,45.8,49.5,45.5,50.1,45.4
	z"/>
<path class="st0" d="M67.4,27.1c0,0.6-0.1,1.2,0,1.7c0.1,0.6-0.4,0.9-0.4,1.5c0.1,0.6-0.3,0.8-0.9,0.8c-0.3,0-0.4-0.2-0.3-0.4
	c0.6-1.5,0.7-3,0.6-4.5c0-0.5,0-1,0-1.4c0-0.2,0.1-0.3,0.2-0.4c0.1,0,0.3,0,0.4,0.1c0.2,0.2,0.4,0.3,0.3,0.7
	C67.4,25.8,67.4,26.5,67.4,27.1z"/>
<path class="st0" d="M59.8,25.2c0.3-1.6,1.1-2.9,2.6-3.6c0.4-0.2,0.8-0.1,1.1,0.3c0.2,0.2,0.2,0.5-0.1,0.6c-0.4,0.2-0.7,0.4-1.1,0.5
	c-0.9,0.3-1.2,1-1.3,1.8c0,0.3,0.1,0.7-0.3,1c-0.2,0.1,0,0.6-0.4,0.5c-0.3-0.1-0.5-0.3-0.6-0.6C59.7,25.5,59.8,25.4,59.8,25.2z"/>
<path class="st0" d="M62,26.5c0-0.2-0.1-0.6,0.3-0.5c0.3,0,0.5-0.1,0.7,0.4c0.3,1.3,0.8,2.6,1.7,3.7c0.1,0.1,0.2,0.3,0.2,0.4
	c0,0.1,0,0.3,0,0.5c-0.1,0.2-0.4,0.1-0.6,0.1c-0.3,0-0.4-0.2-0.5-0.3c-0.6-1.2-1.2-2.5-1.7-3.7C61.9,26.9,62,26.7,62,26.5z"/>
<path class="st0" d="M63.9,23.4c0.5,0,1.5,0.8,1.5,1.3c0.1,0.6-0.1,1.2,0.3,1.8c0.2,0.3-0.2,0.6-0.5,0.7c-0.4,0.1-0.7-0.2-0.7-0.5
	c-0.1-0.4,0-0.9,0-1.3c-0.1-0.5-0.1-1.2-0.9-1.1c-0.3,0-0.6-0.3-0.6-0.5c0.1-0.2,0.4-0.5,0.7-0.4C63.8,23.4,63.9,23.4,63.9,23.4z"/>
<path class="st0" d="M63.6,32c0,0.2-0.1,0.3-0.2,0.3c-0.2,0-0.5,0.1-0.7-0.2c-0.2-0.3-0.5-0.5-0.7-0.8c-0.3-0.8-0.7-1.5-1.1-2.2
	c-0.1-0.2-0.1-0.3-0.1-0.4c0.1-0.2,0.4-0.1,0.6-0.2c0.3,0,0.5,0.2,0.6,0.4c0.4,1,1,1.9,1.6,2.8C63.5,31.9,63.5,32,63.6,32z"/>
</svg>
