<?xml version="1.0" encoding="utf-8"?>
<!-- Generator: Adobe Illustrator 21.0.0, SVG Export Plug-In . SVG Version: 6.00 Build 0)  -->
<svg version="1.1" id="Capa_1" xmlns="http://www.w3.org/2000/svg" xmlns:xlink="http://www.w3.org/1999/xlink" x="0px" y="0px"
	 viewBox="0 0 100 100" style="enable-background:new 0 0 100 100;" xml:space="preserve">
<style type="text/css">
	.st0{fill:#605392;}
</style>
<g>
	<path class="st0" d="M66.5,37.2c-0.5,1.2,0.4,2.5,0.8,3.8c0.4,1.5,0.1,2.8-0.4,4.1c-0.6,1.7-1.8,3-3.3,3.9c-0.7,0.4-1,0.9-1.3,1.6
		c-2.4,6.2-5,12.3-7.5,18.5c-1.2,3-2.4,6-3.6,9c-0.2,0.6-0.5,1.1-1.2,1.1c-0.6,0-1-0.4-1.3-1c-0.7-1.7-1.3-3.4-2-5.1
		c-1.4-3.4-2.7-6.9-4.1-10.3c-1.7-4.2-3.5-8.4-5.1-12.7c-0.2-0.5-0.4-0.7-0.8-1c-1.8-1.1-3.3-2.5-3.8-4.6c-0.4-1.7-0.5-3.3,0.3-4.9
		c0.5-1,1.2-2,0.5-3.2c0.2-1.7,0.6-3.4,1.8-4.7c0.3-0.3,0.6-0.6,0.9-0.9c0.3-0.3,0.4-0.5,0.5-0.9c0.8-3.7,3.4-6.1,6.7-7.6
		c1.7-0.8,3.6-1.1,5.4-1.2c2.1-0.1,4.1,0.3,6.1,1.1c3.3,1.3,5.8,3.4,7,6.9c0.2,0.5,0.5,0.9,1,1.1c1.7,1,2.7,2.6,3.2,4.5
		c0.1,0.2,0.2,0.4,0.2,0.6C66.5,35.7,66.5,36.3,66.5,37.2z M49.5,23.3c-2.5-0.1-4.9,0.5-7,1.9c-1.8,1.3-3.2,2.8-3.5,5.1
		c-0.1,0.8-0.6,1.5-1.3,2.1c-1.4,1.1-1.9,2.5-1.9,4.2c0,0.6,0.6,1.2,0.3,1.8c-0.3,0.6-0.7,1.2-1,1.8c-1.1,2.4-0.4,5,1.8,6.4
		c1.8,1.2,3.7,1.3,5.6,0.1c0.4-0.2,0.7-0.4,1.1-0.6c0.8-0.4,1-0.4,1.4,0.3c0.4,0.7,0.8,1.4,1.4,1.9c2.8,2.1,6.4,1.1,7.8-1.6
		c0.5-1,1.2-1.1,2.1-0.5c0.5,0.3,1.1,0.7,1.6,0.9c2,0.9,4.1,0.3,5.5-1.3c1.5-1.7,1.4-3.7,0.5-5.6c-0.4-0.9-0.6-1.7-0.3-2.7
		c0.6-2.4-0.5-4.9-2.8-5.9c-0.8-0.3-1.1-0.8-1.2-1.4c-0.3-2.3-1.8-3.7-3.5-5C54.3,23.8,52,23.3,49.5,23.3z M53.5,58.7
		c-1.1-1.3-2.4-2.3-3.3-3.6c-0.3-0.4-0.6-0.4-0.9-0.1c-1,1-1.9,2-2.9,2.9c-0.4,0.4-0.4,0.8,0.1,1.2c0.3,0.3,0.5,0.6,0.7,0.8
		c0.7,0.8,1.4,1.6,2.2,2.3c0.3,0.3,0.6,0.3,0.8,0C51,61.1,52.4,60.1,53.5,58.7z M58.6,53c-0.6-0.6-1.2-1.1-1.7-1.7
		c-0.5-0.6-0.9-1.4-1.7-1.7c-0.7,0.7-1.3,1.3-2.2,1.7c-0.6,0.2-0.9,0.7-1.3,1.2c-0.5,0.5-0.4,0.7,0,1.2c1,1,2,2,2.9,3.1
		c0.1,0.1,0.3,0.1,0.4,0.2C56.3,55.6,57.7,54.6,58.6,53z M44,49.6c-0.9,0.9-1.8,1.8-2.7,2.6c-0.5,0.5-0.4,0.8-0.1,1.4
		c0.6,1,1.6,1.7,2.2,2.7c0.2,0.3,0.4,0.6,0.9,0.6c1.2-1.2,2.5-2.5,3.7-3.7C47.1,51.4,45.2,50.9,44,49.6z M47.6,69c0,0.1,0,0.3,0,0.3
		c0.7,1.6,1.3,3.3,2,4.9c0.1,0.3,0.4,0.1,0.5-0.2c0.5-1.3,1.1-2.7,1.7-4c0.3-0.6,0.3-1-0.2-1.4c-0.2-0.1-0.3-0.3-0.4-0.5
		c-1.7-2.5-1.7-1.5-3.2-0.1C47.8,68.4,47.6,68.7,47.6,69z M55.2,60.7c-0.2,0-0.4,0-0.6,0.2c-1,1.1-2.1,2-3,3.3
		c-0.1,0.2-0.3,0.4-0.1,0.6c0.6,0.5,0.8,1.5,1.7,1.7C54.8,63.2,55.3,61.7,55.2,60.7z M44.3,60.3c-0.2,0.4-0.2,0.6-0.1,0.9
		c0.5,1,0.9,2.1,1.3,3.2c0.8,2.1,0.8,2.1,2.4,0.4c0.1-0.1,0-0.2,0.1-0.3C46.8,63.1,45.4,61.9,44.3,60.3z"/>
	<path class="st0" d="M51.2,26.1c0,0.5-0.1,0.9-0.7,1.1c-0.3,0.1-0.6,0.2-0.9,0.3c-2,0.8-3.7,1.9-4.6,4c-0.2,0.4-0.2,0.7-0.3,1.1
		c-0.2,0.6-1,1-1.5,0.8c-0.7-0.2-1-0.8-0.8-1.5c0.7-3.3,2.8-5.3,5.8-6.4c0.6-0.2,1.1-0.5,1.8-0.5C50.9,24.9,51.2,25.3,51.2,26.1z"/>
	<path class="st0" d="M61.5,40.3c-0.6,0-1-0.3-1-1c0-1.5-0.8-2.4-2-3.1c-0.9-0.6-0.9-1.4-0.1-2.1c0.3-0.2,0.6-0.3,0.9-0.2
		c1.6,0.6,2.7,1.8,3.3,3.4c0.2,0.4,0.2,0.9,0.3,1.4C63.1,39.6,62.4,40.3,61.5,40.3z"/>
</g>
</svg>
