<?xml version="1.0" encoding="utf-8"?>
<!-- Generator: Adobe Illustrator 21.0.0, SVG Export Plug-In . SVG Version: 6.00 Build 0)  -->
<svg version="1.1" id="Capa_1" xmlns="http://www.w3.org/2000/svg" xmlns:xlink="http://www.w3.org/1999/xlink" x="0px" y="0px"
	 viewBox="0 0 100 100" style="enable-background:new 0 0 100 100;" xml:space="preserve">
<style type="text/css">
	.st0{fill:#605393;}
	.st1{fill:#E9E9EB;}
</style>
<path class="st0" d="M48.4,73.2c-7.1,0-14.1,0-21.2,0c-1.7,0-1.9,0.2-1.7-1.9c0.4-2.8,0.8-5.5,1.3-8.3c0.1-0.4,0.1-0.9,0.4-1
	c0.9-0.3,1-1.2,1.3-1.8c0.8-1.5,2.1-2.4,3.7-2.8c0.5-0.2,0.8-0.3,1-0.9c0.5-1.4,1.3-1.8,2.9-1.5c0.4,0.1,0.7,0,1.1-0.2
	c1-0.6,2.2-0.8,3.4-0.7c0.9,0,1,0,1-1c0-3.9,0.1-7.9,0-11.8c-0.1-3.5,0.4-6.9,0.8-10.3c0.1-0.9,0.1-1.9,0.1-2.9
	c0-0.6,0.2-0.9,0.9-0.9c0.3,0,0.6,0,1,0c8.2,0,16.5,0,24.7,0c1.9,0,1.9,0,1.9,1.8c0,2.1,0.3,4.1,0.6,6.2c0.1,0.9,0.2,1.9,0.2,2.9
	c0,11.1,0,22.2,0,33.3c0,0.2,0,0.3,0,0.5c0,1.3,0,1.3-1.4,1.3C62.8,73.2,55.6,73.2,48.4,73.2z M69.8,51.3c0-1.6,0-2.9,0-4.2
	c0-2.7,0-5.4,0-8.1c0-1,0-1-1.1-1c-1.4,0-2.8,0-4.1,0c-0.6,0-0.9-0.1-0.9-0.8c0-0.6,0.2-0.8,0.8-0.8c1.4,0,2.9,0,4.3,0
	c0.5,0,0.7-0.2,0.7-0.8c-0.1-1.1-0.1-2.1-0.4-3.2c-0.1-0.4-0.2-0.6-0.6-0.6c-0.3,0-0.6,0-1,0c-7.4,0-14.9,0-22.3,0c-0.3,0-0.6,0-1,0
	c-0.4,0-0.6,0.2-0.7,0.5c-0.2,1.9-0.6,3.8-0.6,5.7c-0.1,5.2,0,10.3,0,15.5c0,1.4,0.6,2,2,2c1,0,1.8,0.3,2.3,1.1
	c0.3,0.5,0.6,0.7,1.1,0.8c1.6,0.6,2.7,1.7,3.3,3.2c0.1,0.3,0.2,0.7,0.6,0.9c0.7,0.3,0.7,0.8,0.8,1.4c0.2,1.6,0.5,3.1,0.7,4.7
	c0.1,0.6,0.3,0.9,0.9,0.9c1,0,1.9,0,2.9,0c0.5,0,0.7-0.2,0.7-0.7c0-2,0.2-4-1-5.9c-0.3-0.4-0.4-0.9-0.5-1.3c-0.1-0.7-0.4-1-1.3-1.1
	c-1.3-0.1-1.9-0.9-2.2-2.2c-0.1-0.7,0.4-1.2,0.3-2c-1.7,0.3-3.2-0.3-4.7-1.2c-0.8-0.4-1.2-1-1.4-1.8c-0.2-1.1-0.2-2.2,0.1-3.3
	c0.3-1,0.9-1.5,1.8-1.8c0.6-0.2,1.2-0.1,1.7-0.1c0.6,0,0.9-0.2,1.1-0.7c0.4-0.9,0.8-1.7,1.3-2.6c0.6-1.1,1.5-1.6,2.7-1.6
	c1.9,0,3.8,0,5.7,0c2.1,0,3.5,1.4,3.5,3.5c0,0.7,0,1.5,0,2.2c0,0.4,0,0.7,0.4,0.9C67.3,49.8,68.4,50.5,69.8,51.3z M52.7,71.3
	c-0.2-2.5-0.7-5.1-1.1-7.6c0-0.3-0.3-0.4-0.5-0.4c-0.3,0-0.6,0-1,0c-6.7,0-13.5,0-20.2,0c-0.3,0-0.5,0-0.8,0c-0.6,0-0.7,0.2-0.7,0.9
	c0,0.5,0.3,0.6,0.7,0.6c0.9,0,1.8,0,2.7,0c0.3,0,0.5,0,0.7,0.3c0.3,0.6-0.1,1.3-0.8,1.3c-1,0-1.9,0-2.9,0c-0.4,0-0.7,0.1-0.8,0.6
	c-0.2,1.4-0.4,2.7-0.6,4.1c0,0.3,0.1,0.5,0.5,0.5c0.3,0,0.6,0,1,0c7.5,0,15,0,22.5,0C51.7,71.6,52.2,71.7,52.7,71.3z M66,62.9
	c-0.2,0.4-0.4,0.6-0.6,0.9c-0.5,0.9-0.5,0.9,0.1,1.7c0.7,0.9,1.5,1.8,2.2,2.7c0.3,0.4,1.5,0.6,1.9,0.4c0.2-0.1,0.3-0.3,0.3-0.5
	c0-0.4,0-0.7,0-1.1c0-4,0-8.1,0-12.1c0-0.6,0.4-1.6-0.4-1.8c-0.7-0.2-0.9,0.7-1.3,1.2c-2.2,2.7-4.9,4.5-8.3,5.3
	c-0.5,0.1-1,0.1-1.5,0.6c0.2,0.5,0.3,1.1,0.6,1.5c1,1.6,1.2,3.3,1,5c0,0.3,0,0.5,0,0.8c0,1.5,0,1.3,1.4,1.3c1.6,0,1.5,0.1,1.5-1.6
	c0-0.4,0-0.9,0-1.3c-0.1-0.8,0.1-1.5,0.6-2.1c0.4-0.5,0.7-1.2,1.2-1.6C65.2,62.2,65.5,62.5,66,62.9z M62.6,52.5
	c-0.4-0.1-0.6-0.1-0.8-0.2c-1.7-0.5-2.7-1.6-2.5-3.5c0.1-0.8,0-1.7,0-2.5c0-2.2,0-2.1-2.2-2.2c-1.1,0-1.7,0.5-2.2,1.4
	c-0.7,1.3-1,2.8-2.4,3.7c-0.1,0-0.1,0.2-0.2,0.3c-0.4,1.3-1.2,2-2.5,2.4c-0.4,0.1-0.5,0.5-0.2,0.8c0.1,0.2,0.3,0.3,0.5,0.4
	c1,0.5,2,1.1,3.3,1c0.8-0.1,1.7,0,2.5,0c0.6,0,1.2-0.1,1.6,0.5c0.3,0.4,0.8,0.2,1.2,0.1C60,54.2,61.3,53.7,62.6,52.5z M50.3,61.6
	c-0.5-1.1-1.1-1.8-1.8-2.2c-0.5-0.3-0.9-0.4-1.4,0.1c-0.6,0.6-1.3,1-2.3,0.7c-1.2-0.4-1.8-1.1-1.8-2.5c0-0.8-0.3-1.2-0.9-1.5
	c-0.8-0.4-1.6-0.6-2.4-0.6c-0.6,0-1.1,0.2-1.6,0.6c-0.4,0.3-0.2,0.8-0.3,1.2c-0.4,1.9-1.9,2.6-3.6,1.7c-0.5-0.3-1-0.4-1.5-0.2
	c-1.3,0.5-2.4,1.3-3,2.8c2.2,0,4.3,0,6.5,0c0.4,0,0.9,0.1,1.3-0.1c0.5-0.2,0.2-0.8,0.3-1.1c0.4-1.2,1.4-2,2.5-1.8
	c1.2,0.1,1.9,0.9,2.2,2.2c0.1,0.3-0.1,0.7,0.2,0.8C45.2,61.6,47.7,61.6,50.3,61.6z M56.6,28.8c-3.7,0-7.4,0-11.1,0
	c-1.4,0-1.5,0.1-1.5,0.8c0,0.7,0.1,0.7,1.6,0.7c7.3,0,14.6,0,22,0c0.3,0,0.5,0,0.8,0c0.6,0,0.9-0.2,0.9-0.8c0-0.6-0.3-0.7-0.8-0.7
	c-0.3,0-0.6,0-1,0C63.8,28.8,60.2,28.8,56.6,28.8z M62.1,71.6c2.1,0,4.1,0,6.2,0c0.4,0,0.7,0,1.1,0c0.3,0,0.4-0.2,0.4-0.5
	c0-0.3,0-0.7-0.4-0.8c-0.3-0.1-0.6,0-1,0c-4.2,0-8.5,0-12.7,0c-0.3,0-0.5,0-0.8,0c-0.5,0-0.6,0.4-0.5,0.8c0,0.6,0.5,0.6,0.9,0.6
	C57.6,71.6,59.8,71.6,62.1,71.6z M60.8,46.9C60.8,46.9,60.8,46.9,60.8,46.9c0,0.6,0,1.3,0,1.9c0,1.1,0.8,2,1.7,1.9
	c0.8,0,1.5-0.8,1.6-1.9c0-0.8,0-1.7,0-2.5c0-1.6-0.9-2.3-2.5-2.2c-0.5,0-0.8,0.1-0.8,0.7C60.9,45.5,60.8,46.2,60.8,46.9z M67.6,52
	c-0.2-0.2-0.3-0.2-0.5-0.3c-1.3-0.9-1.2-0.6-1.8,0.3c-0.5,0.7-1.1,1.4-1.8,2c-1.3,1.1-2.8,1.9-4.5,2.2c-0.5,0.1-0.7,0.3-0.7,0.8
	c0,0.3,0,0.5,0.3,0.9C62.4,57.4,65.3,55.3,67.6,52z M55.9,56.5c-0.4,0-0.8,0.4-0.8,0.8c0,0.4,0.3,0.7,0.7,0.7c0.4,0,0.8-0.3,0.9-0.7
	C56.7,56.9,56.3,56.5,55.9,56.5z M36.2,57.2c0-0.4-0.5-0.9-0.9-0.8c-0.3,0.1-0.6,0.3-0.6,0.7c0,0.4,0.2,0.7,0.7,0.7
	C35.8,57.8,36.1,57.5,36.2,57.2z M40.7,60.9c0-0.4-0.2-0.6-0.6-0.6c-0.4-0.1-0.7,0.2-0.8,0.6c-0.1,0.3,0.3,0.8,0.7,0.7
	C40.4,61.6,40.6,61.3,40.7,60.9z M46.1,57.8c-0.1-0.4-0.3-0.7-0.8-0.6c-0.4,0-0.7,0.3-0.6,0.7c0,0.3,0.3,0.6,0.7,0.5
	C45.8,58.5,46,58.2,46.1,57.8z"/>
<path class="st0" d="M51.5,42.5c-0.9,0.1-1.8-0.1-2.4-0.8c-0.5-0.6-1.2-0.6-1.9-0.6c-0.6,0-1.3,0-1.9-0.1c-0.7-0.1-1-0.6-0.7-1.2
	c0.4-0.8,0.4-1.5,0-2.3c-0.3-0.8,0-1.2,0.9-1.2c0.4,0,0.9,0,1.3,0c0.9,0.1,1.6-0.1,2.3-0.8c1.2-1.1,3.2-1.2,4.5-0.1
	c0.9,0.7,1.7,1,2.7,0.9c0.2,0,0.3,0,0.5,0c1.5,0,1.7,0.2,1.2,1.7c-0.2,0.6,0,1,0.1,1.5c0.4,1.1,0,1.5-1.1,1.5c-0.3,0-0.6,0-1,0
	c-0.9-0.1-1.7,0.1-2.5,0.7C53.1,42.4,52.3,42.6,51.5,42.5z M51.6,40.9c1.2,0,2.3-1.1,2.2-2.2c0-1.2-1.2-2.3-2.4-2.2
	c-1.2,0.1-2.1,1.1-2.1,2.3C49.4,40,50.3,41,51.6,40.9z"/>
<path class="st0" d="M61.4,36.4c0.8,0,1,0.1,1,0.9c0,0.7-0.1,0.7-0.9,0.7c-0.8,0-0.9-0.1-0.9-0.8C60.6,36.5,60.7,36.4,61.4,36.4z"/>
<path class="st0" d="M38.5,67.7c0.8-0.8,1.7-0.9,2.7-0.3c0.3-0.5,0.3-1.4,1.2-1.2c0.4,0.1,0.7,0.4,0.6,1c-0.1,0.5-0.5,0.7-1.5,0.5
	c-0.3,0.4,0,0.7,0.3,0.9c0.3,0.2,0.6,0.5,0.4,0.9c-0.1,0.5-0.5,0.6-1,0.6c-0.8,0-1.7,0-2.5,0c-1.1-0.1-1.3-0.7-0.6-1.6
	c0.1-0.2,0.2-0.4,0.1-0.6l0,0C38.5,68.1,38.5,67.9,38.5,67.7L38.5,67.7z"/>
<path class="st0" d="M38.2,68c-0.3-0.1-0.5-0.1-0.8-0.2c-0.5-0.2-0.6-0.6-0.5-1c0.1-0.4,0.4-0.6,0.8-0.6c0.4,0,0.7,0.3,0.7,0.7
	c0,0.3,0,0.5,0,0.8l0,0C38.3,67.7,38.1,67.7,38.2,68L38.2,68z"/>
<path class="st0" d="M35.4,65.5c0,0.7-0.1,0.8-0.8,0.8c-0.7,0-0.8-0.1-0.8-0.8c0-0.5,0.2-0.8,0.7-0.8C35.2,64.8,35.4,64.9,35.4,65.5
	z"/>
<path class="st0" d="M40,64.8c0.5,0,0.8,0.2,0.8,0.7c0,0.5-0.3,0.8-0.7,0.8c-0.5,0-0.8-0.3-0.8-0.8C39.1,65.1,39.5,64.8,40,64.8z"/>
<path class="st0" d="M57.9,47.2c0,0.6-0.5,1.1-1.2,1c-0.6-0.1-1-0.5-0.9-1c0-0.6,0.5-0.9,1.1-0.9C57.5,46.3,57.9,46.7,57.9,47.2z"/>
<path class="st1" d="M38.2,68c-0.1-0.3,0.1-0.4,0.4-0.4C38.5,67.9,38.5,68.1,38.2,68z"/>
</svg>
