<?xml version="1.0" encoding="UTF-8" standalone="no"?>
<!-- Created with Inkscape (http://www.inkscape.org/) -->

<svg
   xmlns:dc="http://purl.org/dc/elements/1.1/"
   xmlns:cc="http://creativecommons.org/ns#"
   xmlns:rdf="http://www.w3.org/1999/02/22-rdf-syntax-ns#"
   xmlns:svg="http://www.w3.org/2000/svg"
   xmlns="http://www.w3.org/2000/svg"
   xmlns:sodipodi="http://sodipodi.sourceforge.net/DTD/sodipodi-0.dtd"
   xmlns:inkscape="http://www.inkscape.org/namespaces/inkscape"
   width="1356.59"
   height="208.45799"
   viewBox="0 0 358.93108 55.154512"
   version="1.1"
   id="svg226"
   inkscape:version="0.92.4 (5da689c313, 2019-01-14)"
   sodipodi:docname="martiniano-molina-logo.svg">
  <defs
     id="defs220" />
  <sodipodi:namedview
     id="base"
     pagecolor="#ffffff"
     bordercolor="#666666"
     borderopacity="1.0"
     inkscape:pageopacity="0.0"
     inkscape:pageshadow="2"
     inkscape:zoom="0.35"
     inkscape:cx="-75.714286"
     inkscape:cy="560"
     inkscape:document-units="px"
     inkscape:current-layer="layer1"
     showgrid="false"
     units="px"
     inkscape:window-width="1600"
     inkscape:window-height="837"
     inkscape:window-x="-8"
     inkscape:window-y="-8"
     inkscape:window-maximized="1" />
  <metadata
     id="metadata223">
    <rdf:RDF>
      <cc:Work
         rdf:about="">
        <dc:format>image/svg+xml</dc:format>
        <dc:type
           rdf:resource="http://purl.org/dc/dcmitype/StillImage" />
        <dc:title></dc:title>
      </cc:Work>
    </rdf:RDF>
  </metadata>
  <g
     inkscape:label="Layer 1"
     inkscape:groupmode="layer"
     id="layer1"
     transform="translate(0,-241.84547)">
    <g
       transform="translate(511.85444,64.91998)"
       id="g187">
      <path
         d="m -502.03134,232.08003 h -9.18777 v -2.37507 h 3.04696 v -18.51618 h -3.04696 v -2.37507 h 9.18777 v 2.37507 h -3.04696 v 18.51618 h 3.04696 z"
         style="font-style:normal;font-weight:normal;font-size:32.00096512px;line-height:1.25;font-family:sans-serif;letter-spacing:0px;word-spacing:0px;fill:#757473;fill-opacity:1;stroke:none;stroke-width:0.80002409"
         id="path122"
         inkscape:connector-curvature="0" />
      <path
         d="m -478.98377,232.08003 h -3.82824 l -11.03158,-20.81313 v 20.81313 h -2.89071 v -23.26632 h 4.79702 l 10.0628,19.00057 v -19.00057 h 2.89071 z"
         style="font-style:normal;font-weight:normal;font-size:32.00096512px;line-height:1.25;font-family:sans-serif;letter-spacing:0px;word-spacing:0px;fill:#757473;fill-opacity:1;stroke:none;stroke-width:0.80002409"
         id="path124"
         inkscape:connector-curvature="0" />
      <path
         d="m -456.20183,211.56379 h -8.31275 v 20.51624 h -3.09384 v -20.51624 h -8.31275 v -2.75008 h 19.71934 z"
         style="font-style:normal;font-weight:normal;font-size:32.00096512px;line-height:1.25;font-family:sans-serif;letter-spacing:0px;word-spacing:0px;fill:#757473;fill-opacity:1;stroke:none;stroke-width:0.80002409"
         id="path126"
         inkscape:connector-curvature="0" />
      <path
         d="m -437.7169,232.08003 h -15.32858 v -23.26632 h 15.32858 v 2.75008 h -12.23474 v 6.37519 h 12.23474 v 2.75008 h -12.23474 v 8.64089 h 12.23474 z"
         style="font-style:normal;font-weight:normal;font-size:32.00096512px;line-height:1.25;font-family:sans-serif;letter-spacing:0px;word-spacing:0px;fill:#757473;fill-opacity:1;stroke:none;stroke-width:0.80002409"
         id="path128"
         inkscape:connector-curvature="0" />
      <path
         d="m -415.04434,232.08003 h -3.82824 l -11.03158,-20.81313 v 20.81313 h -2.89071 v -23.26632 h 4.79702 l 10.0628,19.00057 v -19.00057 h 2.89071 z"
         style="font-style:normal;font-weight:normal;font-size:32.00096512px;line-height:1.25;font-family:sans-serif;letter-spacing:0px;word-spacing:0px;fill:#757473;fill-opacity:1;stroke:none;stroke-width:0.80002409"
         id="path130"
         inkscape:connector-curvature="0" />
      <path
         d="m -389.19981,220.47031 q 0,3.17197 -1.39066,5.75017 -1.37504,2.5782 -3.67199,4.00012 -1.5938,0.98441 -3.56261,1.42192 -1.95318,0.43751 -5.1564,0.43751 h -5.87518 v -23.26632 h 5.81268 q 3.40635,0 5.40641,0.50001 2.01569,0.48439 3.40635,1.34379 2.37507,1.48442 3.70324,3.95325 1.32816,2.46882 1.32816,5.85955 z m -3.23447,-0.0469 q 0,-2.73446 -0.95315,-4.60951 -0.95316,-1.87506 -2.84384,-2.95322 -1.37504,-0.78127 -2.92196,-1.07815 -1.54692,-0.31251 -3.70324,-0.31251 h -2.90634 v 17.95366 h 2.90634 q 2.23444,0 3.89074,-0.32813 1.67193,-0.32814 3.0626,-1.21879 1.73442,-1.10941 2.59383,-2.92196 0.87502,-1.81256 0.87502,-4.53139 z"
         style="font-style:normal;font-weight:normal;font-size:32.00096512px;line-height:1.25;font-family:sans-serif;letter-spacing:0px;word-spacing:0px;fill:#757473;fill-opacity:1;stroke:none;stroke-width:0.80002409"
         id="path132"
         inkscape:connector-curvature="0" />
      <path
         d="m -368.83982,232.08003 h -15.32859 v -23.26632 h 15.32859 v 2.75008 h -12.23475 v 6.37519 h 12.23475 v 2.75008 h -12.23475 v 8.64089 h 12.23475 z"
         style="font-style:normal;font-weight:normal;font-size:32.00096512px;line-height:1.25;font-family:sans-serif;letter-spacing:0px;word-spacing:0px;fill:#757473;fill-opacity:1;stroke:none;stroke-width:0.80002409"
         id="path134"
         inkscape:connector-curvature="0" />
      <path
         d="m -346.16726,232.08003 h -3.82824 l -11.03159,-20.81313 v 20.81313 h -2.89071 v -23.26632 h 4.79702 l 10.0628,19.00057 v -19.00057 h 2.89072 z"
         style="font-style:normal;font-weight:normal;font-size:32.00096512px;line-height:1.25;font-family:sans-serif;letter-spacing:0px;word-spacing:0px;fill:#757473;fill-opacity:1;stroke:none;stroke-width:0.80002409"
         id="path136"
         inkscape:connector-curvature="0" />
      <path
         d="m -323.38532,211.56379 h -8.31275 v 20.51624 h -3.09384 v -20.51624 h -8.31275 v -2.75008 h 19.71934 z"
         style="font-style:normal;font-weight:normal;font-size:32.00096512px;line-height:1.25;font-family:sans-serif;letter-spacing:0px;word-spacing:0px;fill:#757473;fill-opacity:1;stroke:none;stroke-width:0.80002409"
         id="path138"
         inkscape:connector-curvature="0" />
      <path
         d="m -303.75973,232.08003 h -3.29697 l -2.28132,-6.48457 h -10.06281 l -2.28131,6.48457 h -3.14072 l 8.469,-23.26632 h 4.12513 z m -6.53145,-9.1409 -4.07824,-11.42222 -4.09388,11.42222 z"
         style="font-style:normal;font-weight:normal;font-size:32.00096512px;line-height:1.25;font-family:sans-serif;letter-spacing:0px;word-spacing:0px;fill:#757473;fill-opacity:1;stroke:none;stroke-width:0.80002409"
         id="path140"
         inkscape:connector-curvature="0" />
      <path
         d="m -499.66625,206.16531 -6.93093,-22.58456 h -0.17721 q 0.37412,6.89154 0.37412,9.19529 v 13.38927 h -5.45417 v -28.78694 h 8.30923 l 6.81278,22.01354 h 0.11814 l 7.22628,-22.01354 h 8.30922 v 28.78694 h -5.69044 v -13.62556 q 0,-0.96481 0.0197,-2.22498 0.0394,-1.26017 0.27566,-6.69464 h -0.17721 l -7.42317,22.54518 z"
         style="font-style:normal;font-variant:normal;font-weight:bold;font-stretch:normal;font-size:40.32535553px;line-height:1.25;font-family:'Open Sans';-inkscape-font-specification:'Open Sans, Bold';font-variant-ligatures:normal;font-variant-caps:normal;font-variant-numeric:normal;font-feature-settings:normal;text-align:start;letter-spacing:0px;word-spacing:0px;writing-mode:lr-tb;text-anchor:start;fill:#757473;fill-opacity:1;stroke:none;stroke-width:3.45901251"
         id="path97"
         inkscape:connector-curvature="0" />
      <path
         d="m -456.19048,206.16531 -2.08715,-6.85216 h -10.49483 l -2.08716,6.85216 h -6.5765 l 10.1601,-28.90509 h 7.46256 l 10.19948,28.90509 z m -3.54422,-11.97159 q -2.89445,-9.31342 -3.26856,-10.53421 -0.35442,-1.22078 -0.51194,-1.92963 -0.64978,2.52034 -3.72144,12.46384 z"
         style="font-style:normal;font-variant:normal;font-weight:bold;font-stretch:normal;font-size:40.32535553px;line-height:1.25;font-family:'Open Sans';-inkscape-font-specification:'Open Sans, Bold';font-variant-ligatures:normal;font-variant-caps:normal;font-variant-numeric:normal;font-feature-settings:normal;text-align:start;letter-spacing:0px;word-spacing:0px;writing-mode:lr-tb;text-anchor:start;fill:#757473;fill-opacity:1;stroke:none;stroke-width:3.45901251"
         id="path99"
         inkscape:connector-curvature="0" />
      <path
         d="m -437.05169,189.23181 6.00548,-11.85344 h 6.5765 l -9.5497,17.58327 v 11.20367 h -6.06456 v -11.00677 l -9.5497,-17.78017 h 6.61587 z"
         style="font-style:normal;font-variant:normal;font-weight:bold;font-stretch:normal;font-size:40.32535553px;line-height:1.25;font-family:'Open Sans';-inkscape-font-specification:'Open Sans, Bold';font-variant-ligatures:normal;font-variant-caps:normal;font-variant-numeric:normal;font-feature-settings:normal;text-align:start;letter-spacing:0px;word-spacing:0px;writing-mode:lr-tb;text-anchor:start;fill:#757473;fill-opacity:1;stroke:none;stroke-width:3.45901251"
         id="path101"
         inkscape:connector-curvature="0" />
      <path
         d="m -414.70341,190.15725 h 1.96901 q 2.89445,0 4.27275,-0.96482 1.37831,-0.96481 1.37831,-3.03227 0,-2.04778 -1.41769,-2.91414 -1.39799,-0.86637 -4.35151,-0.86637 h -1.85087 z m 0,4.96191 v 11.04615 h -6.10394 v -28.78694 h 8.38799 q 5.86766,0 8.68334,2.14622 2.81569,2.12653 2.81569,6.47805 0,2.54002 -1.398,4.52872 -1.398,1.96901 -3.95771,3.09135 6.49774,9.70723 8.46675,12.5426 h -6.7734 l -6.87185,-11.04615 z"
         style="font-style:normal;font-variant:normal;font-weight:bold;font-stretch:normal;font-size:40.32535553px;line-height:1.25;font-family:'Open Sans';-inkscape-font-specification:'Open Sans, Bold';font-variant-ligatures:normal;font-variant-caps:normal;font-variant-numeric:normal;font-feature-settings:normal;text-align:start;letter-spacing:0px;word-spacing:0px;writing-mode:lr-tb;text-anchor:start;fill:#757473;fill-opacity:1;stroke:none;stroke-width:3.45901251"
         id="path103"
         inkscape:connector-curvature="0" />
      <path
         d="m -376.56366,206.16531 -2.08715,-6.85216 h -10.49484 l -2.08715,6.85216 h -6.5765 l 10.1601,-28.90509 h 7.46256 l 10.19948,28.90509 z m -3.54422,-11.97159 q -2.89445,-9.31342 -3.26856,-10.53421 -0.35442,-1.22078 -0.51194,-1.92963 -0.64978,2.52034 -3.72144,12.46384 z"
         style="font-style:normal;font-variant:normal;font-weight:bold;font-stretch:normal;font-size:40.32535553px;line-height:1.25;font-family:'Open Sans';-inkscape-font-specification:'Open Sans, Bold';font-variant-ligatures:normal;font-variant-caps:normal;font-variant-numeric:normal;font-feature-settings:normal;text-align:start;letter-spacing:0px;word-spacing:0px;writing-mode:lr-tb;text-anchor:start;fill:#757473;fill-opacity:1;stroke:none;stroke-width:3.45901251"
         id="path105"
         inkscape:connector-curvature="0" />
      <path
         d="m -343.72055,206.16531 -6.93092,-22.58456 h -0.17721 q 0.37412,6.89154 0.37412,9.19529 v 13.38927 h -5.45417 v -28.78694 h 8.30923 l 6.81278,22.01354 h 0.11814 l 7.22627,-22.01354 h 8.30923 v 28.78694 h -5.69044 v -13.62556 q 0,-0.96481 0.0197,-2.22498 0.0394,-1.26017 0.27566,-6.69464 h -0.17721 l -7.42317,22.54518 z"
         style="font-style:normal;font-variant:normal;font-weight:bold;font-stretch:normal;font-size:40.32535553px;line-height:1.25;font-family:'Open Sans';-inkscape-font-specification:'Open Sans, Bold';font-variant-ligatures:normal;font-variant-caps:normal;font-variant-numeric:normal;font-feature-settings:normal;text-align:start;letter-spacing:0px;word-spacing:0px;writing-mode:lr-tb;text-anchor:start;fill:#757473;fill-opacity:1;stroke:none;stroke-width:3.45901251"
         id="path107"
         inkscape:connector-curvature="0" />
      <path
         d="m -301.28834,206.16531 h -16.57908 v -28.78694 h 16.57908 v 5.00128 h -10.47515 v 6.32053 h 9.74661 v 5.00129 h -9.74661 v 7.42317 h 10.47515 z"
         style="font-style:normal;font-variant:normal;font-weight:bold;font-stretch:normal;font-size:40.32535553px;line-height:1.25;font-family:'Open Sans';-inkscape-font-specification:'Open Sans, Bold';font-variant-ligatures:normal;font-variant-caps:normal;font-variant-numeric:normal;font-feature-settings:normal;text-align:start;letter-spacing:0px;word-spacing:0px;writing-mode:lr-tb;text-anchor:start;fill:#757473;fill-opacity:1;stroke:none;stroke-width:3.45901251"
         id="path109"
         inkscape:connector-curvature="0" />
      <path
         d="m -269.72509,206.16531 h -7.75791 l -12.52291,-21.77726 h -0.17721 q 0.37411,5.7692 0.37411,8.23046 v 13.5468 h -5.45416 v -28.78694 h 7.69883 l 12.50322,21.56067 h 0.13784 q -0.29536,-5.61168 -0.29536,-7.93511 v -13.62556 h 5.49355 z"
         style="font-style:normal;font-variant:normal;font-weight:bold;font-stretch:normal;font-size:40.32535553px;line-height:1.25;font-family:'Open Sans';-inkscape-font-specification:'Open Sans, Bold';font-variant-ligatures:normal;font-variant-caps:normal;font-variant-numeric:normal;font-feature-settings:normal;text-align:start;letter-spacing:0px;word-spacing:0px;writing-mode:lr-tb;text-anchor:start;fill:#757473;fill-opacity:1;stroke:none;stroke-width:3.45901251"
         id="path111"
         inkscape:connector-curvature="0" />
      <path
         d="m -238.6147,191.49618 q 0,7.10813 -4.05617,10.88863 -4.03647,3.7805 -11.67624,3.7805 h -8.1517 v -28.78694 h 9.03776 q 7.04906,0 10.9477,3.72143 3.89865,3.72143 3.89865,10.39638 z m -6.34022,0.15752 q 0,-9.27405 -8.19109,-9.27405 h -3.24887 v 18.74499 h 2.61879 q 8.82117,0 8.82117,-9.47094 z"
         style="font-style:normal;font-variant:normal;font-weight:bold;font-stretch:normal;font-size:40.32535553px;line-height:1.25;font-family:'Open Sans';-inkscape-font-specification:'Open Sans, Bold';font-variant-ligatures:normal;font-variant-caps:normal;font-variant-numeric:normal;font-feature-settings:normal;text-align:start;letter-spacing:0px;word-spacing:0px;writing-mode:lr-tb;text-anchor:start;fill:#757473;fill-opacity:1;stroke:none;stroke-width:3.45901251"
         id="path113"
         inkscape:connector-curvature="0" />
      <path
         d="m -206.51981,191.73246 q 0,7.14751 -3.54422,10.98708 -3.54422,3.83958 -10.1601,3.83958 -6.61588,0 -10.1601,-3.83958 -3.54422,-3.83957 -3.54422,-11.02646 0,-7.18689 3.54422,-10.96739 3.56391,-3.8002 10.19948,-3.8002 6.63557,0 10.14041,3.81989 3.52453,3.81988 3.52453,10.98708 z m -21.00935,0 q 0,4.82408 1.83118,7.26565 1.83118,2.44158 5.47385,2.44158 7.30503,0 7.30503,-9.70723 0,-9.72692 -7.26565,-9.72692 -3.64267,0 -5.49354,2.46127 -1.85087,2.44157 -1.85087,7.26565 z"
         style="font-style:normal;font-variant:normal;font-weight:bold;font-stretch:normal;font-size:40.32535553px;line-height:1.25;font-family:'Open Sans';-inkscape-font-specification:'Open Sans, Bold';font-variant-ligatures:normal;font-variant-caps:normal;font-variant-numeric:normal;font-feature-settings:normal;text-align:start;letter-spacing:0px;word-spacing:0px;writing-mode:lr-tb;text-anchor:start;fill:#757473;fill-opacity:1;stroke:none;stroke-width:3.45901251"
         id="path115"
         inkscape:connector-curvature="0" />
      <path
         d="m -181.74967,206.16531 h -21.42284 v -3.95771 l 13.80277,-19.78856 h -13.42866 v -5.04067 h 20.67462 v 3.93802 l -13.78308,19.80825 h 14.15719 z"
         style="font-style:normal;font-variant:normal;font-weight:bold;font-stretch:normal;font-size:40.32535553px;line-height:1.25;font-family:'Open Sans';-inkscape-font-specification:'Open Sans, Bold';font-variant-ligatures:normal;font-variant-caps:normal;font-variant-numeric:normal;font-feature-settings:normal;text-align:start;letter-spacing:0px;word-spacing:0px;writing-mode:lr-tb;text-anchor:start;fill:#757473;fill-opacity:1;stroke:none;stroke-width:3.45901251"
         id="path117"
         inkscape:connector-curvature="0" />
      <path
         d="m -159.49982,206.16531 -2.08715,-6.85216 h -10.49483 l -2.08715,6.85216 h -6.5765 l 10.1601,-28.90509 h 7.46255 l 10.19948,28.90509 z m -3.54422,-11.97159 q -2.89445,-9.31342 -3.26856,-10.53421 -0.35442,-1.22078 -0.51194,-1.92963 -0.64978,2.52034 -3.72143,12.46384 z"
         style="font-style:normal;font-variant:normal;font-weight:bold;font-stretch:normal;font-size:40.32535553px;line-height:1.25;font-family:'Open Sans';-inkscape-font-specification:'Open Sans, Bold';font-variant-ligatures:normal;font-variant-caps:normal;font-variant-numeric:normal;font-feature-settings:normal;text-align:start;letter-spacing:0px;word-spacing:0px;writing-mode:lr-tb;text-anchor:start;fill:#757473;fill-opacity:1;stroke:none;stroke-width:3.45901251"
         id="path119"
         inkscape:connector-curvature="0" />
    </g>
  </g>
</svg>
