<?xml version="1.0" encoding="utf-8"?>
<!-- Generator: Adobe Illustrator 21.0.0, SVG Export Plug-In . SVG Version: 6.00 Build 0)  -->
<svg version="1.1" id="Capa_1" xmlns="http://www.w3.org/2000/svg" xmlns:xlink="http://www.w3.org/1999/xlink" x="0px" y="0px"
	 viewBox="0 0 100 100" style="enable-background:new 0 0 100 100;" xml:space="preserve">
<style type="text/css">
	.st0{fill:#605393;}
</style>
<path class="st0" d="M40.9,37.5c1.9-2.7,4.3-4.4,7.3-5.1c0.7-0.2,1.5-0.1,2.2-0.1c0.9,0,0.9,0,1.3-1c0.7-2.1,2.1-3.4,4.2-4
	c0.3-0.1,0.7-0.1,1.1-0.1c3.5,0,6.9,0,10.4,0c3.4,0,5.6,2.9,5.6,5.7c0,5,0,10.1,0,15.1c0,0.9,0,1.7,1,2.1c0.5,0.2,0.6,0.8,0.6,1.3
	c0.1,2.1-0.1,4-0.8,6c-1,3-1.8,6-2.7,9.1c-0.2,0.7-0.5,1.5-0.7,2.2c-0.4,1.7-2.3,2.9-3.7,3c-0.3,0-0.6,0-1,0c-10.6,0-21.2,0-31.9,0
	c-2.6,0-3.8-0.9-4.6-3.3c-1.2-3.9-2.4-7.8-3.5-11.7c-0.4-1.5-0.5-2.9-0.6-4.3c0-0.7,0.3-1.2,0.8-1.6c0.7-0.4,1.3-0.8,2-1.3
	c0.9-0.6,1-0.7,0.6-1.6c-0.4-1.2-0.8-2.3-1.3-3.5c-0.5-1.2-0.9-2.4-1.3-3.7c-0.8-2.2-0.2-5,1.1-6.8c1.5-2,3.4-2.9,5.7-3
	c3.2,0,5.6,1.5,7.1,4.3C40.3,36.1,40.6,36.8,40.9,37.5z M31.6,47.1c0.4,0,0.8-0.1,1.1-0.4c1.3-0.9,2.6-1.7,3.9-2.5
	c0.6-0.4,1.1-0.4,1.8-0.1c0.5,0.2,0.9,0.4,1.4,0.6c0.6,0.2,1.2,0.6,1.9,0.5c0,0.1,0.1,0.2,0.1,0.2c0.1,0,0.2,0,0.1-0.1
	c0-0.1-0.1-0.1-0.2-0.1c0-0.2,0-0.4,0-0.6c-1.1-2.6-2.1-5.2-3.2-7.8c-0.5-1.1-1.3-2.1-2.4-2.8c-2.6-1.7-6.4-1-8,1.9
	c-0.8,1.4-1.1,3-0.3,4.5c0.7-0.7,1.4-1.3,2-1.9c0.6-0.6,1.3-1.1,2.1-1.4c0.9-0.3,1.8-0.5,2.7-0.7c0.6-0.1,1.3,0.5,1.4,1
	c0.2,2.2,0,4.3-1.5,6.1c-0.7,0.9-1.5,1.7-2.3,2.6C31.9,46.3,31.5,46.5,31.6,47.1c-0.1,0-0.2,0-0.3,0.1c0.1,0,0.1,0.1,0.2,0.1
	C31.5,47.2,31.6,47.2,31.6,47.1z M53.3,32.6c1.1,0,1.8,0.6,2.7,1c4.9,2.2,7.5,8.4,5.7,13.8c-0.1,0.3-0.2,0.6,0,0.8
	c1.6-0.8,3.2-1.6,4.7-2.5c0.6-0.4,1.1-0.3,1.6,0.1c0.3,0.2,0.5,0.4,0.7,0.6c0.8,0.5,1.4,1.3,2.4,1.6c0-4.9,0-9.6,0-14.3
	c0-0.3,0-0.5,0-0.8c0.1-2-1.8-3.7-3.7-3.7c-3.5,0-7,0-10.5,0c-0.8,0-1.5,0.3-2.1,0.8C54.1,30.7,53.4,31.4,53.3,32.6z M44.1,45.5
	c0.5-0.4,1.1-0.8,1.7-1.3c-0.7-0.8-1.4-1.5-2.1-2.2c0.2-0.2,0.2-0.4,0.3-0.5c0.8-0.8,0.9-0.8,1.7,0c0.5,0.5,1,0.9,1.5,1.4
	c0.9-1,2-1.8,2.9-3.1c-0.8-0.7-1.5-1.3-2.1-1.8c-0.1-0.4,0-0.5,0.1-0.6c0.7-0.8,0.7-0.8,1.5,0c0.5,0.5,1,1,1.4,1.4
	c0.2,0,0.2,0,0.3,0c0.5-0.5,1-1,1.5-1.4c0.7-0.6,0.8-0.6,1.4,0c0.2,0.2,0.4,0.3,0.4,0.9c-0.4,0.4-1,1-1.6,1.5
	c-0.3,0.3-0.5,0.7-0.1,1c0.8,0.8,1.5,1.7,2.6,2.4c0.6-0.6,1-1.2,1.6-1.7c0.5-0.5,0.7-0.5,1.3,0c0.2,0.2,0.4,0.3,0.4,0.7
	c-0.5,0.5-1.1,1.1-1.6,1.6c-0.4,0.5-0.5,0.7,0,1.2c0.5,0.5,1.1,1,1.7,1.6c-0.5,0.4-0.8,0.8-1.3,1.2c-0.5-0.5-1-1.1-1.5-1.6
	c-0.5-0.5-0.7-0.5-1.2-0.1c-0.8,0.7-1.5,1.5-2.3,2.3c0.7,0.7,1.2,1.4,1.9,1.9c0.9,0.6,1.9,1,3.1,0.4c0.9-0.4,1.3-1.1,1.8-1.9
	c1.4-2.5,1.7-5,0.9-7.8c-1.4-4.5-6.5-8.1-11.9-6.6c-2.7,0.7-4.7,2.4-6.1,4.9c-0.2,0.4-0.4,0.7-0.2,1.2
	C42.7,42.1,43.4,43.9,44.1,45.5z M26.9,53.7c0.6,0,1.1,0,1.7,0c8.1,0,16.1,0,24.2,0c0.7,0,1.4,0,2.1,0c0.3,0,0.7,0.1,0.7-0.4
	c0-0.3,0.1-0.7-0.4-0.9c-2.1-0.8-4.2-1.7-6.4-2.5c-3.1-1.2-6.2-2.3-9.3-3.6c-1.3-0.6-2.3-0.6-3.4,0.3c-0.1,0.1-0.2,0.1-0.2,0.2
	c-2.8,1.8-5.5,3.6-8.3,5.3C26.9,52.5,26.8,52.9,26.9,53.7z M64.9,53.7c0.7,0,1.4,0,2.1,0c1.7,0,3.4,0,5.1,0c0.7,0,0.9-0.2,0.9-0.9
	c0-0.6-0.1-1-0.6-1.4c-0.5-0.4-1.1-0.8-1.6-1.3c-1-0.8-2-1.5-3-2.3c-0.5-0.4-1-0.5-1.5-0.1c-0.8,0.5-1.5,0.9-2.3,1.3
	c-1.9,1-3.9,2.1-5.8,3.1c-0.1,0.1-0.3,0.1-0.4,0.2c-0.5,0.3-0.4,0.7-0.3,1.1c0.1,0.5,0.5,0.3,0.8,0.3C60.5,53.7,62.7,53.7,64.9,53.7
	z M54.8,63.6c-2.9,0-5.7,0-8.5,0c-0.6,0-1.1,0.5-1.3,1c-0.2,0.6,0.1,1,0.8,1.3c0.2,0.1,0.5,0.2,0.7,0.2c2.7,0,5.5,0,8.3,0
	C54.8,65.3,54.8,64.5,54.8,63.6z M53.2,57.9c0-0.9,0-1.7,0-2.5c-2.3,0-4.5,0-6.7,0c-0.6,0-1.3,0-1.9,0c-0.6,0-1.1,0.5-1.2,1.1
	c-0.1,0.6,0.1,0.8,0.8,1.2c0.3,0.2,0.6,0.3,0.9,0.3C47.7,57.9,50.4,57.9,53.2,57.9z M29.8,46.4c1-1.7,2.3-2.7,3.3-3.9
	c0.8-1.1,1.5-2.3,1.4-3.7c0-0.5-0.3-0.7-0.7-0.5c-0.8,0.4-1.6,0.6-2.4,1.2c-0.8,0.6-1.3,1.5-2,2.1c-0.7,0.6-0.8,1.3-0.4,2.2
	C29.2,44.5,29.7,45.2,29.8,46.4z M41.4,62c2.7,0,5.2,0,7.6,0c0.5,0,0.9-0.2,1.3-0.4c0.5-0.3,0.6-1,0.2-1.5c-0.3-0.4-0.6-0.6-1.2-0.6
	c-1.3,0-2.5,0-3.8,0c-1.3,0-2.6,0-4,0C41.6,60.4,41.8,61.1,41.4,62z M43.4,63.6c-2.7,0-5.2,0-7.8,0c-0.8,0-1.1,0.3-1.3,1.1
	c-0.2,0.5,0.3,0.7,0.6,1c0.3,0.4,0.8,0.4,1.3,0.4c1.9,0,3.7,0,5.6,0c0.6,0,1.1,0.1,1.7-0.1C43.4,65.2,43.4,64.5,43.4,63.6z
	 M64.3,55.3c-2.4,0-4.5,0-6.7,0c-0.5,0-1.1,0-1.6,0c-0.5,0-1,0.5-1.1,1c-0.1,0.6,0.1,0.9,0.7,1.3c0.4,0.2,0.8,0.3,1.2,0.3
	c1.3,0,2.5,0,3.8,0c1.2,0,2.3,0,3.6,0C63.7,57,63.7,56.2,64.3,55.3z M51.4,70.3c2.5,0,4.9,0,7.3,0c0.2,0,0.3,0,0.5,0
	c0.7-0.1,1.1-0.6,1.4-1.2c0.2-0.3-0.2-0.9-0.6-1.2c-0.3-0.2-0.7-0.1-1.1-0.1c-2.1,0-4.3,0-6.4,0c-0.4,0-0.7-0.1-1.1,0.2
	C52.1,68.7,51.3,69.4,51.4,70.3z M31,67.8c0.4,2.2,1.5,2.3,3.3,2.5c1.5,0.1,3,0,4.4,0c0.6,0,1.1-0.2,1.6-0.6c0.7-0.6,0.6-1.1,0-1.7
	c-0.3-0.3-0.7-0.2-1-0.2c-1.9,0-3.7,0-5.6,0C32.8,67.8,31.9,67.8,31,67.8z M41.8,55.3c-2,0-3.9,0-5.8,0c-0.5,0-0.8,0.1-1.2,0.3
	c-0.6,0.4-0.7,1-0.2,1.6c0.4,0.5,0.9,0.7,1.5,0.7c1.1-0.1,2.1,0,3.2,0c0.8,0,1.7,0,2.5,0C41.8,57,41.8,56.2,41.8,55.3z M42.5,70.3
	c2,0,3.8,0,5.7,0c0.4,0,0.8-0.2,1.2-0.4c0.6-0.3,0.4-0.9,0.4-1.4c-0.1-0.5-0.4-0.7-0.9-0.7c-2.1,0-4.2,0-6.3,0
	C42.5,68.7,42.5,69.4,42.5,70.3z M32.6,62c2.1,0,4,0,6,0c0.8,0,1.3-0.5,1.3-1.2c0-0.6-0.5-1.2-1.2-1.3c-2,0-4.1,0-6.2,0
	C32.6,60.4,32.6,61.1,32.6,62z M52.4,62c1.9,0,3.7,0,5.5,0c0.5,0,0.9-0.2,1.3-0.4c0.5-0.3,0.6-1,0.3-1.5c-0.3-0.4-0.8-0.7-1.4-0.6
	c-1.3,0-2.6,0-4,0c-0.6,0-1.2-0.1-1.8,0.1C52.4,60.4,52.4,61.1,52.4,62z M48.3,44.2c0.8,0.8,1.6,1.6,2.3,2.3c0.4,0.4,0.7,0.4,1.1,0
	c0.8-0.8,1.6-1.5,2.4-2.4c-0.8-0.8-1.5-1.5-2.2-2.2c-0.5-0.5-0.7-0.5-1.2-0.1C49.9,42.6,49.1,43.4,48.3,44.2z M61.1,62
	c2,0,3.8,0,5.5,0c0.8,0,1.3-0.5,1.3-1.2c0-0.7-0.5-1.3-1.3-1.3c-1.8,0-3.6,0-5.4,0C61.4,60.4,61.6,61.1,61.1,62z M63.1,63.6
	c-1.9,0-3.6,0-5.4,0c-0.6,0-1.2,0.5-1.3,1c-0.1,0.5,0.3,1.1,0.9,1.3c0.1,0.1,0.3,0.2,0.4,0.2c1.8,0,3.6,0.1,5.4-0.1
	C63.1,65.2,63.1,64.5,63.1,63.6z M72.3,55.3c-1.8,0-3.5,0-5.3,0c-0.8,0-1.3,0.6-1.3,1.3c0,0.6,0.5,1.2,1.2,1.2c1.5,0,3,0,4.4,0
	c0.4,0,0.7-0.2,0.7-0.5C72.1,56.7,72.7,56.2,72.3,55.3z M62.2,70.3c1.2,0,2.3,0.1,3.3,0c1.7-0.2,2.9-0.2,3.3-2.5c-1.1,0-2.2,0-3.3,0
	c-1.1,0-2.2,0-3.3,0C62.2,68.7,62.2,69.4,62.2,70.3z M32.5,55.4c-1.8,0-3.4,0-5,0c-0.3,0.9,0.2,1.7,0.4,2.5c1.6-0.1,3.1,0.1,4.6-0.1
	C32.5,57,32.5,56.2,32.5,55.4z M70.2,63.6c-1.4,0-2.6,0-3.8,0c-0.2,0-0.3,0-0.5,0c-0.6,0.1-1.1,0.6-1.2,1.1
	c-0.1,0.6,0.1,0.8,0.8,1.2c0.5,0.3,0.9,0.2,1.4,0.2C69.8,66.1,69.1,66.7,70.2,63.6z M32.5,66.1c0-0.9,0-1.7,0-2.5
	c-1,0-1.9-0.1-2.8,0.1c0.3,0.9,0.5,1.6,0.8,2.4C31.1,66.1,31.8,66.1,32.5,66.1z M28.4,59.6c0.2,0.7,0.5,1.3,0.7,2
	c0.1,0.2,0.4,0.4,0.7,0.3c0.7-0.1,1.2-0.7,1.1-1.3c0-0.6-0.5-1.2-1.2-1.2C29.3,59.5,28.9,59.4,28.4,59.6z M49.7,48.1
	c-0.6-0.6-1.3-1.3-2-1.9c-0.7-0.6-0.9-0.6-1.5,0.1c-0.4,0.5-0.4,0.9,0.2,1c1,0.2,1.8,0.7,2.8,1C49.4,48.3,49.6,48.4,49.7,48.1z
	 M71.1,59.5c-0.5,0-1-0.1-1.5,0.1c0,0.6,0,1.3,0,1.9c0,0.2,0,0.4,0.3,0.5c0.2,0,0.4,0,0.6-0.1c0.2-0.1,0.3-0.3,0.4-0.5
	C71.1,60.8,71.2,60.2,71.1,59.5z"/>
</svg>
