<?xml version="1.0" encoding="utf-8"?>
<!-- Generator: Adobe Illustrator 21.0.0, SVG Export Plug-In . SVG Version: 6.00 Build 0)  -->
<svg version="1.1" id="Capa_1" xmlns="http://www.w3.org/2000/svg" xmlns:xlink="http://www.w3.org/1999/xlink" x="0px" y="0px"
	 viewBox="0 0 100 100" style="enable-background:new 0 0 100 100;" xml:space="preserve">
<style type="text/css">
	.st0{fill:#605393;}
</style>
<path class="st0" d="M64.9,60.8c0.7,0.3,1.5,0.7,2.4,0.9c1,0.2,2.1,0.1,3.1-0.3c2.2-0.9,4.5-1,6.7-0.2c2.1,0.8,3.1,2.5,3.3,4.7
	c0.1,2,0.1,4,0,6.1c-0.2,3-2.7,5.3-5.4,5.1c-0.7-0.1-1.5,0-2.2,0c-0.6,0-1.3-0.1-1.8-0.4c-1.6-0.8-3.1-0.9-4.7,0
	c-0.6,0.3-1.3,0.4-2,0.4c-0.7,0-1.4,0-2.1,0c-1.3,0.1-2.4-0.2-3.4-1.1c-0.6-0.5-1.2-0.6-1.9-0.6c-6.3,0-12.5,0-18.8,0
	c-2.2,0-2.3-0.1-2.5-2.3c-0.2-2-0.5-4-0.7-6c-0.3-2.1-0.5-4.2-0.8-6.3c-0.3-2.1-0.6-4.3-0.9-6.4c-0.3-2-0.5-4.1-0.7-6.1
	c-0.1-1.2-0.1-1.2-1.2-1.2c-1.9,0-1.7-0.3-1.7-1.8c0-0.9,0-1.7,0-2.6c0-0.9,0.2-1.1,1.2-1.1c1.1,0,2.1,0,3.3,0c0-1.4,0-2.7,0-4
	c0-1.2-0.2-2.4,0.1-3.5c0.3-1.1,1.2-2,2.1-2.8c1.2-1.2,1.6-2.6,1.4-4.3c-0.1-1.1-0.1-2.1,0-3.2c0-1.1,0.3-1.3,1.3-1.3
	c1.6,0,3.2,0,4.8,0c1,0,1.3,0.3,1.4,1.3c0,1.5,0,3,0,4.5c0,0.8,0.1,1.5,0.7,2.2c0.8,0.8,1.4,1.8,2.2,2.7c0.5,0.6,0.7,1.2,0.6,1.9
	c0,1.9,0,3.8,0,5.7c0,0.7,0.7,1.2,1.4,0.8c0.2-0.1,0.3-0.3,0.3-0.5c0-0.9,0.1-1.8,0-2.7c-0.1-1.2,0.3-2.1,1.2-2.8
	c0.2-0.1,0.3-0.3,0.5-0.4c1.3-1.3,1.3-1.3,1.1-3.2c-0.4-0.3-0.8-0.2-1.2-0.2c-1.3-0.1-1.6-0.5-1.5-1.7c0.3-2.8,1.7-5,4.1-6.4
	c1.3-0.8,2.7-1.1,4.2-1.1c2.8,0,5.6,0,8.4,0c1.3,0,1.5,0.2,1.5,1.4c0,1,0,2,0,3c0,0.7-0.3,0.9-1,1c-0.7,0-1.4,0-2.1,0
	c-0.9-0.1-1.7,0.3-2.2,1.1c0.7,1.4,1.4,2.7,2,4.1c0.4,0.8-0.3,1.6-1.1,1.5c-0.3,0-0.4-0.3-0.6-0.5c-0.5-0.9-0.9-1.9-1.4-2.8
	c-0.2-0.3-0.2-0.9-0.8-0.8c-0.5,0.1-1,0.7-1.1,1.2c0,1.3-0.1,2.5,1.1,3.4c0.9,0.6,1.6,1.6,2.4,2.3c0.7,0.6,1,1.3,1,2.2
	c0,0.6-0.3,1.4,0.2,1.8c0.5,0.4,1.2,0.1,1.8,0.2c0.4,0,0.9,0,1.3,0c1,0,1.3,0.3,1.4,1.3c0,1,0,1.9,0,2.9c-0.1,1-0.3,1.2-1.4,1.3
	c-0.2,0-0.3,0-0.5,0c-0.9,0-1.1,0.2-1.2,1.1c-0.1,0.9-0.2,1.8-0.3,2.7c-0.4,2.9-0.7,5.9-1.1,8.8C64.9,60.1,64.7,60.4,64.9,60.8z
	 M34.1,47.2c0,0.7,0,1.2,0.1,1.7c0.3,2.1,0.6,4.3,0.9,6.4c0.3,2,0.5,4,0.7,6c0.3,2.1,0.6,4.3,0.9,6.4c0.2,1.7,0.4,3.5,0.7,5.2
	c0.1,0.4,0.3,0.6,0.8,0.6c0.3,0,0.5,0,0.8,0c5.5,0,11,0,16.6,0c0.4,0,0.8,0.1,1.3-0.2c0.1-0.7-0.3-1.3-0.2-2c0.1-1.6,0-3.2,0-4.8
	c0-3.4,2.1-5.6,5.5-5.8c0.7,0,0.8-0.3,0.9-0.9c0.3-1.7,0.5-3.5,0.7-5.2c0.2-2.1,0.6-4.2,0.8-6.3c0-0.4,0.2-0.8-0.2-1.3
	c-2.9,0-5.8,0-8.7,0c-0.1,0-0.2,0-0.3,0c-0.2,0-0.3,0.1-0.3,0.3c-0.3,1,0,1.8,1,2.3c1.4,0.7,2.8,1.3,4.1,2.1c1.2,0.7,1.7,2,1.3,3.3
	c-0.4,1.5-1.3,2.2-2.9,2.2c-0.6,0-1.1-0.1-1.7-0.4c-0.6-0.3-1.1-0.6-1.7-0.9c-0.2,0.5-0.1,1-0.1,1.5c0,2,0,3.9,0,5.9
	c0,2.3-1.9,3.8-3.7,3.8c-3.1,0-6.2,0-9.2,0c-0.7,0-1.2-0.2-1.8-0.6c-1.3-0.9-1.8-2.1-1.8-3.7c0-4.7,0-9.5,0-14.2c0-0.4,0-0.7,0-1.1
	c0-0.4-0.2-0.6-0.6-0.6C36.5,47.2,35.4,47.2,34.1,47.2z M52.9,43.6c-0.5,0-0.8,0-1.1,0c-3.4,0-6.8,0-10.2,0c-0.3,0-0.5,0-0.8,0
	c-0.4,0-0.6,0.2-0.6,0.6c0,0.4,0,0.7,0,1.1c0,4.6,0,9.2,0,13.9c0,1.4,0,2.8,0,4.1c0,1.1,0.5,1.8,1.7,2c0.3-0.5,0.2-1.1,0.2-1.6
	c0-2,0-3.9,0-5.9c0-0.5,0.2-0.8,0.7-0.8c0.9,0,1.1,0.1,1.1,1.1c0,2,0,3.9,0,5.9c0,0.4-0.1,0.8,0.2,1.2c1.5,0.1,1.5,0.1,1.5-1.3
	c0-2,0-4,0-6.1c0-0.6,0.3-0.8,0.9-0.8c1,0,1,0,1.1,1.1c0,0.6,0,1.2,0,1.8c0,1.6,0,3.2,0,4.8c0,0.3,0,0.5,0.3,0.7
	c0.8,0.3,1.3-0.1,1.4-0.9c0-0.4,0-0.7,0-1.1c0-1.7,0-3.4,0-5.1c0-0.4-0.1-0.8,0.3-1c0.4-0.2,0.9-0.2,1.4,0c0.4,0.1,0.4,0.6,0.4,1
	c0,1.8,0,3.6,0,5.4c0,0.6-0.1,1.2,0.1,1.7c1.1-0.2,1.5-1,1.5-2c0-0.6,0-1.2,0-1.8c0-2.2,0-4.4,0-6.5c0-1.5,0.5-1.8,1.9-1.1
	c0.4,0.2,0.9,0.4,1.3,0.6c0.6,0.3,1.1,0.6,1.7,0.8c0.7,0.3,1.2,0.1,1.4-0.3c0.3-0.5,0.1-1.1-0.4-1.5c-0.3-0.2-0.6-0.4-1-0.5
	c-1.3-0.6-2.5-1.3-3.8-1.9c-0.8-0.3-1.1-0.8-1.1-1.7C53,47.5,52.9,45.7,52.9,43.6z M73.8,69.8c0.5,0,0.9,0,1.2,0
	c1.8-0.1,3.4-1.8,3.4-3.6c0-1.8-1.5-3.4-3.3-3.5c-1.5-0.1-2.9,0-4.3,0.6c-1.5,0.7-3.1,0.7-4.6,0c-1.4-0.7-2.9-0.7-4.3-0.6
	c-1.8,0.1-3.3,1.6-3.4,3.4c-0.1,1.6,1.3,3.4,3,3.6c1.5,0.2,2.9,0.2,4.4-0.5c1.7-0.8,3.5-0.7,5.2,0C71.9,69.7,72.9,69.9,73.8,69.8z
	 M40.9,41.7c1.6,0,3.3,0,4.9,0c0.5,0,0.7-0.2,0.6-0.7c0-1.6,0-3.3,0-4.9c0-0.7-0.3-0.8-0.9-0.8c-1.4,0-2.9,0-4.3,0
	c-1.6,0-3.2,0-4.8,0c-0.5,0-0.9,0.1-0.9,0.8c0,1.6,0,3.3,0,4.9c0,0.5,0.2,0.7,0.6,0.7C37.9,41.7,39.4,41.7,40.9,41.7z M58.5,70.6
	c-0.4,1.1-0.1,1.9,0.2,2.6c0.5,1.1,1.3,1.9,2.5,2c1.5,0.1,3,0.2,4.5-0.5c1.6-0.8,3.4-0.8,5.1,0c1.4,0.6,2.8,0.7,4.2,0.6
	c2.3-0.1,3.7-2.2,3.1-4.5c-2.7,1.4-5.4,1.4-8.1,0.3c-1.3-0.5-2.6-0.4-3.9,0.2c-0.9,0.4-1.9,0.6-2.9,0.6C61.6,71.8,60,71.8,58.5,70.6
	z M62.7,41.7c0.5-1.6,0.1-2.8-1.1-3.6c-0.3-0.2-0.5-0.4-0.7-0.7c-1.2-1.7-2.9-2.3-4.9-2.1c-1.1,0.1-2,0.3-2.8,1.2
	c-0.8,0.8-1.3,1.6-1.2,2.8c0.1,0.5,0,1.1,0,1.6c0,0.6,0.1,0.9,0.8,0.9C56,41.7,59.3,41.7,62.7,41.7z M62.8,24.5c-1.8,0-3.4-0.1-5,0
	c-2.8,0.3-4.6,1.9-5.5,4.4c-0.2,0.6-0.2,1,0.7,1c0.8,0,1.6,0,2.4,0c1.2,0,2.4,0.3,3.5-0.1c1-0.4,1.9-1.4,2.8-2.1
	c0.2-0.1,0.3-0.3,0.5-0.4c0.5-0.4,0.8-0.8,0.7-1.5C62.8,25.4,62.8,25,62.8,24.5z M61,45.3c1.9,0,3.7,0,5.6,0c0.3,0,0.6,0,0.7-0.3
	c0.4-0.6-0.1-1.4-0.8-1.4c-3.6,0-7.2,0-10.8,0c-0.8,0-0.8,0.1-0.8,0.8c0,0.7,0.1,0.8,0.8,0.8C57.4,45.3,59.2,45.3,61,45.3z
	 M39.2,26.8c0.1,0.6-0.3,1.5,0.2,2c0.5,0.5,1.4,0.1,2.1,0.2c0.3,0,0.5,0,0.8,0c0.4,0,0.6-0.2,0.6-0.6c0-1.1,0-2.1,0-3.2
	c0-0.6-0.3-0.7-0.8-0.7c-0.3,0-0.5,0-0.8,0C39.2,24.5,39.2,24.5,39.2,26.8z M37,33.4c2.8,0,5.5,0,8.2,0c0-0.1,0-0.2,0-0.2
	c-0.2-0.2-0.3-0.4-0.5-0.6c-0.7-1.4-1.8-1.8-3.4-1.7C38.6,31,38.6,30.9,37,33.4z M34.8,43.6c-1,0-2,0-3,0c-0.6,0-0.7,0.4-0.7,0.8
	c0,0.5,0,0.8,0.7,0.8c2,0,3.9,0,5.9,0c0.5,0,0.6-0.3,0.6-0.7c0-0.4,0.1-0.9-0.6-0.9C36.8,43.6,35.8,43.6,34.8,43.6z M56.5,33.5
	C56.5,33.5,56.5,33.5,56.5,33.5c0.4,0,0.8,0,1.3,0c0.5,0,0.6-0.3,0.6-0.7c0-0.4,0.1-0.9-0.5-0.9c-0.8,0-1.7,0-2.5,0
	c-0.3,0-0.4,0.2-0.5,0.5c-0.1,0.9,0.1,1.1,0.9,1.2C56,33.5,56.2,33.5,56.5,33.5z M64.7,25.4c0,0.8,0.3,1,1,1c0.7,0,0.8-0.2,0.8-1
	c0-0.7-0.1-0.8-0.9-0.8C64.8,24.5,64.7,24.6,64.7,25.4z"/>
</svg>
