<?xml version="1.0" encoding="utf-8"?>
<!-- Generator: Adobe Illustrator 21.0.0, SVG Export Plug-In . SVG Version: 6.00 Build 0)  -->
<svg version="1.1" id="Capa_1" xmlns="http://www.w3.org/2000/svg" xmlns:xlink="http://www.w3.org/1999/xlink" x="0px" y="0px"
	 viewBox="0 0 100 100" style="enable-background:new 0 0 100 100;" xml:space="preserve">
<style type="text/css">
	.st0{fill:#605393;}
</style>
<path class="st0" d="M44.6,75.1c-1.3-0.2-2.3,0.2-3.4,0.4c-2.9,0.5-5.9,1.2-8.8,1.8c-0.7,0.1-1.3,0.3-2,0.5
	c-0.6,0.2-1.2,0.2-1.7,0.1c-0.9-0.1-1.5-0.6-1.6-1.5c-0.1-0.7-0.2-1.5,0.1-2.2c0.3-0.6,0.1-0.9-0.2-1.4c-0.7-1.1-0.7-1.7,0.2-2.7
	c0.4-0.5,0.7-0.9,0.6-1.5c-0.3-1.3,0.3-2.2,1.4-2.7c0.7-0.3,1.2-0.8,1.3-1.6c0.3-1.3,1.2-1.9,2.4-2c0.9-0.1,1.6-0.4,2-1.2
	c0.4-0.8,1.2-1.1,2.2-1.1c0.2,0,0.3,0,0.5,0c1.3,0.2,2.5-0.1,3.6-0.8c0.9-0.6,1.8-0.6,2.7,0c0.9,0.6,1.7,0.6,2.7,0.3
	c1.2-0.3,2.3-0.2,3,1.2c0.3,0.5,0.7,0.7,1.3,0.7c0.4,0,0.8,0,1.1,0.1c0.4,0.2,0.6,0.2,0.9-0.2c0.8-0.9,1.8-1,2.9-0.7
	c0.7,0.3,1.4,0.1,2.1-0.3c0.4-0.2,0.7-0.4,1.1-0.6c0.8-0.4,1.6-0.4,2.4,0.1c0.7,0.5,1.5,0.7,2.4,0.4c1.3-0.4,2.4-0.2,3.1,1.1
	c0.3,0.5,0.6,0.7,1.2,0.7c0.3,0,0.6,0,1,0c1,0.2,1.6,0.7,1.7,1.8c0.1,0.6,0.3,1,0.8,1.2c0.3,0.1,0.7,0.3,1,0.5c0.6,0.5,1,1,0.6,1.8
	c-0.3,0.7,0,1.1,0.4,1.5c0.6,0.6,0.8,1.4,0.7,2.2c0,0.9-0.3,1.2-1.1,1.5c-0.9,0.4-1.9,0.4-2.8,0.5c-4.1,0.9-8.1,1.5-12.2,2.3
	c-3.4,0.7-6.9,1.4-10.3,2.1c-0.2,0-0.3,0-0.5,0.1c-1.8,0.2-2.2,0-2.7-1.8C44.7,75.6,44.7,75.4,44.6,75.1z M55.8,70.7
	c0-0.6-0.3-1.1-0.6-1.4c-0.7-0.7-1.1-1.5-0.9-2.6c0.1-0.4,0-0.8-0.6-0.9c-1-0.3-1.7-0.9-1.7-2c0-0.5-0.3-0.8-0.8-0.8
	c-0.3,0-0.5,0-0.8,0c-0.8,0-1.5-0.2-2-1.1c-0.4-0.8-1.1-1-2-0.7c-1,0.3-2,0.4-2.8-0.4c-0.6-0.6-1.4-0.5-2,0c-1,0.8-2.1,1-3.3,0.8
	c-0.4,0-0.7,0-1.1,0c-0.5,0-0.9,0.1-1.1,0.6c-0.6,1.2-1.6,1.6-2.8,1.7c-1,0.1-1.2,0.3-1.4,1.4c-0.1,0.7-0.4,1.2-1,1.5
	c-0.2,0.1-0.5,0.2-0.7,0.3c-0.8,0.5-0.9,0.7-0.7,1.7c0.2,0.6,0.1,1.1-0.4,1.6c-0.2,0.2-0.4,0.4-0.6,0.6c-0.3,0.4-0.4,0.8-0.1,1.2
	c0.6,0.8,0.8,1.7,0.3,2.7c-0.1,0.2-0.1,0.5-0.1,0.8c0,0.8,0.2,0.9,1,0.8c3.2-0.7,6.5-1.3,9.7-2c4.5-1,8.9-1.8,13.4-2.8
	C53.8,71.3,54.9,71.4,55.8,70.7z M55.5,64.7c0.2,0.7,0.8,1.2,0.6,1.7c-0.4,1,0.1,1.7,0.7,2.4c0.3,0.3,0.3,0.7,0.4,1
	c0.4,1.4-0.1,2.4-1.5,2.7c-1.6,0.4-3.2,0.6-4.8,1c-0.7,0.1-1.4,0.3-2.1,0.5c-0.2,0.1-0.4,0.3-0.6,0.5c-0.3,0.4-0.2-0.4-0.6-0.3
	c-0.7,0.1-1,0.5-1,1.3c0,0.4,0.2,0.6,0.6,0.5c0.2,0,0.4-0.1,0.6-0.1c2.5-0.5,4.9-1,7.4-1.5c2.4-0.5,4.9-0.9,7.3-1.4
	c2.5-0.5,4.9-1,7.4-1.5c0.8-0.2,1.6-0.3,2.5-0.6c0.5-0.1,0.6-0.4,0.2-0.8c-0.9-0.8-1.3-1.8-1-3c0.1-0.4-0.1-0.6-0.5-0.8
	c-0.8-0.3-1.5-0.8-1.7-1.7c-0.2-1-0.3-1.1-1.3-1.1c-0.8,0-1.7-0.3-2-1c-0.5-1-1.1-1-2.1-0.7c-0.8,0.2-1.8,0.4-2.6-0.3
	c-0.8-0.7-1.5-0.6-2.3,0c-1,0.8-2.1,0.9-3.3,0.6c-1-0.2-1.5,0-2,0.8c-0.2,0.4-0.2,0.7,0.1,1c0.3,0.3,0.5,0,0.7-0.1
	c2.6-1.1,5.2-1.6,8-1c2.6,0.6,5,1.6,6.8,3.8c0.7,0.9,1.4,1.9,1.5,3.4C66.4,63.6,60.9,62.8,55.5,64.7z"/>
<path class="st0" d="M43.4,32.9c-0.3-0.1-0.5,0-0.7,0.3c-2.4,3-4.2,6.3-5.6,9.9c-0.4,1.1,0.1,1.9,1.2,2c0.2,0,0.4,0,0.6,0
	c1.3,0,2.3,1,2.1,2.6c-0.1,1-1,1.7-2.3,1.8c-0.4,0-0.8,0-1.3,0c-0.2,0-0.3,0.2-0.3,0.5c0,0.2,0.1,0.4,0.3,0.5c0.5,0,1.1,0.1,1.6,0.1
	c0.7,0,1.5,0,2.2,0c1.4,0.1,2.3,1.1,2.2,2.4c-0.1,1-0.9,1.9-1.9,2c-0.8,0-1.6,0.1-2.4-0.1c-1.1-0.2-2.2-0.1-3.3-0.2
	c-0.7,0-1.2,0.4-1.3,1.1c-0.1,0.3-0.1,0.6-0.2,0.9c-0.6,2-1.9,2.8-4.1,2.5c-0.6-0.1-1.3,0-1.9-0.1c-1.9-0.1-3.1-1.3-3.1-3.1
	c-0.1-5.7,1-11.1,3-16.4c1.4-3.7,3.3-7.2,5.6-10.4c1.9-2.7,4.1-5,6.4-7.3c1.1-1.1,3.3-1.1,4.2-0.2c0.8,0.8,1.7,1.6,2.4,2.5
	c1.1,1.4,1,3.1-0.3,4.4c-0.8,0.8-1.6,1.6-2.3,2.4c-0.3,0.3-0.6,0.5-0.5,0.9l0,0c-0.3,0-0.4,0.1-0.4,0.4l0,0
	C43.3,32.4,43.3,32.6,43.4,32.9L43.4,32.9z M27.1,54.1c0,0.7,0,1.4,0,2.1c0.1,0.9,0.5,1.3,1.4,1.4c0.7,0,1.5,0,2.2,0
	c1.7,0,2.2-0.4,2.4-2c0.2-1.4,1.2-2.5,2.6-2.5c1.3,0,2.6-0.1,4,0.2c0.6,0.1,1.2,0.1,1.7,0c0.3,0,0.6-0.2,0.6-0.6
	c0-0.3-0.3-0.5-0.5-0.5c-0.3-0.1-0.6,0-0.9,0c-1,0-1.9,0-2.9-0.1c-1.3-0.1-2.4-1.3-2.2-2.4c0.3-1.4,1.4-2.1,2.8-1.9
	c0.2,0,0.4,0.1,0.6,0.1c0.3-0.1,0.6-0.2,0.6-0.6c0-0.3-0.2-0.5-0.5-0.5c-0.3-0.1-0.6,0-0.9-0.1c-0.7,0-1.3-0.4-1.8-0.9
	c-1-1-1-2.2-0.5-3.5c1.8-4.6,4.4-8.8,7.7-12.4c0.6-0.7,1.3-1.4,2-2c1-1.1,1-1.9,0-3c-0.4-0.4-0.8-0.8-1.2-1.2c-0.9-1-2.2-1.1-3.2,0
	c-2.3,2.4-4.5,4.9-6.4,7.7c-2.7,4-4.7,8.4-6,13C27.8,47.4,27.2,50.7,27.1,54.1z"/>
<path class="st0" d="M60.3,42.6c-0.2,0.3,0,0.6,0.1,0.9c0.7,1.8-0.2,3.8-2.3,4.2c-1.4,0.3-3.2-0.7-3.5-2.2c-0.4-1.9,0.5-3.4,2.4-3.9
	c0.5-0.1,1-0.1,1.5,0.1c0.4,0.2,0.8,0.6,1.3,0.4c0.2-0.4-0.2-0.6-0.4-0.8c-3.3-3.4-6.5-6.8-9.8-10.2c-0.3-0.3-0.6-0.5-0.7-0.8
	c-0.2-0.4-0.3-0.9,0.1-1.2c0.3-0.2,0.8-0.2,1.2,0.1c0.6,0.6,1.2,1.1,1.7,1.7c1.9,2.3,4.2,4.3,6.3,6.6c2.4,2.7,5,5.2,7.5,7.8
	c2.1,2.3,4.3,4.4,6.4,6.7c0.8,0.9,1.6,1.8,2.5,2.7c0.6,0.6,0.7,1.3,0.4,2c-0.4,0.8-0.9,1.3-1.8,1.3c-2.5-0.1-5,0-7.5-0.1
	c-5.5-0.2-11-0.1-16.5-0.4c-3.7-0.2-7.4-0.1-11.1-0.2c-0.3,0-0.6,0-0.9-0.1c-0.3-0.1-0.5-0.4-0.5-0.7c0-0.4,0.3-0.6,0.6-0.7
	c0.2-0.1,0.5,0,0.8,0c3.1,0,6.3-0.1,9.4,0.1c4.8,0.3,9.5,0,14.3,0.3c3.4,0.2,6.9,0.2,10.3,0.2c0.4,0,1,0.3,1.3-0.3
	c0.2-0.5-0.3-0.9-0.6-1.2c-3.1-3.2-6.2-6.4-9.3-9.6c-0.8-0.8-1.6-1.7-2.4-2.6C60.7,42.8,60.6,42.6,60.3,42.6z M59,44.7
	c0-0.8-0.7-1.5-1.5-1.5c-0.8,0-1.4,0.7-1.5,1.5c0,0.9,0.5,1.5,1.4,1.6C58.3,46.4,59,45.6,59,44.7z"/>
<path class="st0" d="M46.1,47.3c-2.6,0-4.7-2.6-3.9-5.1c0.4-1.4,1.3-2.5,3.1-1.7c0.4,0.2,0.5,0,0.8-0.1c1.1-0.7,1.7-0.6,2.5,0.3
	c0.2,0.2,0.4,0.5,0.6,0.7c0.7,1,0.7,1.1,0.1,2.1c-0.2,0.3-0.5,0.5-0.3,0.9c0.5,1.6-0.2,2.6-1.9,2.9C46.7,47.4,46.4,47.3,46.1,47.3z
	 M47.9,42.4c-0.3-0.5-0.7-0.8-1.3-0.3c-0.7,0.6-1.3,0.6-1.9,0c-0.4-0.4-0.7,0-0.8,0.3c-0.3,1-0.2,1.9,0.7,2.7
	c0.8,0.8,1.7,0.8,2.6,0.5c0.3-0.1,0.5-0.3,0.2-0.7c-0.6-1.1-0.6-1.2,0.2-2.2C47.6,42.6,47.7,42.5,47.9,42.4z"/>
<path class="st0" d="M59.4,52c0-1.7,1-2.7,2.4-3.4c1.1-0.6,2.4-0.3,3.4,0.5c0.5,0.5,0.8,1.1,0.5,1.7c-0.2,0.6-0.2,1,0.2,1.4
	c0.1,0.1,0.2,0.4,0.1,0.6c-0.1,1-0.9,1.4-1.5,1.9c-0.4,0.4-1,0.4-1.5,0c-0.4-0.3-0.8-0.5-1.4-0.2c-0.4,0.2-0.9,0-1.3-0.3
	C59.7,53.6,59.3,52.9,59.4,52z M60.9,52c0,0.6,0.3,0.9,0.7,0.6c0.8-0.5,1.3-0.1,1.9,0.3c0.1,0.1,0.3,0.1,0.4,0
	c0.2-0.1,0.2-0.3,0.1-0.5c-0.3-0.5-0.7-0.9-0.4-1.6c0.4-0.8,0.2-1-0.6-1C62,49.9,60.9,51,60.9,52z"/>
<path class="st0" d="M44,32c0.5,0.2,0.8-0.2,1.2-0.4c1.5-0.6,3.3-0.1,4.1,1.4c0.7,1.3,0.5,2.9-0.9,4.1c-1.1,0.9-3.1,0.9-4.2-0.3
	c-0.8-0.9-1.4-1.8-0.9-3.1c0.1-0.2,0-0.5,0.1-0.8l0,0c0.4-0.1,0.4-0.4,0.3-0.7l0,0C44,32.4,44.1,32.3,44,32L44,32z M46.3,36.2
	c0.8,0,1.7-0.7,1.8-1.5c0.1-0.8-0.8-1.7-1.7-1.7c-0.8-0.1-1.6,0.8-1.7,1.6C44.6,35.3,45.5,36.1,46.3,36.2z"/>
<path class="st0" d="M47.3,52.2c0-1.7,1.3-3,3-3c1.7,0,3.1,1.4,2.9,3.1c-0.1,1.6-1.2,2.8-3,2.9C48.6,55.3,47.2,53.9,47.3,52.2z
	 M50.3,50.8c-0.8,0-1.4,0.6-1.4,1.3c0,0.8,0.7,1.6,1.5,1.5c0.7,0,1.4-0.8,1.4-1.4C51.6,51.4,51,50.8,50.3,50.8z"/>
<path class="st0" d="M53.3,69.6c-0.4-0.5-0.9-1-1.3-1.5c-2.5-3.2-5.7-4.8-9.8-4.5c-4.1,0.3-7.5,2-9.7,5.7c-0.8,1.4-1.3,2.9-1.6,4.4
	c0,0.2-0.1,0.4-0.2,0.6c0,0-0.1,0-0.3,0.1c-0.2-0.9-0.2-1.7,0-2.6c0.4-2.8,2-4.8,4.2-6.5c1-0.8,2.1-1.6,3.4-2
	c4.5-1.4,8.8-1.1,12.6,1.9C52,66.3,53.3,67.7,53.3,69.6L53.3,69.6z"/>
<path class="st0" d="M53.3,69.7c0.1,0,0.1,0.1,0.2,0.1c0,0-0.1,0-0.1,0C53.3,69.7,53.3,69.7,53.3,69.7L53.3,69.7z"/>
</svg>
