<?xml version="1.0" encoding="utf-8"?>
<!-- Generator: Adobe Illustrator 21.0.0, SVG Export Plug-In . SVG Version: 6.00 Build 0)  -->
<svg version="1.1" id="Capa_1" xmlns="http://www.w3.org/2000/svg" xmlns:xlink="http://www.w3.org/1999/xlink" x="0px" y="0px"
	 viewBox="0 0 536 165" style="enable-background:new 0 0 536 165;" xml:space="preserve">
<style type="text/css">
	.st0{fill:#FFFFFF;}
	.st1{font-family:'Montserrat-Bold';}
	.st2{font-size:54.0244px;}
	.st3{font-family:'Montserrat-Light';}
	.st4{font-size:31.3342px;}
	.st5{letter-spacing:10;}
</style>
<text transform="matrix(1 0 0 1 202.0938 80.8604)"><tspan x="0" y="0" class="st0 st1 st2">QUILMES</tspan><tspan x="3.4" y="37.6" class="st0 st3 st4 st5">GOBIERNO</tspan></text>
<g id="g1592" transform="translate(-98.532424,-24.043512)">
	<path id="path1448" inkscape:connector-curvature="0" class="st0" d="M216.9,163.3c-2.8-0.5-6.8-1.8-10.9-3.7
		c-7.1-3.3-9-3.8-12.6-3.6c-1.6,0.1-3.5,0.3-4.2,0.5c-0.9,0.2-1.2,0.1-1.2-0.3c0-1.3,7.2-5.1,12.2-6.4c5.5-1.4,13.9-1,22.7,1.3
		c2.6,0.7,4.9,1,8.2,1.1c4,0.1,5,0.1,8.1-0.7c2-0.5,5.1-1.7,7.2-2.8c5.2-2.6,5.3-1.8,0.5,3.3c-5.6,5.9-13.3,10.1-20.6,11.3
		C224.1,163.6,218.7,163.7,216.9,163.3L216.9,163.3z"/>
	<path id="path1446" inkscape:connector-curvature="0" class="st0" d="M219.6,45.9c-4.5,0-9.3,0.4-12.5,1.2
		c-17.9,4.5-31.6,18.1-36.1,35.8c-1.8,7.2-2,14-0.6,21.5c3.9,20.5,20.8,36.5,41.8,39.5c4.2,0.6,13.2,0.2,17.5-0.9
		c9.4-2.2,17.2-6.6,24-13.4c7-7.1,11.2-15,13.4-25c1-4.9,1.1-13.8,0.2-18.6c-4.1-20.6-19.9-36-40.5-39.6
		C224.8,46.1,222.3,45.9,219.6,45.9z M219.6,60.2c2.1,0,4,0.1,5.2,0.3c12.5,2.1,21.5,10.5,24.9,23.3c0.9,3.3,1,4.2,1,10.4
		c0,6.2-0.1,7.1-1,10.4c-1.9,7.3-6,13.8-11.1,17.7c-3.1,2.4-8.3,4.9-12,5.9c-3.3,0.8-10.9,1.2-13.8,0.7c-7-1.3-12.6-4.3-17.3-9.2
		c-5.4-5.8-8.2-13.1-8.8-22.4c-0.7-11.9,3.8-23.4,11.9-30.1c2.7-2.2,8.5-5.2,11.9-6.2C212.3,60.5,216.2,60.2,219.6,60.2z"/>
</g>
</svg>
