<?xml version="1.0" encoding="utf-8"?>
<!-- Generator: Adobe Illustrator 21.0.0, SVG Export Plug-In . SVG Version: 6.00 Build 0)  -->
<svg version="1.1" id="Capa_1" xmlns="http://www.w3.org/2000/svg" xmlns:xlink="http://www.w3.org/1999/xlink" x="0px" y="0px"
	 viewBox="0 0 100 100" style="enable-background:new 0 0 100 100;" xml:space="preserve">
<style type="text/css">
	.st0{fill:#605393;}
</style>
<path class="st0" d="M31.9,60.6c-1.3-1-2.5-1.8-3.6-2.6c-0.5-0.4-1.1-0.7-1.3-1.3c-0.3-0.8-0.9-0.9-1.5-1c-0.7-0.2-1.2,0-1.8,0.5
	c-1.1,1-2.7,0.9-3.8-0.1c-1-0.9-1.2-2.5-0.5-3.6c0.4-0.6,0.5-1.1,0.4-1.7c-0.1-1.6,0.7-2.8,2-3c1.6-0.3,2.9,0.3,3.5,1.8
	c0.1,0.3,0.1,0.7,0.6,0.9c0.7,0.2,1.4,0.6,2.1,0.1c1.4-0.9,3-0.9,4.5-1.2c2-0.4,4-0.7,6.1-1c0.6-0.1,1-0.3,1.4-0.7
	c1.2-1.4,2.8-2,4.6-1.9c1.4,0,2.6-0.4,3.6-1.3c0.7-0.6,1.6-1,2.5-1.2c2.9-0.5,5.6-0.4,8,1.5c1.2,0.9,2.6,1.5,4.1,1.6
	c1.2,0.1,2.2,0.6,3.3,1.1c0.7,0.4,1.2,1,1.6,1.7c0.1,0.2,0.3,0.5,0.4,0.7c0.5,1.8,1.8,2.6,3.5,3.1c1.9,0.5,3.4,1.6,4.3,3.4
	c0.5,0.9,0.8,1.9,0.9,3c0.2,1.2,0.2,1.2,1.5,1.3c1.8,0.1,2.3,0.6,2.3,2.4c0,0.7,0.1,1.4-0.1,2.2c-0.4,1.9-1.4,3.1-3.3,3.6
	c-0.4,0.1-0.8-0.1-1.1,0.3c-0.1,0.3-0.1,0.6-0.1,1c0,1.1-0.6,1.9-1.4,2.5c-0.4,0.3-0.8,0.4-1.2,0.4c-0.4,0-0.8,0-1.2,0
	c-13.7,0-27.4,0-41.2,0c-0.3,0-0.7,0-1,0c-1.3,0-2.2-0.8-2.6-2c-0.2-0.4-0.2-0.9-0.3-1.3c0-0.5-0.2-0.7-0.8-0.8
	c-2.6-0.6-3.6-2-3.6-4.6c0-0.6,0-1.1,0-1.7c0.1-1.3,0.7-1.9,2-1.9c1.9,0,3.9,0,5.8,0C31,60.6,31.3,60.6,31.9,60.6z M49.5,60.7
	c0.7,0,1.2,0,1.7,0c2.7,0,5.3,0,8,0c0.4,0,0.8,0,1.2,0.1c0.4,0.1,0.8,0.5,0.7,1c-0.1,0.4-0.3,0.8-0.9,0.9c-0.4,0-0.9,0-1.3,0
	c-10.7,0-21.5,0-32.2,0c-0.4,0-0.9,0-1.3,0c-0.2,0-0.5,0.1-0.5,0.4c0,0.9-0.2,1.8,0.2,2.6c0.6,1.1,1.5,1.4,2.6,1.4
	c3.9,0,7.9,0,11.8,0c0.4,0,0.8,0,1.2,0c0.4,0.1,0.7,0.3,0.7,0.8c0.1,0.4-0.1,0.8-0.5,0.9c-0.3,0.1-0.5,0.2-0.8,0.2
	c-0.4,0-0.8,0-1.2,0c-2.9,0-5.8,0-8.7,0c-0.8,0-1,0.2-0.9,1c0.1,0.8,0.3,1,1.1,1.1c0.3,0,0.7,0,1,0c13.5,0,27,0,40.5,0
	c0.4,0,0.8,0,1.2,0c0.8-0.1,1-0.5,1-1.4c0-0.8-0.6-0.7-1.1-0.7c-0.3,0-0.7,0-1,0c-8.7,0-17.5,0-26.2,0c-0.4,0-0.9,0-1.3,0
	c-0.6-0.1-0.9-0.5-0.8-1c0-0.5,0.3-0.8,0.9-0.8c0.4,0,0.9,0,1.3,0c9.7,0,19.5,0,29.2,0c0.5,0,1,0,1.5,0c1.2-0.2,1.9-0.9,1.9-2.1
	c0-0.7,0.1-1.4-0.1-2.2c-0.6,0-1.2,0-1.7,0c-3.9,0-7.8,0-11.7,0c-0.3,0-0.7,0-1,0c-0.8-0.1-1.2-0.4-1.2-1c0-0.6,0.4-0.9,1.1-0.9
	c0.3,0,0.7,0,1,0c2.9,0,5.9,0,8.8,0c1.2,0,1.2-0.1,1.1-1.3c-0.3-2.2-1.5-3.6-3.6-4.4c-3.1-1.2-3.1-1.2-5-3.6c-1,1.5-2.5,1.8-4.2,1.9
	c-0.8,0-1.5,0-2.3,0.5c-1.7,1-3.4,0.8-5-0.2c-1-0.6-1.9-1.1-3-1.4c-0.8-0.2-1.6-0.3-2.5,0C50.6,54.9,50.7,57.7,49.5,60.7z
	 M41.3,60.7c1.7,0,3.4,0,5.2,0c0.7,0,0.9-0.3,1.2-0.8c0.4-0.9,0.5-1.9,0.8-2.9c0.1-0.5-0.1-0.7-0.6-0.7c-1.4,0.2-2.6-0.3-3.8-0.9
	c-2-1-4.2-1.4-6.5-1c-2.4,0.4-4.2-0.3-5.6-2.3c-0.1-0.2-0.2-0.4-0.4-0.5c-0.9-0.3-2.1,0.4-2.3,1.3c-0.1,0.5-0.1,1-0.4,1.4
	c-0.5,1-0.1,1.6,0.7,2.1c1.7,1.2,3.5,2.4,5.1,3.7c0.6,0.4,1.2,0.6,1.8,0.6C38.1,60.6,39.7,60.7,41.3,60.7z M42.8,48.2
	c1.8,0.2,3.3,0.7,4.6,1.8c0.5,0.4,1,0.4,1.5,0.2c1.2-0.4,2.4-0.3,3.6,0.1c1.2,0.4,2.3,0.9,3.3,1.6c0.8,0.5,1.8,0.8,2.7,0.4
	c1.3-0.7,2.7-0.9,4.1-1c1.2,0,2.2-0.6,2.4-2c-0.6-0.6-1.4-0.7-2.2-0.8c-2.2-0.2-4.1-1.2-5.9-2.4c-2.4-1.6-5.8-1.5-8,0.3
	c-1.1,0.9-2.4,1.4-3.8,1.4C44.4,47.6,43.6,47.7,42.8,48.2z M47.8,54.1c0-0.8-0.4-1.4-0.9-1.9c-1.8-2-4-2.4-6.5-2.1
	c-1.3,0.1-2.5,0.3-3.8,0.6c-0.9,0.3-2,0-2.9,0.7c0.9,1.1,2,1.3,3.2,1.1c0.5-0.1,1.1-0.2,1.6-0.2c2.4,0,4.7,0.5,6.9,1.6
	C46.3,54.4,47,54.5,47.8,54.1z M21.8,51.2c0.1,0.9,0,1.6-0.6,2.2c-0.5,0.5-0.4,0.9,0.1,1.2c0.5,0.4,1,0.4,1.2-0.3
	c0.5-1.3,1.4-1.2,2.4-0.8c0.4,0.2,0.9,0.2,1.3,0.3c0.5,0.1,0.7-0.1,0.8-0.5c0.1-0.4,0-0.6-0.4-0.7c-0.4-0.1-0.7-0.2-1.1-0.3
	c-1.1-0.2-2.2-0.4-2.1-2c0-0.5-0.4-0.7-1-0.7c-0.4,0.1-0.7,0.4-0.7,0.8C21.8,50.7,21.8,51,21.8,51.2z"/>
<path class="st0" d="M53.6,27.6c0.7,0,1.3,0.9,0.7,1.4c-1.3,1.1-0.6,2-0.1,3.1c1.1,2.1,0.1,3.7-0.9,4.5c-0.4,0.4-0.8,0.3-1.2,0.1
	c-0.5-0.3-0.5-0.9-0.3-1.1c1.1-1.3,0.7-2.5,0-3.8c-0.7-1.4-0.4-2.6,0.7-3.6C53,27.7,53.2,27.6,53.6,27.6z"/>
<path class="st0" d="M63.5,31.7c0,0.4-0.2,0.7-0.5,1c-0.6,0.7-0.6,1.3-0.1,2.1c1.3,2,0.8,3.3-0.1,4.6c-0.3,0.4-0.6,0.7-1.1,0.7
	c-0.4,0-0.8-0.1-1-0.4c-0.3-0.4-0.1-0.8,0.2-1c1-0.9,0.9-1.9,0.2-3c-0.2-0.3-0.3-0.6-0.4-0.9c-0.5-1.4,0.1-2.9,1.4-3.7
	c0.3-0.2,0.6-0.2,0.9-0.1C63.3,31,63.5,31.3,63.5,31.7z"/>
<path class="st0" d="M42.5,39.5c0-0.4,0.2-0.7,0.4-1c0.6-0.7,0.5-1.5,0.1-2.3c-0.2-0.3-0.4-0.7-0.5-1c-0.5-1.5,0-3.1,1.4-3.9
	c0.3-0.2,0.6-0.2,0.9,0c0.4,0.2,0.5,0.6,0.4,1c0,0.2-0.1,0.4-0.2,0.4c-1.2,0.9-0.7,1.9-0.1,2.9c0.8,1.4,0.6,2.8-0.3,4
	c-0.3,0.5-0.8,0.8-1.4,0.7C42.7,40.2,42.5,40,42.5,39.5z"/>
<path class="st0" d="M54.2,55.9c0,0.5-0.4,1-0.9,1c-0.5,0-1-0.5-1-1.1c0-0.5,0.4-0.9,1-0.9C53.8,55,54.1,55.4,54.2,55.9z"/>
<path class="st0" d="M60.5,56.9c0,0.5-0.6,1-1.2,0.9c-0.5,0-0.8-0.6-0.8-1.1c0.1-0.5,0.5-0.9,1-0.8C60.1,56,60.5,56.4,60.5,56.9z"/>
<path class="st0" d="M67.1,58c-0.1,0.5-0.7,1-1.2,0.9c-0.5-0.1-0.8-0.6-0.7-1.1c0.1-0.5,0.5-0.9,1-0.8C66.8,57,67.2,57.5,67.1,58z"
	/>
<path class="st0" d="M50.9,47c0.4,0,1,0.4,1.1,0.9c0.1,0.4-0.4,1-0.9,1.1c-0.5,0.1-1-0.3-1-0.8C50.1,47.5,50.4,47,50.9,47z"/>
<path class="st0" d="M56.1,49.4c0-0.6,0.4-0.9,1-0.8c0.6,0,0.8,0.4,0.8,1c0,0.6-0.4,0.8-0.9,0.8C56.4,50.3,56.1,50,56.1,49.4z"/>
</svg>
