<?xml version="1.0" encoding="utf-8"?>
<!-- Generator: Adobe Illustrator 21.0.0, SVG Export Plug-In . SVG Version: 6.00 Build 0)  -->
<svg version="1.1" id="Capa_1" xmlns="http://www.w3.org/2000/svg" xmlns:xlink="http://www.w3.org/1999/xlink" x="0px" y="0px"
	 viewBox="0 0 100 100" style="enable-background:new 0 0 100 100;" xml:space="preserve">
<style type="text/css">
	.st0{fill:#605393;}
</style>
<path class="st0" d="M27.8,54.6c-2.3-2.1-2.4-3.1-2.6-6c1.6,0,3.3,0,4.9,0c0.3,0,0.4,0,0.5-0.4c0.3-1,0.6-1.2,1.5-1.2
	c0.4,0,0.8,0,1.4,0c-0.5-1.3-0.7-2.6-0.9-3.9c-0.3-1.5-1-3.1-0.1-4.6c-0.1-1.8,1.1-3.1,2-4.4c0.2-0.3,0.2-0.5,0-0.8
	c-0.8-1.1-1.6-2.2-2.4-3.3c-0.2-0.3-0.5-0.7-0.5-0.9c-0.1-0.5-0.6-0.9-0.4-1.3c0.3-0.6,0.3-1.3,0.7-1.8c0.3-0.3,0.6-0.6,1.1-0.8
	c1.6-0.6,3.2,0.1,3.9,1.7c0.6,1.5,1,3.1,1.8,4.5c0-0.7,0.4-1.4-0.2-2.1c-0.1-0.2,0-0.5,0-0.8c-0.1-0.9,0-1.7-0.3-2.6
	c-0.5-1.6,0.9-3.3,2.6-3.5c1.2-0.2,2.8,1.2,2.8,2.5c0,0.8,0.2,1.6-0.2,2.4C43,28.1,43.5,29,43,29.8c-0.1,0.1,0,0.4,0,0.6
	c0,0.2,0.1,0.3,0.3,0.3c0.2,0,0.3,0,0.4-0.2c0.3-0.9,0.7-1.7,0.9-2.6c0.1-0.5,0.3-0.9,0.5-1.2c0.5-1.1,1.2-1.7,2.5-1.7
	c1.3,0,2.2,0.6,2.9,1.7c0.6,1,0.4,2-0.2,2.8c-0.8,1.1-1.6,2.2-2.4,3.3c-0.2,0.2-0.2,0.4-0.4,0.6c-0.1,0.2-0.3,0.3,0,0.6
	c0.6,0.5,0.9,1.2,1.3,1.8c0.6,1.1,1,2.3,1,3.6c0,0.7,0,1.4,0,2.2c1-0.8,1.6-1.8,2.7-2c0.5-0.7,1.4,0.1,1.8-0.6
	c0.6,0.1,1.3-0.3,2,0.2c0.2,0.2,0.7,0,1.1,0c0-1.8,0-3.5,0-5.2c0-1.7,0.9-2.9,2.3-3.7c0.9-0.5,1.8-1.3,3.1-0.9c0,0.6,0,1.1,0,1.8
	c-1.3,0-2.3,0.7-3,1.7c-0.7,0.9-0.4,2-0.4,3c0.4,0.1,0.4-0.2,0.6-0.3c0.2-0.2,0.4-0.5,0.7-0.7c0.2-0.1,0.4-0.2,0.7-0.3
	c0.2-0.1,0.4-0.2,0.7-0.3c0.5-0.3,1.1-0.5,1.7-0.5c1.7,0.1,3.4,0,5.1,0c0.2,1.1,0.1,1.1-0.5,3.2c-0.3,1.2-1.1,1.9-1.9,2.7
	c2.7,1.7,4,4.3,4.8,7.2c1.4,0,2.7,0,4.1,0c0.7,0,1.3,0.6,1.3,1.3c0,0.9,0,1.7,0,2.6c0,0.7-0.6,1.3-1.2,1.3c-0.6,0-1.3,0-1.9,0
	c0,0.6,0,1,0,1.5c0,4.6,0,9.2,0,13.9c0,0.9-0.1,1.9-0.4,2.7c-0.2,0.7-0.6,1.3-1.2,1.7c-1,0.7-2,1.2-3.3,1.2c-7.9,0-15.8,0-23.8,0
	c-1,0-1.7,0.3-2.5,0.9c-1.6,1.3-3.4,2.3-5.6,2.3c-0.6,0-1,0.4-1.6,0.3c-2.9-0.3-5.6-1-7.9-2.9c-2-1.7-3.2-3.8-4.1-6.1
	c0-1.8-1-3.5-0.1-5.3c0-2.2,1.2-3.9,2.3-5.6C25.7,55.8,26.6,55,27.8,54.6z M34.1,57.8c0-0.5,0-0.9,0-1.4c0-0.5-0.3-0.8-0.8-0.8
	c-1,0-1.9-0.1-2.9,0c-0.8,0.1-1.7,0.3-2.3,0.9c-1,1-1.9,2-2.6,3.2c-0.6,1.1-0.7,2.4-1,3.6c-0.4,1.2,0.3,2.4,0.3,3.7
	c0,0.6,0.8,1.1,0.6,1.8c1,1.5,2.1,3,3.7,4c1.7,1.1,3.6,1.8,5.6,1.8c1.8,0,3.6-0.5,5.3-1.5c1.4-0.8,2.4-1.8,3.3-3.1
	c0.8-1.1,1.2-2.3,1.6-3.7c0.5-1.8,0.3-3.6-0.2-5.3c-0.4-1.5-1.3-2.8-2.3-4C42,56.7,41.2,56,40.6,56c-1.2-0.1-2.4-0.4-3.5,0.2
	c-1,0.5-1.1,0.4-1,1.6c0.4-0.2,0.8-0.3,1.1-0.7c0.2-0.3,0.5-0.3,0.7-0.2c0.4,0.1,0.9,0.7,1,1.1c0.2,0.6-0.5,0.4-0.7,0.7
	c-0.2,0.4-0.7,0.4-1,0.7c-0.5,0.4-1.6,0.7-2.1,0.8c-1.8,0-3.1-0.9-4.2-2c-0.1-0.4,0.1-0.5,0.2-0.6c0.8-0.8,0.7-0.7,1.7-0.2
	C33.1,57.5,33.4,57.9,34.1,57.8z M69.4,52.2c-11.3,0-22.5,0-33.8,0c0,0.7,0,1.4,0,2.1c0,0.5,0.2,0.5,0.6,0.3
	c0.7-0.4,1.5-0.5,2.3-0.5c1.1,0,2.1,0.1,3.1,0.6c1,0.5,2,0.9,2.5,1.9c0.5,0.9,1.1,1.1,2,1.1c7.9,0,15.8,0,23.8,0c0.5,0,0.9,0,1.4,0
	c0-2.4,0-4.7,0-7.1c1.2,0,2.3,0,3.4,0c0-0.7,0-1.3,0-1.9c-0.3,0-0.6,0-0.8,0c-12.3,0-24.6,0-36.8,0c-0.3,0-0.5,0-0.8,0
	c-0.1,0-0.4,0.1-0.4,0.1c0,0.5-0.6,0.8-0.3,1.3c0.2,0.3,0.5,0.6,0.9,0.5c0.3-0.1,0.6,0,1,0c10.1,0,20.2,0,30.3,0c0.5,0,1,0,1.6,0
	C69.4,51.1,69.4,51.5,69.4,52.2z M35.2,45.8c1.3-0.5,2.4-1.7,4-1.2c0,0.3,0,0.5,0,0.7c0,0.9-0.1,1-1.1,1.1c-0.4,0-0.6,0.2-0.8,0.7
	c2.9,0,5.8,0,8.8,0c0.3,0,0.4-0.1,0.5-0.4c0.1-0.3,0.3-0.6,0.3-1c0.1-1.2,0.5-2.4,0.8-3.7c0.2-1.3,0.3-3.3-0.3-4.5
	c-0.6-1.3-1.4-2.4-2.7-3.2c-1-0.6-2.1-1-3.3-0.9c-0.6,0-1.2,0-1.7,0c-0.2,0-0.5,0-0.7,0.1c-1.1,0.6-2.1,1.1-3,2
	c-1.4,1.6-2.1,3.4-1.7,5.5C34.4,42.5,34.7,44.1,35.2,45.8z M45.2,71.1c0.2,0.1,0.3,0.1,0.4,0.1c7.7,0,15.4,0,23.1,0
	c1.1,0,2-0.8,2.4-1.8c0.5-1.1,0.3-2.2,0.3-3.3c-8.2,0-16.4,0-24.5,0C47,68.1,45.8,69.5,45.2,71.1z M47.1,64.2c8.1,0,16.2,0,24.2,0
	c0-1.7,0-3.4,0-5.1c-5.6,0-11.1,0-16.6,0c-2.6,0-5.2,0-7.8,0c-0.8,0-0.9,0.1-0.6,0.9C46.8,61.4,47.3,62.7,47.1,64.2z M54,43.1
	c0.2-0.2,0.3-0.3,0.5-0.5c0.6-0.6,0.6-0.5,1.5-0.1c0.3,0.1,0.4,0.2,0.6,0.4c0.2,0.1,0.3,0.3,0.5,0.3c0.3-0.1,0.2-0.4,0.2-0.7
	c0.1-0.5,0-1.1-0.5-1.2c-0.7-0.1-1.2-0.6-1.9-0.4c-0.7,0.2-1.4,0.2-2,0.5c-2.1,1.2-3.2,3.2-3.9,5.5c6.7,0,13.2,0,19.8,0
	c0-0.4,0.1-0.8,0-1c-0.7-1.1-1.1-2.3-2-3.3C66,41.8,65.1,41.1,64,41c-1.6-0.2-3.1,0-4.6,0c-0.2,0.6,0.1,1.1-0.2,1.5
	c-0.2,0.2-0.4,0.4-0.1,0.7c0.3,0.2,0.5-0.2,0.7-0.2c0.4,0,0.5-0.3,0.8-0.5c0.4-0.3,0.7-0.4,1.1,0c0.2,0.3,0.6,0.4,0.6,0.7
	c-0.6,0.9-1.4,1.4-2.2,1.7c-0.7,0.2-1.5,0.6-2,0.4C56.6,44.9,55.1,44.6,54,43.1z M29.2,50.5c-0.5,0-1,0-1.4,0
	c-0.5,0-0.5,0.5-0.4,0.6c0.5,0.7,0.8,1.5,1.6,1.9c1.3,0.7,2.7,1.1,4.2,0.9c0.5,0,0.8-0.4,0.5-0.8c-0.6-1-1.3-1.9-2.3-2.4
	c-0.3-0.2-0.6-0.4-1-0.3C30,50.5,29.6,50.5,29.2,50.5z M62.1,39c0.7-0.1,1.5,0.2,2.3-0.3c0.8-0.6,1.6-1.2,2.1-2.2
	c0.1-0.2,0.2-0.3,0.2-0.6c0-0.2,0-0.4-0.3-0.4c-0.4,0-0.9,0-1.3,0c-1.8,0.2-3.5,0.6-4.5,2.4c-0.2,0.3-0.4,0.6-0.2,1
	c0.1,0.3,0.5,0.1,0.7,0.1C61.3,39,61.6,39,62.1,39z M45.2,31.8c0,0.1,0,0.2,0,0.3c0,0.2,0,0.4,0.2,0.5c0.2,0,0.3-0.1,0.4-0.3
	c0.9-1.3,1.6-2.7,2.7-3.8c0.3-0.4,0.2-1.1-0.1-1.4c-0.3-0.2-1-0.3-1.3,0c-0.2,0.2-0.6,0.4-0.6,0.7c0,1.1-0.8,1.9-1,2.9
	C45.5,31.1,45.1,31.4,45.2,31.8z M36.9,32.1c0-0.1,0-0.1,0-0.2c-0.7-1.1-0.9-2.5-1.4-3.7c-0.2-0.5-0.5-0.9-0.9-1.2
	c-0.3-0.2-1.1-0.2-1.1,0c0,0.4-0.7,0.6-0.3,1.1c1,1.2,1.8,2.5,2.6,3.9c0.2,0.3,0.5,0.4,0.8,0.4C36.8,32.3,36.9,32.2,36.9,32.1z
	 M40.8,31.3c0.4-0.2,0.6-0.4,0.6-0.9c-0.1-0.8-0.3-1.7,0-2.4c0.5-1,0.1-2,0.3-2.9c0.1-0.5-0.3-0.7-0.7-0.8c-0.5-0.1-0.8,0.2-0.8,0.8
	c0,0.7,0,1.4,0.3,2.1c0.2,0.6,0.1,1.4,0,2.1C40.4,30,41,30.6,40.8,31.3z M34,48.7c-0.3-0.2-0.7-0.1-1-0.1c-0.2,0-0.5,0-0.5,0.2
	c0,0.2-0.1,0.7,0.1,0.7c0.6,0,0.7,0.8,1.4,0.6C34,49.7,34,49.2,34,48.7z"/>
<path class="st0" d="M35,71.3c0,0.7,0,1.2,0,1.9c-2.3-0.2-4.3-0.9-6-2.4c-1.9-1.6-2.9-4.3-2.8-6.5c0.6,0,1.1,0,1.7,0
	c0.3,1.1,0.4,2.3,1,3.3c0.7,1.1,1.6,2,2.6,2.7C32.5,71,33.7,71.2,35,71.3z"/>
<path class="st0" d="M67.9,55.6c0-0.7,0-1.2,0-1.8c1.9-0.2,1.9-0.2,1.8,1.7c-0.3,0.2-0.6,0.1-0.9,0.1C68.6,55.6,68.3,55.6,67.9,55.6
	z"/>
<path class="st0" d="M45.5,45.4c-0.6,0-1,0-1.5,0c-0.4,0-0.8-0.3-0.7-0.8c0-0.4-0.1-0.7,0.1-1.1c0.2-0.3,1-0.6,1.6-0.4
	c0.3,0.1,0.6,0.4,0.6,0.8C45.5,44.4,45.5,44.8,45.5,45.4z"/>
<path class="st0" d="M43.7,36.5c0.6,0,1.2,0,1.8,0c0,0.6,0,1.2,0,1.8c-0.5,0-1.1,0-1.8,0C43.7,37.8,43.7,37.2,43.7,36.5z"/>
<path class="st0" d="M45.5,40c0,0.6,0,1.2,0,1.8c-0.6,0-1.2,0-1.8,0c0-0.5,0-1.1,0-1.8C44.2,40,44.8,40,45.5,40z"/>
<path class="st0" d="M69.8,67.8c0,0.6,0,1.2,0,1.8c-0.6,0-1.2,0-1.8,0c0-0.5,0-1.2,0-1.8C68.5,67.8,69.1,67.8,69.8,67.8z"/>
<path class="st0" d="M67.9,60.7c0.6,0,1.2,0,1.8,0c0,0.6,0,1.2,0,1.8c-0.5,0-1.1,0-1.8,0C67.9,62,67.9,61.5,67.9,60.7z"/>
</svg>
